{
.appVersion = "3309";
.formatVersion = 3;
axes = (
{
name = Weight;
tag = wght;
}
);
classes = (
{
automatic = 1;
code = "A Aacute Abreve Abreveacute Abrevedotbelow Abrevegrave Abrevehookabove Abrevetilde Acircumflex Acircumflexacute Acircumflexdotbelow Acircumflexgrave Acircumflexhookabove Acircumflextilde Adieresis Adotbelow Agrave Ahookabove Amacron Aogonek Aring Aringacute Atilde AE AEacute B C Cacute Ccaron Ccedilla Ccircumflex Cdotaccent D Eth Dcaron Dcroat E Eacute Ebreve Ecaron Ecircumflex Ecircumflexacute Ecircumflexdotbelow Ecircumflexgrave Ecircumflexhookabove Ecircumflextilde Edieresis Edotaccent Edotbelow Egrave Ehookabove Emacron Eogonek Etilde Schwa F G Gbreve Gcircumflex Gcommaaccent Gdotaccent H Hbar Hcircumflex I IJ Iacute Ibreve Icircumflex Idieresis Idotaccent Idotbelow Igrave Ihookabove Imacron Iogonek Itilde J Jacute Jcircumflex K Kcommaaccent L Lacute Lcaron Lcommaaccent Ldot Lslash M N Nacute Ncaron Ncommaaccent Ntilde Eng O Oacute Obreve Ocircumflex Ocircumflexacute Ocircumflexdotbelow Ocircumflexgrave Ocircumflexhookabove Ocircumflextilde Odieresis Odotbelow Ograve Ohookabove Ohorn Ohornacute Ohorndotbelow Ohorngrave Ohornhookabove Ohorntilde Ohungarumlaut Omacron Oslash Oslashacute Otilde OE P Thorn Q R Racute Rcaron Rcommaaccent S Sacute Scaron Scedilla Scircumflex Scommaaccent Germandbls T Tbar Tcaron Tcedilla Tcommaaccent U Uacute Ubreve Ucircumflex Udieresis Udotbelow Ugrave Uhookabove Uhorn Uhornacute Uhorndotbelow Uhorngrave Uhornhookabove Uhorntilde Uhungarumlaut Umacron Uogonek Uring Utilde V W Wacute Wcircumflex Wdieresis Wgrave X Y Yacute Ycircumflex Ydieresis Ydotbelow Ygrave Yhook Ytilde Z Zacute Zcaron Zdotaccent";
name = Uppercase;
}
);
customParameters = (
{
name = fsType;
value = (
);
},
{
name = "Use Typo Metrics";
value = 1;
}
);
date = "2019-12-16 06:52:27 +0000";
familyName = Anuphan;
featurePrefixes = (
{
automatic = 1;
code = "languagesystem DFLT dflt;

languagesystem thai dflt;

languagesystem latn dflt;

glyphs = (
{
glyphname = A;
kernLeft = latn_uc_a;
kernRight = latn_uc_a;
lastChange = "2023-02-21 09:59:45 +0000";
layers = (
{
anchors = (
{
name = bottom;
pos = (321,0);
},
{
name = ogonek;
pos = (618,0);
},
{
name = top;
pos = (321,698);
}
);
layerId = "E49AE6DE-96A1-45B5-978D-9231980F4AB5";
shapes = (
{
closed = 1;
nodes = (
(108,0,l),
(178,206,l),
(460,206,l),
(530,0,l),
(618,0,l,{
name = hr00;
}),
(374,698,l),
(267,698,l),
(23,0,l)
);
},
{
closed = 1;
nodes = (
(316,620,l),
(321,620,l),
(439,280,l),
(198,280,l)
);
}
);
width = 641;
},
{
anchors = (
{
name = bottom;
pos = (343,0);
},
{
name = ogonek;
pos = (665,0);
},
{
name = top;
pos = (342,698);
}
);
layerId = "5E87F462-D40B-43EC-958D-42003ED2F346";
shapes = (
{
closed = 1;
nodes = (
(174,0,l),
(224,166,l),
(457,166,l),
(507,0,l),
(665,0,l),
(438,698,l),
(250,698,l),
(20,0,l)
);
},
{
closed = 1;
nodes = (
(337,560,l),
(342,560,l),
(420,295,l),
(260,295,l)
);
}
);
width = 685;
},
{
anchors = (
{
name = bottom;
pos = (300,0);
},
{
name = ogonek;
pos = (568,0);
},
{
name = top;
pos = (300,698);
}
);
layerId = "D69F2138-E7D7-470A-972F-2AC6B0C54BA2";
shapes = (
{
closed = 1;
nodes = (
(55,0,l),
(140,234,l),
(460,234,l),
(545,0,l),
(568,0,l),
(315,698,l),
(285,698,l),
(32,0,l)
);
},
{
closed = 1;
nodes = (
(298,675,l),
(301,675,l),
(453,253,l),
(147,253,l)
);
}
);
width = 600;
}
);
unicode = 65;
},
{
glyphname = Aacute;
kernLeft = latn_uc_a;
kernRight = latn_uc_a;
lastChange = "2023-02-21 09:59:45 +0000";
layers = (
{
layerId = "E49AE6DE-96A1-45B5-978D-9231980F4AB5";
shapes = (
{
ref = A;
},
{
pos = (21,0);
ref = acute.case;
}
);
width = 641;
},
{
background = {
shapes = (
{
closed = 1;
nodes = (
(174,0,l),
(224,166,l),
(457,166,l),
(507,0,l),
(665,0,l),
(438,698,l),
(250,698,l),
(20,0,l)
);
},
{
closed = 1;
nodes = (
(337,560,l),
(342,560,l),
(420,295,l),
(260,295,l)
);
},
{
closed = 1;
nodes = (
(489,916,l),
(366,977,l),
(267,783,l),
(355,740,l)
);
}
);
};
layerId = "5E87F462-D40B-43EC-958D-42003ED2F346";
shapes = (
{
ref = A;
},
{
pos = (41,0);
ref = acute.case;
}
);
width = 685;
},
{
background = {
shapes = (
{
closed = 1;
nodes = (
(55,0,l),
(140,234,l),
(460,234,l),
(545,0,l),
(568,0,l),
(315,698,l),
(285,698,l),
(32,0,l)
);
},
{
closed = 1;
nodes = (
(298,675,l),
(301,675,l),
(453,253,l),
(147,253,l)
);
},
{
closed = 1;
nodes = (
(396,919,l),
(377,931,l),
(266,777,l),
(281,767,l)
);
}
);
};
layerId = "D69F2138-E7D7-470A-972F-2AC6B0C54BA2";
shapes = (
{
ref = A;
},
{
ref = acute.case;
}
);
width = 600;
}
);
unicode = 193;
userData = {
com.typemytype.robofont.mark = (
0.6,
0.986,
1,
1
);
};
},
{
glyphname = Abreve;
kernLeft = latn_uc_a;
kernRight = latn_uc_a;
lastChange = "2023-02-21 09:59:45 +0000";
layers = (
{
layerId = "E49AE6DE-96A1-45B5-978D-9231980F4AB5";
shapes = (
{
ref = A;
},
{
pos = (21,0);
ref = breve.case;
}
);
width = 641;
},
{
background = {
shapes = (
{
closed = 1;
nodes = (
(174,0,l),
(224,166,l),
(457,166,l),
(507,0,l),
(665,0,l),
(438,698,l),
(250,698,l),
(20,0,l)
);
},
{
closed = 1;
nodes = (
(337,560,l),
(342,560,l),
(420,295,l),
(260,295,l)
);
},
{
closed = 1;
nodes = (
(452,740,o),
(505,838,o),
(529,910,c),
(449,952,l),
(430,920,ls),
(401,871,o),
(376,843,o),
(339,843,cs),
(302,843,o),
(278,871,o),
(249,920,cs),
(230,952,l),
(149,910,l),
(173,838,o),
(221,740,o),
(339,740,cs)
);
}
);
};
layerId = "5E87F462-D40B-43EC-958D-42003ED2F346";
shapes = (
{
ref = A;
},
{
pos = (42,0);
ref = breve.case;
}
);
width = 685;
},
{
background = {
shapes = (
{
closed = 1;
nodes = (
(55,0,l),
(140,234,l),
(460,234,l),
(545,0,l),
(568,0,l),
(315,698,l),
(285,698,l),
(32,0,l)
);
},
{
closed = 1;
nodes = (
(298,675,l),
(301,675,l),
(453,253,l),
(147,253,l)
);
},
{
closed = 1;
nodes = (
(367,786,o),
(394,830,o),
(431,903,c),
(415,910,l),
(400,883,ls),
(365,820,o),
(343,805,o),
(299,805,cs),
(255,805,o),
(233,820,o),
(198,883,cs),
(183,910,l),
(167,903,l),
(204,830,o),
(231,786,o),
(299,786,cs)
);
}
);
};
layerId = "D69F2138-E7D7-470A-972F-2AC6B0C54BA2";
shapes = (
{
ref = A;
},
{
ref = breve.case;
}
);
width = 600;
}
);
unicode = 258;
userData = {
com.typemytype.robofont.mark = (
0.6,
0.986,
1,
1
);
};
},
{
glyphname = Acircumflexdotbelow;
kernLeft = latn_uc_a;
kernRight = latn_uc_a;
lastChange = "2023-02-21 09:59:45 +0000";
layers = (
{
layerId = "E49AE6DE-96A1-45B5-978D-9231980F4AB5";
shapes = (
{
pos = (321,0);
ref = dotbelowcomb;
},
{
ref = A;
},
{
pos = (21,0);
ref = circumflex.case;
}
);
width = 641;
},
{
background = {
shapes = (
{
closed = 1;
nodes = (
(174,0,l),
(224,166,l),
(457,166,l),
(507,0,l),
(665,0,l),
(438,698,l),
(250,698,l),
(20,0,l)
);
},
{
closed = 1;
nodes = (
(398,-204,o),
(420,-176,o),
(420,-141,cs),
(420,-115,ls),
(420,-80,o),
(398,-52,o),
(339,-52,cs),
(280,-52,o),
(258,-80,o),
(258,-115,cs),
(258,-141,ls),
(258,-176,o),
(280,-204,o),
(339,-204,cs)
);
},
{
closed = 1;
nodes = (
(337,560,l),
(342,560,l),
(420,295,l),
(260,295,l)
);
},
{
closed = 1;
nodes = (
(339,854,l),
(460,739,l),
(533,797,l),
(401,956,l),
(277,956,l),
(145,797,l),
(218,739,l)
);
}
);
};
layerId = "5E87F462-D40B-43EC-958D-42003ED2F346";
shapes = (
{
pos = (343,0);
ref = dotbelowcomb;
},
{
ref = A;
},
{
pos = (42,0);
ref = circumflex.case;
}
);
width = 685;
},
{
background = {
shapes = (
{
closed = 1;
nodes = (
(55,0,l),
(140,234,l),
(460,234,l),
(545,0,l),
(568,0,l),
(315,698,l),
(285,698,l),
(32,0,l)
);
},
{
closed = 1;
nodes = (
(323,-134,o),
(329,-124,o),
(329,-113,cs),
(329,-106,ls),
(329,-95,o),
(323,-85,o),
(306,-85,cs),
(289,-85,o),
(283,-95,o),
(283,-106,cs),
(283,-113,ls),
(283,-124,o),
(289,-134,o),
(306,-134,cs)
);
},
{
closed = 1;
nodes = (
(298,675,l),
(301,675,l),
(453,253,l),
(147,253,l)
);
},
{
closed = 1;
nodes = (
(299,906,l),
(425,779,l),
(439,790,l),
(311,923,l),
(287,923,l),
(159,790,l),
(173,779,l)
);
}
);
};
layerId = "D69F2138-E7D7-470A-972F-2AC6B0C54BA2";
shapes = (
{
pos = (300,0);
ref = dotbelowcomb;
},
{
ref = A;
},
{
ref = circumflex.case;
}
);
width = 600;
}
);
unicode = 7852;
userData = {
com.typemytype.robofont.mark = (
0.6,
0.986,
1,
1
);
};
},
{
glyphname = Acircumflexgrave;
kernLeft = latn_uc_a;
kernRight = latn_uc_a;
lastChange = "2023-02-21 09:59:45 +0000";
layers = (
{
background = {
anchors = (
{
name = bottom;
pos = (322,0);
},
{
name = bottomright;
pos = (618,0);
}
);
shapes = (
{
ref = A;
},
{
pos = (321,0);
ref = circumflexgrave.case;
}
);
};
layerId = "E49AE6DE-96A1-45B5-978D-9231980F4AB5";
shapes = (
{
ref = A;
},
{
pos = (321,0);
ref = circumflexgrave.case;
}
);
width = 641;
},
{
background = {
shapes = (
{
closed = 1;
nodes = (
(174,0,l),
(224,166,l),
(457,166,l),
(507,0,l),
(665,0,l),
(438,698,l),
(250,698,l),
(20,0,l)
);
},
{
closed = 1;
nodes = (
(337,560,l),
(342,560,l),
(420,295,l),
(260,295,l)
);
},
{
closed = 1;
nodes = (
(245,933,l),
(146,1127,l),
(32,1070,l),
(166,894,l)
);
},
{
closed = 1;
nodes = (
(339,835,l),
(463,731,l),
(531,795,l),
(386,942,l),
(292,942,l),
(147,795,l),
(215,731,l)
);
}
);
};
layerId = "5E87F462-D40B-43EC-958D-42003ED2F346";
shapes = (
{
ref = A;
},
{
pos = (342,0);
ref = circumflexgrave.case;
}
);
width = 685;
},
{
background = {
shapes = (
{
closed = 1;
nodes = (
(55,0,l),
(140,234,l),
(460,234,l),
(545,0,l),
(568,0,l),
(315,698,l),
(285,698,l),
(32,0,l)
);
},
{
closed = 1;
nodes = (
(298,675,l),
(301,675,l),
(453,253,l),
(147,253,l)
);
},
{
closed = 1;
nodes = (
(200,887,l),
(89,1041,l),
(70,1029,l),
(185,877,l)
);
},
{
closed = 1;
nodes = (
(299,898,l),
(425,771,l),
(439,782,l),
(311,915,l),
(287,915,l),
(159,782,l),
(173,771,l)
);
}
);
};
layerId = "D69F2138-E7D7-470A-972F-2AC6B0C54BA2";
shapes = (
{
ref = A;
},
{
pos = (300,0);
ref = circumflexgrave.case;
}
);
width = 600;
}
);
unicode = 7846;
userData = {
com.typemytype.robofont.mark = (
0.6,
0.986,
1,
1
);
};
},
{
glyphname = Acircumflexhookabove;
kernRight = uc_a;
lastChange = "2019-12-13 08:05:31 +0000";
layers = (
{
background = {
shapes = (
{
ref = A;
}
);
};
layerId = "E49AE6DE-96A1-45B5-978D-9231980F4AB5";
shapes = (
{
ref = A;
},
{
pos = (321,0);
ref = circumflexhook.case;
}
);
width = 641;
},
{
background = {
shapes = (
{
closed = 1;
nodes = (
(174,0,l),
(224,166,l),
(457,166,l),
(507,0,l),
(665,0,l),
(438,698,l),
(250,698,l),
(20,0,l)
);
},
{
closed = 1;
nodes = (
(337,560,l),
(342,560,l),
(420,295,l),
(260,295,l)
);
},
{
closed = 1;
nodes = (
(339,835,l),
(463,731,l),
(531,795,l),
(386,942,l),
(292,942,l),
(147,795,l),
(215,731,l)
);
},
{
closed = 1;
nodes = (
(546,914,ls),
(579,954,o),
(609,1001,o),
(609,1041,cs),
(609,1079,o),
(585,1113,o),
(511,1113,cs),
(377,1113,l),
(377,1012,l),
(496,1012,l),
(453,915,l),
(519,881,l)
);
}
);
};
layerId = "5E87F462-D40B-43EC-958D-42003ED2F346";
shapes = (
{
ref = A;
},
{
pos = (342,0);
ref = circumflexhook.case;
}
);
width = 685;
},
{
background = {
shapes = (
{
closed = 1;
nodes = (
(55,0,l),
(140,234,l),
(460,234,l),
(545,0,l),
(568,0,l),
(315,698,l),
(285,698,l),
(32,0,l)
);
},
{
closed = 1;
nodes = (
(298,675,l),
(301,675,l),
(453,253,l),
(147,253,l)
);
},
{
closed = 1;
nodes = (
(299,898,l),
(425,771,l),
(439,782,l),
(311,915,l),
(287,915,l),
(159,782,l),
(173,771,l)
);
},
{
closed = 1;
nodes = (
(467,951,ls),
(493,991,o),
(498,1001,o),
(498,1009,cs),
(498,1020,o),
(490,1027,o),
(475,1027,cs),
(338,1027,l),
(338,1009,l),
(479,1009,l),
(402,883,l),
(418,875,l)
);
}
);
};
layerId = "D69F2138-E7D7-470A-972F-2AC6B0C54BA2";
shapes = (
{
ref = A;
},
{
pos = (300,0);
ref = circumflexhook.case;
}
);
width = 600;
}
);
unicode = 7848;
userData = {
com.typemytype.robofont.mark = (
0.6,
0.986,
1,
1
);
};
},
{
glyphname = Acircumflextilde;
kernLeft = latn_uc_a;
kernRight = latn_uc_a;
lastChange = "2023-02-21 09:59:45 +0000";
layers = (
{
background = {
anchors = (
{
name = bottom;
pos = (322,0);
},
{
name = bottomright;
pos = (618,0);
}
);
shapes = (
{
ref = A;
},
{
pos = (321,0);
ref = circumflextilde.case;
}
);
};
layerId = "E49AE6DE-96A1-45B5-978D-9231980F4AB5";
shapes = (
{
ref = A;
},
{
pos = (321,0);
ref = circumflextilde.case;
}
);
width = 641;
},
{
background = {
shapes = (
{
closed = 1;
nodes = (
(174,0,l),
(224,166,l),
(457,166,l),
(507,0,l),
(665,0,l),
(438,698,l),
(250,698,l),
(20,0,l)
);
},
{
closed = 1;
nodes = (
(337,560,l),
(342,560,l),
(420,295,l),
(260,295,l)
);
},
{
closed = 1;
nodes = (
(339,826,l),
(463,731,l),
(529,795,l),
(387,929,l),
(291,929,l),
(149,795,l),
(215,731,l)
);
},
{
closed = 1;
nodes = (
(467,958,o),
(504,986,o),
(528,1022,c),
(478,1086,l),
(457,1069,o),
(442,1061,o),
(419,1061,cs),
(393,1061,o),
(370,1071,o),
(341,1083,cs),
(316,1094,o),
(294,1103,o),
(264,1103,cs),
(211,1103,o),
(174,1075,o),
(150,1039,c),
(200,975,l),
(221,992,o),
(236,1000,o),
(259,1000,cs),
(285,1000,o),
(308,990,o),
(337,978,cs),
(362,967,o),
(384,958,o),
(414,958,cs)
);
}
);
};
layerId = "5E87F462-D40B-43EC-958D-42003ED2F346";
shapes = (
{
ref = A;
},
{
pos = (342,0);
ref = circumflextilde.case;
}
);
width = 685;
},
{
background = {
shapes = (
{
closed = 1;
nodes = (
(55,0,l),
(140,234,l),
(460,234,l),
(545,0,l),
(568,0,l),
(315,698,l),
(285,698,l),
(32,0,l)
);
},
{
closed = 1;
nodes = (
(298,675,l),
(301,675,l),
(453,253,l),
(147,253,l)
);
},
{
closed = 1;
nodes = (
(299,898,l),
(425,771,l),
(439,782,l),
(311,915,l),
(287,915,l),
(159,782,l),
(173,771,l)
);
},
{
closed = 1;
nodes = (
(398,953,o),
(424,965,o),
(448,992,c),
(436,1004,l),
(415,982,o),
(395,971,o),
(371,971,cs),
(352,971,o),
(334,978,o),
(305,997,cs),
(271,1019,o),
(251,1027,o),
(228,1027,cs),
(200,1027,o),
(174,1015,o),
(150,988,c),
(162,976,l),
(183,998,o),
(203,1009,o),
(227,1009,cs),
(246,1009,o),
(264,1002,o),
(293,983,cs),
(327,961,o),
(347,953,o),
(370,953,cs)
);
}
);
};
layerId = "D69F2138-E7D7-470A-972F-2AC6B0C54BA2";
shapes = (
{
ref = A;
},
{
pos = (300,0);
ref = circumflextilde.case;
}
);
width = 600;
}
);
unicode = 7850;
userData = {
com.typemytype.robofont.mark = (
0.6,
0.986,
1,
1
);
};
},
{
glyphname = Adieresis;
kernLeft = latn_uc_a;
kernRight = latn_uc_a;
lastChange = "2023-02-21 09:59:45 +0000";
layers = (
{
layerId = "E49AE6DE-96A1-45B5-978D-9231980F4AB5";
shapes = (
{
ref = A;
},
{
pos = (21,0);
ref = dieresis.case;
}
);
width = 641;
},
{
background = {
shapes = (
{
closed = 1;
nodes = (
(174,0,l),
(224,166,l),
(457,166,l),
(507,0,l),
(665,0,l),
(438,698,l),
(250,698,l),
(20,0,l)
);
},
{
closed = 1;
nodes = (
(337,560,l),
(342,560,l),
(420,295,l),
(260,295,l)
);
},
{
closed = 1;
nodes = (
(289,761,o),
(309,789,o),
(309,824,cs),
(309,849,ls),
(309,884,o),
(289,912,o),
(229,912,cs),
(169,912,o),
(149,884,o),
(149,849,cs),
(149,824,ls),
(149,789,o),
(169,761,o),
(229,761,cs)
);
},
{
closed = 1;
nodes = (
(509,761,o),
(529,789,o),
(529,824,cs),
(529,849,ls),
(529,884,o),
(509,912,o),
(449,912,cs),
(389,912,o),
(369,884,o),
(369,849,cs),
(369,824,ls),
(369,789,o),
(389,761,o),
(449,761,cs)
);
}
);
};
layerId = "5E87F462-D40B-43EC-958D-42003ED2F346";
shapes = (
{
ref = A;
},
{
pos = (42,0);
ref = dieresis.case;
}
);
width = 685;
},
{
background = {
shapes = (
{
closed = 1;
nodes = (
(55,0,l),
(140,234,l),
(460,234,l),
(545,0,l),
(568,0,l),
(315,698,l),
(285,698,l),
(32,0,l)
);
},
{
closed = 1;
nodes = (
(298,675,l),
(301,675,l),
(453,253,l),
(147,253,l)
);
},
{
closed = 1;
nodes = (
(225,819,o),
(231,829,o),
(231,840,cs),
(231,847,ls),
(231,858,o),
(225,868,o),
(208,868,cs),
(191,868,o),
(185,858,o),
(185,847,cs),
(185,840,ls),
(185,829,o),
(191,819,o),
(208,819,cs)
);
},
{
closed = 1;
nodes = (
(407,819,o),
(413,829,o),
(413,840,cs),
(413,847,ls),
(413,858,o),
(407,868,o),
(390,868,cs),
(373,868,o),
(367,858,o),
(367,847,cs),
(367,840,ls),
(367,829,o),
(373,819,o),
(390,819,cs)
);
}
);
};
layerId = "D69F2138-E7D7-470A-972F-2AC6B0C54BA2";
shapes = (
{
ref = A;
},
{
ref = dieresis.case;
}
);
width = 600;
}
);
unicode = 196;
userData = {
com.typemytype.robofont.mark = (
0.6,
0.986,
1,
1
);
};
},
{
glyphname = Adotbelow;
kernLeft = latn_uc_a;
kernRight = latn_uc_a;
lastChange = "2023-02-21 09:59:45 +0000";
layers = (
{
layerId = "E49AE6DE-96A1-45B5-978D-9231980F4AB5";
shapes = (
{
ref = A;
},
{
pos = (321,0);
ref = dotbelowcomb;
}
);
width = 641;
},
{
background = {
shapes = (
{
closed = 1;
nodes = (
(174,0,l),
(224,166,l),
(457,166,l),
(507,0,l),
(665,0,l),
(438,698,l),
(250,698,l),
(20,0,l)
);
},
{
closed = 1;
nodes = (
(398,-204,o),
(420,-176,o),
(420,-141,cs),
(420,-115,ls),
(420,-80,o),
(398,-52,o),
(339,-52,cs),
(280,-52,o),
(258,-80,o),
(258,-115,cs),
(258,-141,ls),
(258,-176,o),
(280,-204,o),
(339,-204,cs)
);
},
{
closed = 1;
nodes = (
(337,560,l),
(342,560,l),
(420,295,l),
(260,295,l)
);
}
);
};
layerId = "5E87F462-D40B-43EC-958D-42003ED2F346";
shapes = (
{
ref = A;
},
{
pos = (343,0);
ref = dotbelowcomb;
}
);
width = 685;
},
{
background = {
shapes = (
{
closed = 1;
nodes = (
(55,0,l),
(140,234,l),
(460,234,l),
(545,0,l),
(568,0,l),
(315,698,l),
(285,698,l),
(32,0,l)
);
},
{
closed = 1;
nodes = (
(323,-134,o),
(329,-124,o),
(329,-113,cs),
(329,-106,ls),
(329,-95,o),
(323,-85,o),
(306,-85,cs),
(289,-85,o),
(283,-95,o),
(283,-106,cs),
(283,-113,ls),
(283,-124,o),
(289,-134,o),
(306,-134,cs)
);
},
{
closed = 1;
nodes = (
(298,675,l),
(301,675,l),
(453,253,l),
(147,253,l)
);
}
);
};
layerId = "D69F2138-E7D7-470A-972F-2AC6B0C54BA2";
shapes = (
{
ref = A;
},
{
pos = (300,0);
ref = dotbelowcomb;
}
);
width = 600;
}
);
unicode = 7840;
userData = {
com.typemytype.robofont.mark = (
0.6,
0.986,
1,
1
);
};
},
{
glyphname = Agrave;
kernLeft = latn_uc_a;
kernRight = latn_uc_a;
lastChange = "2023-02-21 09:59:45 +0000";
layers = (
{
layerId = "E49AE6DE-96A1-45B5-978D-9231980F4AB5";
shapes = (
{
ref = A;
},
{
pos = (21,0);
ref = grave.case;
}
);
width = 641;
},
{
background = {
shapes = (
{
closed = 1;
nodes = (
(174,0,l),
(224,166,l),
(457,166,l),
(507,0,l),
(665,0,l),
(438,698,l),
(250,698,l),
(20,0,l)
);
},
{
closed = 1;
nodes = (
(337,560,l),
(342,560,l),
(420,295,l),
(260,295,l)
);
},
{
closed = 1;
nodes = (
(411,783,l),
(312,977,l),
(189,916,l),
(323,740,l)
);
}
);
};
layerId = "5E87F462-D40B-43EC-958D-42003ED2F346";
shapes = (
{
ref = A;
},
{
pos = (42,0);
ref = grave.case;
}
);
width = 685;
},
{
background = {
shapes = (
{
closed = 1;
nodes = (
(55,0,l),
(140,234,l),
(460,234,l),
(545,0,l),
(568,0,l),
(315,698,l),
(285,698,l),
(32,0,l)
);
},
{
closed = 1;
nodes = (
(298,675,l),
(301,675,l),
(453,253,l),
(147,253,l)
);
},
{
closed = 1;
nodes = (
(331,777,l),
(220,931,l),
(201,919,l),
(316,767,l)
);
}
);
};
layerId = "D69F2138-E7D7-470A-972F-2AC6B0C54BA2";
shapes = (
{
ref = A;
},
{
ref = grave.case;
}
);
width = 600;
}
);
unicode = 192;
userData = {
com.typemytype.robofont.mark = (
0.6,
0.986,
1,
1
);
};
},
{
glyphname = Ahookabove;
kernRight = uc_a;
lastChange = "2019-12-13 08:05:31 +0000";
layers = (
{
background = {
shapes = (
{
pos = (321,0);
ref = hookcomb.case;
}
);
};
layerId = "E49AE6DE-96A1-45B5-978D-9231980F4AB5";
shapes = (
{
ref = A;
},
{
pos = (321,170);
ref = hookabovecomb;
}
);
width = 641;
},
{
background = {
shapes = (
{
closed = 1;
nodes = (
(174,0,l),
(224,166,l),
(457,166,l),
(507,0,l),
(665,0,l),
(438,698,l),
(250,698,l),
(20,0,l)
);
},
{
closed = 1;
nodes = (
(337,560,l),
(342,560,l),
(420,295,l),
(260,295,l)
);
},
{
closed = 1;
nodes = (
(403,764,ls),
(436,804,o),
(460,851,o),
(460,890,cs),
(460,929,o),
(437,963,o),
(362,963,cs),
(219,963,l),
(219,857,l),
(341,857,l),
(300,765,l),
(375,730,l)
);
}
);
};
layerId = "5E87F462-D40B-43EC-958D-42003ED2F346";
shapes = (
{
ref = A;
},
{
pos = (342,159);
ref = hookabovecomb;
}
);
width = 685;
},
{
background = {
shapes = (
{
closed = 1;
nodes = (
(55,0,l),
(140,234,l),
(460,234,l),
(545,0,l),
(568,0,l),
(315,698,l),
(285,698,l),
(32,0,l)
);
},
{
closed = 1;
nodes = (
(298,675,l),
(301,675,l),
(453,253,l),
(147,253,l)
);
},
{
closed = 1;
nodes = (
(354,841,ls),
(380,881,o),
(385,891,o),
(385,899,cs),
(385,910,o),
(377,917,o),
(362,917,cs),
(225,917,l),
(225,899,l),
(366,899,l),
(289,773,l),
(305,765,l)
);
}
);
};
layerId = "D69F2138-E7D7-470A-972F-2AC6B0C54BA2";
shapes = (
{
ref = A;
},
{
pos = (299,180);
ref = hookabovecomb;
}
);
width = 600;
}
);
unicode = 7842;
userData = {
com.typemytype.robofont.mark = (
0.6,
0.986,
1,
1
);
};
},
{
glyphname = Amacron;
kernLeft = latn_uc_a;
kernRight = latn_uc_a;
lastChange = "2023-02-21 09:59:45 +0000";
layers = (
{
layerId = "E49AE6DE-96A1-45B5-978D-9231980F4AB5";
shapes = (
{
ref = A;
},
{
pos = (21,0);
ref = macron.case;
}
);
width = 641;
},
{
background = {
shapes = (
{
closed = 1;
nodes = (
(174,0,l),
(224,166,l),
(457,166,l),
(507,0,l),
(665,0,l),
(438,698,l),
(250,698,l),
(20,0,l)
);
},
{
closed = 1;
nodes = (
(337,560,l),
(342,560,l),
(420,295,l),
(260,295,l)
);
},
{
closed = 1;
nodes = (
(492,785,l),
(492,888,l),
(186,888,l),
(186,785,l)
);
}
);
};
layerId = "5E87F462-D40B-43EC-958D-42003ED2F346";
shapes = (
{
ref = A;
},
{
pos = (42,0);
ref = macron.case;
}
);
width = 685;
},
{
background = {
shapes = (
{
closed = 1;
nodes = (
(55,0,l),
(140,234,l),
(460,234,l),
(545,0,l),
(568,0,l),
(315,698,l),
(285,698,l),
(32,0,l)
);
},
{
closed = 1;
nodes = (
(298,675,l),
(301,675,l),
(453,253,l),
(147,253,l)
);
},
{
closed = 1;
nodes = (
(428,838,l),
(428,856,l),
(170,856,l),
(170,838,l)
);
}
);
};
layerId = "D69F2138-E7D7-470A-972F-2AC6B0C54BA2";
shapes = (
{
ref = A;
},
{
ref = macron.case;
}
);
width = 600;
}
);
unicode = 256;
userData = {
com.typemytype.robofont.mark = (
0.6,
0.986,
1,
1
);
};
},
{
glyphname = Aogonek;
kernLeft = latn_uc_a;
kernRight = latn_uc_a;
lastChange = "2023-02-21 09:59:45 +0000";
layers = (
{
layerId = "E49AE6DE-96A1-45B5-978D-9231980F4AB5";
shapes = (
{
closed = 1;
nodes = (
(597,-207,o),
(627,-189,o),
(639,-168,c),
(599,-129,l),
(587,-144,o),
(570,-153,o),
(551,-153,cs),
(533,-153,o),
(520,-145,o),
(520,-123,cs),
(520,-101,o),
(533,-78,o),
(618,0,c),
(374,698,l),
(267,698,l),
(23,0,l,{
name = hr00;
}),
(108,0,l),
(178,206,l),
(460,206,l),
(530,0,l),
(556,0,l),
(557,-4,l),
(503,-43,o),
(456,-80,o),
(456,-131,cs),
(456,-184,o),
(499,-207,o),
(551,-207,cs)
);
},
{
closed = 1;
nodes = (
(316,620,l),
(321,620,l),
(439,280,l),
(198,280,l)
);
}
);
width = 641;
},
{
layerId = "5E87F462-D40B-43EC-958D-42003ED2F346";
shapes = (
{
closed = 1;
nodes = (
(638,-212,o),
(680,-193,o),
(697,-161,c),
(644,-110,l),
(630,-126,o),
(613,-138,o),
(589,-138,cs),
(569,-138,o),
(551,-130,o),
(551,-105,cs),
(551,-81,o),
(567,-60,o),
(665,0,c),
(438,698,l),
(250,698,l),
(20,0,l),
(174,0,l),
(224,166,l),
(457,166,l),
(507,0,l),
(569,0,l),
(570,-4,l),
(496,-38,o),
(451,-71,o),
(451,-127,cs),
(451,-191,o),
(509,-212,o),
(575,-212,cs)
);
},
{
closed = 1;
nodes = (
(337,560,l),
(342,560,l),
(420,295,l),
(260,295,l)
);
}
);
width = 685;
},
{
background = {
shapes = (
{
closed = 1;
nodes = (
(553,-202,o),
(579,-188,o),
(592,-170,c),
(578,-159,l),
(568,-171,o),
(550,-184,o),
(518,-184,cs),
(483,-184,o),
(459,-168,o),
(459,-132,cs),
(459,-82,o),
(496,-48,o),
(568,0,c),
(315,698,l),
(285,698,l),
(32,0,l),
(55,0,l),
(140,234,l),
(461,234,l),
(545,0,l),
(460,-49,o),
(437,-94,o),
(437,-133,cs),
(437,-177,o),
(472,-202,o),
(517,-202,cs)
);
},
{
closed = 1;
nodes = (
(298,675,l),
(301,675,l),
(454,253,l),
(147,253,l)
);
}
);
};
layerId = "D69F2138-E7D7-470A-972F-2AC6B0C54BA2";
shapes = (
{
closed = 1;
nodes = (
(553,-202,o),
(579,-188,o),
(592,-170,c),
(578,-159,l),
(568,-171,o),
(550,-184,o),
(518,-184,cs),
(483,-184,o),
(459,-168,o),
(459,-132,cs),
(459,-82,o),
(496,-48,o),
(568,0,c),
(315,698,l),
(285,698,l),
(32,0,l),
(55,0,l),
(140,234,l),
(461,234,l),
(534,31,l),
(544,3,l),
(545,0,l),
(458,-49,o),
(437,-94,o),
(437,-133,cs),
(437,-177,o),
(472,-202,o),
(517,-202,cs)
);
},
{
closed = 1;
nodes = (
(298,675,l),
(301,675,l),
(454,253,l),
(147,253,l)
);
}
);
width = 600;
}
);
unicode = 260;
},
{
glyphname = Aring;
kernLeft = latn_uc_a;
kernRight = latn_uc_a;
lastChange = "2023-02-21 09:59:45 +0000";
layers = (
{
layerId = "E49AE6DE-96A1-45B5-978D-9231980F4AB5";
shapes = (
{
ref = A;
},
{
pos = (21,0);
ref = ring.case;
}
);
width = 641;
},
{
background = {
shapes = (
{
closed = 1;
nodes = (
(174,0,l),
(224,166,l),
(457,166,l),
(507,0,l),
(665,0,l),
(438,698,l),
(250,698,l),
(20,0,l)
);
},
{
closed = 1;
nodes = (
(337,560,l),
(342,560,l),
(420,295,l),
(260,295,l)
);
},
{
closed = 1;
nodes = (
(422,719,o),
(487,779,o),
(487,862,cs),
(487,945,o),
(422,1005,o),
(339,1005,cs),
(256,1005,o),
(191,945,o),
(191,862,cs),
(191,779,o),
(256,719,o),
(339,719,cs)
);
},
{
closed = 1;
nodes = (
(306,794,o),
(288,814,o),
(288,845,cs),
(288,879,ls),
(288,910,o),
(306,930,o),
(339,930,cs),
(372,930,o),
(390,910,o),
(390,879,cs),
(390,845,ls),
(390,814,o),
(372,794,o),
(339,794,cs)
);
}
);
};
layerId = "5E87F462-D40B-43EC-958D-42003ED2F346";
shapes = (
{
ref = A;
},
{
pos = (42,0);
ref = ring.case;
}
);
width = 685;
},
{
background = {
shapes = (
{
closed = 1;
nodes = (
(55,0,l),
(140,234,l),
(460,234,l),
(545,0,l),
(568,0,l),
(315,698,l),
(285,698,l),
(32,0,l)
);
},
{
closed = 1;
nodes = (
(298,675,l),
(301,675,l),
(453,253,l),
(147,253,l)
);
},
{
closed = 1;
nodes = (
(353,769,o),
(389,806,o),
(389,860,cs),
(389,914,o),
(353,951,o),
(299,951,cs),
(245,951,o),
(209,914,o),
(209,860,cs),
(209,806,o),
(245,769,o),
(299,769,cs)
);
},
{
closed = 1;
nodes = (
(256,787,o),
(229,814,o),
(229,855,cs),
(229,865,ls),
(229,906,o),
(256,933,o),
(299,933,cs),
(342,933,o),
(369,906,o),
(369,865,cs),
(369,855,ls),
(369,814,o),
(342,787,o),
(299,787,cs)
);
}
);
};
layerId = "D69F2138-E7D7-470A-972F-2AC6B0C54BA2";
shapes = (
{
ref = A;
},
{
ref = ring.case;
}
);
width = 600;
}
);
unicode = 197;
userData = {
com.typemytype.robofont.mark = (
0.6,
0.986,
1,
1
);
};
},
{
glyphname = Aringacute;
kernLeft = latn_uc_a;
kernRight = latn_uc_a;
lastChange = "2023-02-21 09:59:45 +0000";
layers = (
{
layerId = "E49AE6DE-96A1-45B5-978D-9231980F4AB5";
shapes = (
{
ref = A;
},
{
pos = (21,0);
ref = ringacute.case;
}
);
width = 641;
},
{
background = {
shapes = (
{
closed = 1;
nodes = (
(174,0,l),
(224,166,l),
(457,166,l),
(507,0,l),
(665,0,l),
(438,698,l),
(250,698,l),
(20,0,l)
);
},
{
closed = 1;
nodes = (
(337,560,l),
(342,560,l),
(420,295,l),
(260,295,l)
);
},
{
closed = 1;
nodes = (
(424,725,o),
(491,769,o),
(491,845,cs),
(491,921,o),
(424,965,o),
(339,965,cs),
(254,965,o),
(187,921,o),
(187,845,cs),
(187,769,o),
(254,725,o),
(339,725,cs)
);
},
{
closed = 1;
nodes = (
(303,795,o),
(284,808,o),
(284,840,cs),
(284,850,ls),
(284,882,o),
(303,895,o),
(339,895,cs),
(375,895,o),
(394,882,o),
(394,850,cs),
(394,840,ls),
(394,808,o),
(375,795,o),
(339,795,cs)
);
},
{
closed = 1;
nodes = (
(482,1069,l),
(408,1150,l),
(279,1033,l),
(332,976,l)
);
}
);
};
layerId = "5E87F462-D40B-43EC-958D-42003ED2F346";
shapes = (
{
ref = A;
},
{
pos = (42,0);
ref = ringacute.case;
}
);
width = 685;
},
{
background = {
shapes = (
{
closed = 1;
nodes = (
(55,0,l),
(140,234,l),
(460,234,l),
(545,0,l),
(568,0,l),
(315,698,l),
(285,698,l),
(32,0,l)
);
},
{
closed = 1;
nodes = (
(298,675,l),
(301,675,l),
(453,253,l),
(147,253,l)
);
},
{
closed = 1;
nodes = (
(353,769,o),
(389,806,o),
(389,860,cs),
(389,914,o),
(353,951,o),
(299,951,cs),
(245,951,o),
(209,914,o),
(209,860,cs),
(209,806,o),
(245,769,o),
(299,769,cs)
);
},
{
closed = 1;
nodes = (
(256,787,o),
(229,814,o),
(229,855,cs),
(229,865,ls),
(229,906,o),
(256,933,o),
(299,933,cs),
(342,933,o),
(369,906,o),
(369,865,cs),
(369,855,ls),
(369,814,o),
(342,787,o),
(299,787,cs)
);
},
{
closed = 1;
nodes = (
(383,1078,l),
(364,1091,l),
(284,988,l),
(299,979,l)
);
}
);
};
layerId = "D69F2138-E7D7-470A-972F-2AC6B0C54BA2";
shapes = (
{
ref = A;
},
{
ref = ringacute.case;
}
);
width = 600;
}
);
unicode = 506;
userData = {
com.typemytype.robofont.mark = (
0.6,
0.986,
1,
1
);
};
},
{
glyphname = Atilde;
kernLeft = latn_uc_a;
kernRight = latn_uc_a;
lastChange = "2023-02-21 09:59:45 +0000";
layers = (
{
layerId = "E49AE6DE-96A1-45B5-978D-9231980F4AB5";
shapes = (
{
ref = A;
},
{
pos = (21,0);
ref = tilde.case;
}
);
width = 641;
},
{
background = {
shapes = (
{
closed = 1;
nodes = (
(174,0,l),
(224,166,l),
(457,166,l),
(507,0,l),
(665,0,l),
(438,698,l),
(250,698,l),
(20,0,l)
);
},
{
closed = 1;
nodes = (
(337,560,l),
(342,560,l),
(420,295,l),
(260,295,l)
);
},
{
closed = 1;
nodes = (
(468,762,o),
(505,790,o),
(529,826,c),
(477,894,l),
(456,877,o),
(441,869,o),
(418,869,cs),
(392,869,o),
(369,879,o),
(340,891,cs),
(315,902,o),
(293,911,o),
(263,911,cs),
(210,911,o),
(173,883,o),
(149,847,c),
(201,779,l),
(222,796,o),
(237,804,o),
(260,804,cs),
(286,804,o),
(309,794,o),
(338,782,cs),
(363,771,o),
(385,762,o),
(415,762,cs)
);
}
);
};
layerId = "5E87F462-D40B-43EC-958D-42003ED2F346";
shapes = (
{
ref = A;
},
{
pos = (42,0);
ref = tilde.case;
}
);
width = 685;
},
{
background = {
shapes = (
{
closed = 1;
nodes = (
(55,0,l),
(140,234,l),
(460,234,l),
(545,0,l),
(568,0,l),
(315,698,l),
(285,698,l),
(32,0,l)
);
},
{
closed = 1;
nodes = (
(298,675,l),
(301,675,l),
(453,253,l),
(147,253,l)
);
},
{
closed = 1;
nodes = (
(398,808,o),
(424,820,o),
(448,847,c),
(436,859,l),
(415,837,o),
(395,826,o),
(371,826,cs),
(352,826,o),
(334,833,o),
(305,852,cs),
(271,874,o),
(251,882,o),
(228,882,cs),
(200,882,o),
(174,870,o),
(150,843,c),
(162,831,l),
(183,853,o),
(203,864,o),
(227,864,cs),
(246,864,o),
(264,857,o),
(293,838,cs),
(327,816,o),
(347,808,o),
(370,808,cs)
);
}
);
};
layerId = "D69F2138-E7D7-470A-972F-2AC6B0C54BA2";
shapes = (
{
ref = A;
},
{
ref = tilde.case;
}
);
width = 600;
}
);
unicode = 195;
userData = {
com.typemytype.robofont.mark = (
0.6,
0.986,
1,
1
);
};
},
{
glyphname = AE;
kernLeft = latn_uc_a;
kernRight = latn_uc_e;
lastChange = "2023-02-21 09:59:45 +0000";
layers = (
{
anchors = (
{
name = top;
pos = (591,698);
}
);
layerId = "E49AE6DE-96A1-45B5-978D-9231980F4AB5";
shapes = (
{
closed = 1;
nodes = (
(90,0,l),
(192,205,l),
(417,205,l),
(417,0,l,{
name = hr00;
}),
(843,0,l),
(843,74,l),
(500,74,l),
(500,316,l),
(823,316,l),
(823,390,l),
(500,390,l),
(500,624,l),
(843,624,l),
(843,698,l),
(361,698,l),
(4,0,l)
);
},
{
closed = 1;
nodes = (
(404,624,l),
(417,624,l),
(417,279,l),
(227,279,l)
);
}
);
width = 907;
},
{
anchors = (
{
name = top;
pos = (484,698);
}
);
layerId = "5E87F462-D40B-43EC-958D-42003ED2F346";
shapes = (
{
closed = 1;
nodes = (
(151,0,l),
(229,166,l),
(438,166,l),
(438,0,l),
(913,0,l),
(913,135,l),
(589,135,l),
(589,286,l),
(867,286,l),
(867,420,l),
(589,420,l),
(589,563,l),
(913,563,l),
(913,698,l),
(340,698,l),
(-1,0,l)
);
},
{
closed = 1;
nodes = (
(415,563,l),
(438,563,l),
(438,295,l),
(290,295,l)
);
}
);
width = 968;
},
{
anchors = (
{
name = top;
pos = (431,698);
}
);
layerId = "D69F2138-E7D7-470A-972F-2AC6B0C54BA2";
shapes = (
{
closed = 1;
nodes = (
(26,0,l),
(155,234,l),
(408,234,l),
(408,0,l),
(789,0,l),
(789,20,l),
(430,20,l),
(430,344,l),
(777,344,l),
(777,364,l),
(430,364,l),
(430,678,l),
(789,678,l),
(789,698,l),
(385,698,l),
(2,0,l)
);
},
{
closed = 1;
nodes = (
(397,678,l),
(408,678,l),
(408,253,l),
(165,253,l)
);
}
);
width = 861;
}
);
unicode = 198;
},
{
glyphname = AEacute;
kernLeft = latn_uc_a;
kernRight = latn_uc_e;
lastChange = "2023-02-21 09:59:45 +0000";
layers = (
{
layerId = "E49AE6DE-96A1-45B5-978D-9231980F4AB5";
shapes = (
{
ref = AE;
},
{
pos = (291,0);
ref = acute.case;
}
);
width = 907;
},
{
background = {
shapes = (
{
closed = 1;
nodes = (
(151,0,l),
(229,166,l),
(438,166,l),
(438,0,l),
(913,0,l),
(913,135,l),
(589,135,l),
(589,286,l),
(867,286,l),
(867,420,l),
(589,420,l),
(589,563,l),
(913,563,l),
(913,698,l),
(340,698,l),
(-1,0,l)
);
},
{
closed = 1;
nodes = (
(415,563,l),
(438,563,l),
(438,295,l),
(290,295,l)
);
}
);
};
layerId = "5E87F462-D40B-43EC-958D-42003ED2F346";
shapes = (
{
ref = AE;
},
{
pos = (183,0);
ref = acute.case;
}
);
width = 968;
},
{
background = {
shapes = (
{
closed = 1;
nodes = (
(26,0,l),
(155,234,l),
(408,234,l),
(408,0,l),
(789,0,l),
(789,20,l),
(430,20,l),
(430,344,l),
(777,344,l),
(777,364,l),
(430,364,l),
(430,678,l),
(789,678,l),
(789,698,l),
(385,698,l),
(2,0,l)
);
},
{
closed = 1;
nodes = (
(397,678,l),
(408,678,l),
(408,253,l),
(165,253,l)
);
}
);
};
layerId = "D69F2138-E7D7-470A-972F-2AC6B0C54BA2";
shapes = (
{
ref = AE;
},
{
pos = (131,0);
ref = acute.case;
}
);
width = 861;
}
);
unicode = 508;
userData = {
com.typemytype.robofont.mark = (
0.6,
0.986,
1,
1
);
};
},
{
glyphname = B;
lastChange = "2019-12-09 12:16:48 +0000";
layers = (
{
anchors = (
{
name = bottom;
pos = (307,0);
},
{
name = top;
pos = (307,698);
}
);
layerId = "E49AE6DE-96A1-45B5-978D-9231980F4AB5";
shapes = (
{
closed = 1;
nodes = (
(410,0,l),
(513,0,o),
(590,87,o),
(590,202,cs),
(590,318,o),
(503,361,o),
(453,364,c),
(453,370,l),
(499,377,o),
(566,414,o),
(566,518,cs,{
name = hr01;
}),
(566,627,o),
(495,698,o),
(380,698,cs),
(93,698,l),
(93,0,l)
);
},
{
closed = 1;
nodes = (
(177,324,l),
(384,324,ls),
(456,324,o),
(500,286,o),
(500,216,cs,{
name = hr02;
}),
(500,182,ls),
(500,112,o),
(456,74,o),
(384,74,cs),
(177,74,l)
);
},
{
closed = 1;
nodes = (
(177,624,l),
(370,624,ls),
(436,624,o),
(476,589,o),
(476,527,cs,{
name = hr03;
}),
(476,493,ls),
(476,431,o),
(436,396,o),
(370,396,cs),
(177,396,l)
);
}
);
width = 653;
},
{
anchors = (
{
name = bottom;
pos = (334,0);
},
{
name = top;
pos = (334,698);
}
);
layerId = "5E87F462-D40B-43EC-958D-42003ED2F346";
shapes = (
{
closed = 1;
nodes = (
(447,0,ls),
(550,0,o),
(627,89,o),
(627,199,cs),
(627,319,o),
(536,363,o),
(470,363,c),
(470,369,l),
(541,372,o),
(600,412,o),
(600,519,cs),
(600,627,o),
(531,698,o),
(416,698,cs),
(77,698,l),
(77,0,l)
);
},
{
closed = 1;
nodes = (
(229,288,l),
(404,288,ls),
(444,288,o),
(469,265,o),
(469,225,cs),
(469,191,ls),
(469,151,o),
(444,128,o),
(404,128,cs),
(229,128,l)
);
},
{
closed = 1;
nodes = (
(229,570,l),
(380,570,ls),
(420,570,o),
(444,546,o),
(444,506,cs),
(444,476,ls),
(444,436,o),
(420,412,o),
(380,412,cs),
(229,412,l)
);
}
);
width = 667;
},
{
anchors = (
{
name = bottom;
pos = (308,0);
},
{
name = top;
pos = (308,698);
}
);
layerId = "D69F2138-E7D7-470A-972F-2AC6B0C54BA2";
shapes = (
{
closed = 1;
nodes = (
(376,0,ls),
(490,0,o),
(550,74,o),
(550,189,cs),
(550,287,o),
(507,353,o),
(420,369,c),
(420,371,l),
(482,391,o),
(518,441,o),
(518,528,cs),
(518,639,o),
(459,698,o),
(360,698,cs),
(108,698,l),
(108,0,l)
);
},
{
closed = 1;
nodes = (
(130,358,l),
(376,358,ls),
(479,358,o),
(526,286,o),
(526,210,cs),
(526,168,ls),
(526,91,o),
(479,20,o),
(376,20,cs),
(130,20,l)
);
},
{
closed = 1;
nodes = (
(130,678,l),
(360,678,ls),
(452,678,o),
(494,616,o),
(494,549,cs),
(494,507,ls),
(494,440,o),
(452,378,o),
(360,378,cs),
(130,378,l)
);
}
);
width = 615;
}
);
unicode = 66;
},
{
glyphname = C;
kernLeft = latn_uc_o;
kernRight = latn_uc_c;
lastChange = "2023-02-21 09:59:45 +0000";
layers = (
{
anchors = (
{
name = bottom;
pos = (338,0);
},
{
name = top;
pos = (338,698);
}
);
layerId = "E49AE6DE-96A1-45B5-978D-9231980F4AB5";
shapes = (
{
closed = 1;
nodes = (
(455,-12,o),
(540,49,o),
(584,147,c),
(517,189,l),
(489,113,o),
(428,63,o),
(339,63,cs),
(219,63,o),
(148,150,o),
(148,293,cs),
(148,397,ls),
(148,540,o),
(219,635,o),
(339,635,cs),
(425,635,o),
(483,588,o),
(511,516,c),
(579,557,l),
(535,654,o),
(455,710,o),
(339,710,cs),
(163,710,o),
(58,578,o),
(58,345,cs),
(58,112,o),
(163,-12,o),
(339,-12,cs,{
name = hr00;
})
);
}
);
width = 621;
},
{
anchors = (
{
name = bottom;
pos = (336,0);
},
{
name = top;
pos = (359,698);
}
);
layerId = "5E87F462-D40B-43EC-958D-42003ED2F346";
shapes = (
{
closed = 1;
nodes = (
(487,-12,o),
(570,49,o),
(622,155,c),
(498,227,l),
(477,170,o),
(434,123,o),
(359,123,cs),
(270,123,o),
(211,183,o),
(211,293,cs),
(211,405,ls),
(211,515,o),
(270,575,o),
(359,575,cs),
(434,575,o),
(471,536,o),
(489,478,c),
(620,546,l),
(569,658,o),
(487,710,o),
(359,710,cs),
(171,710,o),
(50,580,o),
(50,344,cs),
(50,108,o),
(171,-12,o),
(359,-12,cs)
);
}
);
width = 651;
},
{
anchors = (
{
name = bottom;
pos = (305,0);
},
{
name = top;
pos = (332,698);
}
);
layerId = "D69F2138-E7D7-470A-972F-2AC6B0C54BA2";
shapes = (
{
closed = 1;
nodes = (
(436,-12,o),
(514,49,o),
(550,140,c),
(531,148,l),
(497,61,o),
(428,8,o),
(329,8,cs),
(183,8,o),
(94,113,o),
(94,328,cs),
(94,370,ls),
(94,585,o),
(183,690,o),
(329,690,cs),
(420,690,o),
(490,640,o),
(526,558,c),
(545,567,l),
(507,652,o),
(431,710,o),
(329,710,cs),
(164,710,o),
(70,589,o),
(70,349,cs),
(70,109,o),
(164,-12,o),
(329,-12,cs)
);
}
);
width = 610;
}
);
unicode = 67;
},
{
glyphname = Cacute;
kernLeft = latn_uc_o;
kernRight = latn_uc_c;
lastChange = "2023-02-21 09:59:45 +0000";
layers = (
{
layerId = "E49AE6DE-96A1-45B5-978D-9231980F4AB5";
shapes = (
{
ref = C;
},
{
pos = (38,0);
ref = acute.case;
}
);
width = 621;
},
{
background = {
shapes = (
{
closed = 1;
nodes = (
(487,-12,o),
(570,49,o),
(622,155,c),
(498,227,l),
(477,170,o),
(434,123,o),
(359,123,cs),
(270,123,o),
(211,183,o),
(211,293,cs),
(211,405,ls),
(211,515,o),
(270,575,o),
(359,575,cs),
(434,575,o),
(471,536,o),
(489,478,c),
(620,546,l),
(569,658,o),
(487,710,o),
(359,710,cs),
(171,710,o),
(50,580,o),
(50,344,cs),
(50,108,o),
(171,-12,o),
(359,-12,cs)
);
},
{
closed = 1;
nodes = (
(505,916,l),
(382,977,l),
(283,783,l),
(371,740,l)
);
}
);
};
layerId = "5E87F462-D40B-43EC-958D-42003ED2F346";
shapes = (
{
ref = C;
},
{
pos = (58,0);
ref = acute.case;
}
);
width = 651;
},
{
background = {
shapes = (
{
closed = 1;
nodes = (
(436,-12,o),
(514,49,o),
(550,140,c),
(531,148,l),
(497,61,o),
(428,8,o),
(329,8,cs),
(183,8,o),
(94,113,o),
(94,328,cs),
(94,370,ls),
(94,585,o),
(183,690,o),
(329,690,cs),
(420,690,o),
(490,640,o),
(526,558,c),
(545,567,l),
(507,652,o),
(431,710,o),
(329,710,cs),
(164,710,o),
(70,589,o),
(70,349,cs),
(70,109,o),
(164,-12,o),
(329,-12,cs)
);
},
{
closed = 1;
nodes = (
(426,919,l),
(407,931,l),
(296,777,l),
(311,767,l)
);
}
);
};
layerId = "D69F2138-E7D7-470A-972F-2AC6B0C54BA2";
shapes = (
{
ref = C;
},
{
pos = (32,0);
ref = acute.case;
}
);
width = 610;
}
);
unicode = 262;
userData = {
com.typemytype.robofont.mark = (
0.6,
0.986,
1,
1
);
};
},
{
glyphname = Ccaron;
kernLeft = latn_uc_o;
kernRight = latn_uc_c;
lastChange = "2023-02-21 09:59:45 +0000";
layers = (
{
anchors = (
{
name = bottom;
pos = (338,0);
}
);
layerId = "E49AE6DE-96A1-45B5-978D-9231980F4AB5";
shapes = (
{
ref = C;
},
{
pos = (38,0);
ref = caron.case;
}
);
width = 621;
},
{
anchors = (
{
name = bottom;
pos = (338,0);
}
);
background = {
shapes = (
{
closed = 1;
nodes = (
(487,-12,o),
(570,49,o),
(622,155,c),
(498,227,l),
(477,170,o),
(434,123,o),
(359,123,cs),
(270,123,o),
(211,183,o),
(211,293,cs),
(211,405,ls),
(211,515,o),
(270,575,o),
(359,575,cs),
(434,575,o),
(471,536,o),
(489,478,c),
(620,546,l),
(569,658,o),
(487,710,o),
(359,710,cs),
(171,710,o),
(50,580,o),
(50,344,cs),
(50,108,o),
(171,-12,o),
(359,-12,cs)
);
},
{
closed = 1;
nodes = (
(417,748,l),
(549,907,l),
(476,965,l),
(355,850,l),
(234,965,l),
(161,907,l),
(293,748,l)
);
}
);
};
layerId = "5E87F462-D40B-43EC-958D-42003ED2F346";
shapes = (
{
ref = C;
},
{
pos = (59,0);
ref = caron.case;
}
);
width = 651;
},
{
anchors = (
{
name = bottom;
pos = (338,0);
}
);
background = {
shapes = (
{
closed = 1;
nodes = (
(436,-12,o),
(514,49,o),
(550,140,c),
(531,148,l),
(497,61,o),
(428,8,o),
(329,8,cs),
(183,8,o),
(94,113,o),
(94,328,cs),
(94,370,ls),
(94,585,o),
(183,690,o),
(329,690,cs),
(420,690,o),
(490,640,o),
(526,558,c),
(545,567,l),
(507,652,o),
(431,710,o),
(329,710,cs),
(164,710,o),
(70,589,o),
(70,349,cs),
(70,109,o),
(164,-12,o),
(329,-12,cs)
);
},
{
closed = 1;
nodes = (
(341,783,l),
(469,916,l),
(455,927,l),
(329,800,l),
(203,927,l),
(189,916,l),
(317,783,l)
);
}
);
};
layerId = "D69F2138-E7D7-470A-972F-2AC6B0C54BA2";
shapes = (
{
ref = C;
},
{
pos = (32,0);
ref = caron.case;
}
);
width = 610;
}
);
unicode = 268;
userData = {
com.typemytype.robofont.mark = (
0.6,
0.986,
1,
1
);
};
},
{
glyphname = Ccedilla;
kernLeft = latn_uc_o;
kernRight = latn_uc_c;
lastChange = "2023-02-21 09:59:45 +0000";
layers = (
{
layerId = "E49AE6DE-96A1-45B5-978D-9231980F4AB5";
shapes = (
{
closed = 1;
nodes = (
(409,-207,o),
(461,-181,o),
(461,-124,cs),
(461,-81,o),
(432,-58,o),
(393,-58,cs),
(381,-58,o),
(367,-60,o),
(354,-64,c),
(351,-61,l),
(361,-11,l),
(466,-4,o),
(543,55,o),
(584,147,c),
(517,189,l),
(489,113,o),
(428,63,o),
(339,63,cs),
(219,63,o),
(148,150,o),
(148,293,cs),
(148,397,ls),
(148,540,o),
(219,635,o),
(339,635,cs,{
name = hr00;
}),
(425,635,o),
(483,588,o),
(511,516,c),
(579,557,l),
(535,654,o),
(455,710,o),
(339,710,cs),
(163,710,o),
(58,578,o),
(58,345,cs),
(58,124,o),
(152,1,o),
(311,-11,c),
(298,-77,l),
(326,-81,ls),
(382,-89,o),
(394,-104,o),
(394,-122,cs),
(394,-143,o),
(375,-153,o),
(350,-153,cs),
(321,-153,o),
(301,-140,o),
(289,-125,c),
(251,-166,l),
(265,-185,o),
(296,-207,o),
(350,-207,cs)
);
}
);
width = 621;
},
{
layerId = "5E87F462-D40B-43EC-958D-42003ED2F346";
shapes = (
{
closed = 1;
nodes = (
(416,-212,o),
(480,-189,o),
(480,-121,cs),
(480,-72,o),
(447,-52,o),
(407,-52,cs),
(391,-52,o),
(375,-55,o),
(359,-59,c),
(355,-55,l),
(364,-12,l),
(487,-12,o),
(570,49,o),
(622,155,c),
(498,227,l),
(477,170,o),
(434,123,o),
(359,123,cs),
(270,123,o),
(211,183,o),
(211,293,cs),
(211,405,ls),
(211,515,o),
(270,575,o),
(359,575,cs),
(434,575,o),
(471,536,o),
(489,478,c),
(620,546,l),
(569,658,o),
(487,710,o),
(359,710,cs),
(171,710,o),
(50,580,o),
(50,344,cs),
(50,135,o),
(145,16,o),
(298,-7,c),
(284,-74,l),
(305,-76,ls),
(367,-82,o),
(380,-101,o),
(380,-116,cs),
(380,-133,o),
(361,-141,o),
(336,-141,cs),
(305,-141,o),
(283,-128,o),
(270,-112,c),
(224,-168,l),
(241,-188,o),
(279,-212,o),
(348,-212,cs)
);
}
);
width = 651;
},
{
layerId = "D69F2138-E7D7-470A-972F-2AC6B0C54BA2";
shapes = (
{
closed = 1;
nodes = (
(393,-202,o),
(424,-169,o),
(424,-131,cs),
(424,-95,o),
(396,-72,o),
(357,-72,cs),
(348,-72,o),
(336,-73,o),
(327,-75,c),
(325,-73,l),
(340,-12,l),
(441,-8,o),
(515,52,o),
(550,140,c),
(531,148,l),
(497,61,o),
(428,8,o),
(329,8,cs),
(183,8,o),
(94,113,o),
(94,328,cs),
(94,370,ls),
(94,585,o),
(183,690,o),
(329,690,cs),
(420,690,o),
(490,640,o),
(526,558,c),
(545,567,l),
(507,652,o),
(431,710,o),
(329,710,cs),
(164,710,o),
(70,589,o),
(70,349,cs),
(70,112,o),
(161,-9,o),
(322,-12,c),
(305,-84,l),
(342,-86,ls),
(387,-88,o),
(403,-107,o),
(403,-132,cs),
(403,-166,o),
(378,-184,o),
(342,-184,cs),
(312,-184,o),
(288,-174,o),
(274,-157,c),
(261,-170,l),
(273,-187,o),
(304,-202,o),
(342,-202,cs)
);
}
);
width = 610;
}
);
unicode = 199;
},
{
glyphname = Ccircumflex;
kernLeft = latn_uc_o;
kernRight = latn_uc_c;
lastChange = "2023-02-21 09:59:45 +0000";
layers = (
{
anchors = (
{
name = bottom;
pos = (338,0);
}
);
layerId = "E49AE6DE-96A1-45B5-978D-9231980F4AB5";
shapes = (
{
ref = C;
},
{
pos = (38,0);
ref = circumflex.case;
}
);
width = 621;
},
{
anchors = (
{
name = bottom;
pos = (338,0);
}
);
background = {
shapes = (
{
closed = 1;
nodes = (
(487,-12,o),
(570,49,o),
(622,155,c),
(498,227,l),
(477,170,o),
(434,123,o),
(359,123,cs),
(270,123,o),
(211,183,o),
(211,293,cs),
(211,405,ls),
(211,515,o),
(270,575,o),
(359,575,cs),
(434,575,o),
(471,536,o),
(489,478,c),
(620,546,l),
(569,658,o),
(487,710,o),
(359,710,cs),
(171,710,o),
(50,580,o),
(50,344,cs),
(50,108,o),
(171,-12,o),
(359,-12,cs)
);
},
{
closed = 1;
nodes = (
(355,854,l),
(476,739,l),
(549,797,l),
(417,956,l),
(293,956,l),
(161,797,l),
(234,739,l)
);
}
);
};
layerId = "5E87F462-D40B-43EC-958D-42003ED2F346";
shapes = (
{
ref = C;
},
{
pos = (59,0);
ref = circumflex.case;
}
);
width = 651;
},
{
anchors = (
{
name = bottom;
pos = (338,0);
}
);
background = {
shapes = (
{
closed = 1;
nodes = (
(436,-12,o),
(514,49,o),
(550,140,c),
(531,148,l),
(497,61,o),
(428,8,o),
(329,8,cs),
(183,8,o),
(94,113,o),
(94,328,cs),
(94,370,ls),
(94,585,o),
(183,690,o),
(329,690,cs),
(420,690,o),
(490,640,o),
(526,558,c),
(545,567,l),
(507,652,o),
(431,710,o),
(329,710,cs),
(164,710,o),
(70,589,o),
(70,349,cs),
(70,109,o),
(164,-12,o),
(329,-12,cs)
);
},
{
closed = 1;
nodes = (
(329,906,l),
(455,779,l),
(469,790,l),
(341,923,l),
(317,923,l),
(189,790,l),
(203,779,l)
);
}
);
};
layerId = "D69F2138-E7D7-470A-972F-2AC6B0C54BA2";
shapes = (
{
ref = C;
},
{
pos = (32,0);
ref = circumflex.case;
}
);
width = 610;
}
);
unicode = 264;
userData = {
com.typemytype.robofont.mark = (
0.6,
0.986,
1,
1
);
};
},
{
glyphname = Cdotaccent;
kernLeft = latn_uc_o;
kernRight = latn_uc_c;
lastChange = "2023-02-21 09:59:45 +0000";
layers = (
{
anchors = (
{
name = bottom;
pos = (338,0);
}
);
layerId = "E49AE6DE-96A1-45B5-978D-9231980F4AB5";
shapes = (
{
ref = C;
},
{
pos = (38,0);
ref = dotaccent.case;
}
);
width = 621;
},
{
anchors = (
{
name = bottom;
pos = (338,0);
}
);
background = {
shapes = (
{
closed = 1;
nodes = (
(487,-12,o),
(570,49,o),
(622,155,c),
(498,227,l),
(477,170,o),
(434,123,o),
(359,123,cs),
(270,123,o),
(211,183,o),
(211,293,cs),
(211,405,ls),
(211,515,o),
(270,575,o),
(359,575,cs),
(434,575,o),
(471,536,o),
(489,478,c),
(620,546,l),
(569,658,o),
(487,710,o),
(359,710,cs),
(171,710,o),
(50,580,o),
(50,344,cs),
(50,108,o),
(171,-12,o),
(359,-12,cs)
);
},
{
closed = 1;
nodes = (
(421,752,o),
(444,783,o),
(444,822,cs),
(444,851,ls),
(444,890,o),
(421,921,o),
(355,921,cs),
(289,921,o),
(266,890,o),
(266,851,cs),
(266,822,ls),
(266,783,o),
(289,752,o),
(355,752,cs)
);
}
);
};
layerId = "5E87F462-D40B-43EC-958D-42003ED2F346";
shapes = (
{
ref = C;
},
{
pos = (59,0);
ref = dotaccent.case;
}
);
width = 651;
},
{
anchors = (
{
name = bottom;
pos = (338,0);
}
);
background = {
shapes = (
{
closed = 1;
nodes = (
(436,-12,o),
(514,49,o),
(550,140,c),
(531,148,l),
(497,61,o),
(428,8,o),
(329,8,cs),
(183,8,o),
(94,113,o),
(94,328,cs),
(94,370,ls),
(94,585,o),
(183,690,o),
(329,690,cs),
(420,690,o),
(490,640,o),
(526,558,c),
(545,567,l),
(507,652,o),
(431,710,o),
(329,710,cs),
(164,710,o),
(70,589,o),
(70,349,cs),
(70,109,o),
(164,-12,o),
(329,-12,cs)
);
},
{
closed = 1;
nodes = (
(346,822,o),
(352,832,o),
(352,843,cs),
(352,850,ls),
(352,861,o),
(346,871,o),
(329,871,cs),
(312,871,o),
(306,861,o),
(306,850,cs),
(306,843,ls),
(306,832,o),
(312,822,o),
(329,822,cs)
);
}
);
};
layerId = "D69F2138-E7D7-470A-972F-2AC6B0C54BA2";
shapes = (
{
ref = C;
},
{
pos = (32,0);
ref = dotaccent.case;
}
);
width = 610;
}
);
unicode = 266;
userData = {
com.typemytype.robofont.mark = (
0.6,
0.986,
1,
1
);
};
},
{
glyphname = D;
kernRight = latn_uc_d;
lastChange = "2023-02-21 09:59:45 +0000";
layers = (
{
anchors = (
{
name = bottom;
pos = (307,0);
},
{
name = top;
pos = (307,698);
}
);
layerId = "E49AE6DE-96A1-45B5-978D-9231980F4AB5";
shapes = (
{
closed = 1;
nodes = (
(327,0,ls),
(501,0,o),
(613,116,o),
(613,349,cs),
(613,582,o),
(501,698,o),
(327,698,cs),
(93,698,l),
(93,0,l,{
name = hr00;
})
);
},
{
closed = 1;
nodes = (
(177,624,l),
(327,624,ls),
(442,624,o),
(523,544,o),
(523,406,cs),
(523,292,ls),
(523,154,o),
(442,74,o),
(327,74,cs),
(177,74,l)
);
}
);
width = 671;
},
{
anchors = (
{
name = bottom;
pos = (322,0);
},
{
name = top;
pos = (322,698);
}
);
background = {
shapes = (
{
closed = 1;
nodes = (
(340,0,ls),
(525,0,o),
(647,117,o),
(647,349,cs),
(647,581,o),
(525,698,o),
(340,698,cs),
(77,698,l),
(77,0,l)
);
},
{
closed = 1;
nodes = (
(229,563,l),
(340,563,ls),
(430,563,o),
(486,514,o),
(486,403,cs),
(486,295,ls),
(486,184,o),
(430,135,o),
(340,135,cs),
(229,135,l)
);
}
);
};
layerId = "5E87F462-D40B-43EC-958D-42003ED2F346";
shapes = (
{
closed = 1;
nodes = (
(340,0,ls),
(525,0,o),
(647,117,o),
(647,349,cs),
(647,581,o),
(525,698,o),
(340,698,cs),
(77,698,l),
(77,0,l)
);
},
{
closed = 1;
nodes = (
(229,563,l),
(340,563,ls),
(430,563,o),
(486,514,o),
(486,403,cs),
(486,295,ls),
(486,184,o),
(430,135,o),
(340,135,cs),
(229,135,l)
);
}
);
width = 697;
},
{
anchors = (
{
name = bottom;
pos = (299,0);
},
{
name = top;
pos = (299,698);
}
);
layerId = "D69F2138-E7D7-470A-972F-2AC6B0C54BA2";
shapes = (
{
closed = 1;
nodes = (
(312,0,ls),
(498,0,o),
(588,118,o),
(588,349,cs),
(588,580,o),
(498,698,o),
(312,698,cs),
(108,698,l),
(108,0,l)
);
},
{
closed = 1;
nodes = (
(130,678,l),
(313,678,ls),
(486,678,o),
(564,560,o),
(564,379,cs),
(564,319,ls),
(564,138,o),
(486,20,o),
(313,20,cs),
(130,20,l)
);
}
);
width = 658;
}
);
unicode = 68;
},
{
glyphname = Eth;
kernRight = latn_uc_d;
lastChange = "2023-02-21 09:59:45 +0000";
layers = (
{
layerId = "E49AE6DE-96A1-45B5-978D-9231980F4AB5";
shapes = (
{
ref = Dcroat;
}
);
width = 674;
},
{
background = {
shapes = (
{
closed = 1;
nodes = (
(345,0,ls),
(530,0,o),
(652,117,o),
(652,349,cs),
(652,581,o),
(530,698,o),
(345,698,cs),
(82,698,l),
(82,411,l),
(7,411,l),
(7,297,l),
(82,297,l),
(82,0,l)
);
},
{
closed = 1;
nodes = (
(234,297,l),
(353,297,l),
(353,411,l),
(234,411,l),
(234,563,l),
(345,563,ls),
(435,563,o),
(491,514,o),
(491,403,cs),
(491,295,ls),
(491,184,o),
(435,135,o),
(345,135,cs),
(234,135,l)
);
}
);
};
layerId = "5E87F462-D40B-43EC-958D-42003ED2F346";
shapes = (
{
ref = Dcroat;
}
);
width = 702;
},
{
background = {
shapes = (
{
closed = 1;
nodes = (
(315,0,ls),
(501,0,o),
(591,118,o),
(591,349,cs),
(591,580,o),
(501,698,o),
(315,698,cs),
(111,698,l),
(111,378,l),
(28,378,l),
(28,359,l),
(111,359,l),
(111,0,l)
);
},
{
closed = 1;
nodes = (
(133,359,l),
(305,359,l),
(305,378,l),
(133,378,l),
(133,678,l),
(316,678,ls),
(489,678,o),
(567,560,o),
(567,379,cs),
(567,319,ls),
(567,138,o),
(489,20,o),
(316,20,cs),
(133,20,l)
);
}
);
};
layerId = "D69F2138-E7D7-470A-972F-2AC6B0C54BA2";
shapes = (
{
ref = Dcroat;
}
);
width = 661;
}
);
unicode = 208;
userData = {
com.typemytype.robofont.mark = (
0.6,
0.986,
1,
1
);
};
},
{
glyphname = Dcaron;
kernRight = latn_uc_d;
lastChange = "2023-02-21 09:59:45 +0000";
layers = (
{
anchors = (
{
name = bottom;
pos = (307,0);
}
);
layerId = "E49AE6DE-96A1-45B5-978D-9231980F4AB5";
shapes = (
{
ref = D;
},
{
pos = (7,0);
ref = caron.case;
}
);
width = 671;
},
{
anchors = (
{
name = bottom;
pos = (307,0);
}
);
background = {
shapes = (
{
closed = 1;
nodes = (
(340,0,ls),
(525,0,o),
(647,117,o),
(647,349,cs),
(647,581,o),
(525,698,o),
(340,698,cs),
(77,698,l),
(77,0,l)
);
},
{
closed = 1;
nodes = (
(229,563,l),
(340,563,ls),
(430,563,o),
(486,514,o),
(486,403,cs),
(486,295,ls),
(486,184,o),
(430,135,o),
(340,135,cs),
(229,135,l)
);
},
{
closed = 1;
nodes = (
(385,748,l),
(517,907,l),
(444,965,l),
(323,850,l),
(202,965,l),
(129,907,l),
(261,748,l)
);
}
);
};
layerId = "5E87F462-D40B-43EC-958D-42003ED2F346";
shapes = (
{
ref = D;
},
{
pos = (22,0);
ref = caron.case;
}
);
width = 697;
},
{
anchors = (
{
name = bottom;
pos = (307,0);
}
);
background = {
shapes = (
{
closed = 1;
nodes = (
(312,0,ls),
(498,0,o),
(588,118,o),
(588,349,cs),
(588,580,o),
(498,698,o),
(312,698,cs),
(108,698,l),
(108,0,l)
);
},
{
closed = 1;
nodes = (
(130,678,l),
(313,678,ls),
(486,678,o),
(564,560,o),
(564,379,cs),
(564,319,ls),
(564,138,o),
(486,20,o),
(313,20,cs),
(130,20,l)
);
},
{
closed = 1;
nodes = (
(311,783,l),
(439,916,l),
(425,927,l),
(299,800,l),
(173,927,l),
(159,916,l),
(287,783,l)
);
}
);
};
layerId = "D69F2138-E7D7-470A-972F-2AC6B0C54BA2";
shapes = (
{
ref = D;
},
{
pos = (-1,0);
ref = caron.case;
}
);
width = 658;
}
);
unicode = 270;
userData = {
com.typemytype.robofont.mark = (
0.6,
0.986,
1,
1
);
};
},
{
glyphname = Dcroat;
kernRight = latn_uc_d;
lastChange = "2023-02-21 09:59:45 +0000";
layers = (
{
layerId = "E49AE6DE-96A1-45B5-978D-9231980F4AB5";
shapes = (
{
closed = 1;
nodes = (
(330,0,ls),
(504,0,o),
(616,116,o),
(616,349,cs),
(616,582,o),
(504,698,o),
(330,698,cs),
(96,698,l),
(96,401,l),
(17,401,l),
(17,337,l),
(96,337,l),
(96,0,l,{
name = hr00;
})
);
},
{
closed = 1;
nodes = (
(180,337,l),
(317,337,l),
(317,401,l),
(180,401,l),
(180,624,l),
(330,624,ls),
(445,624,o),
(526,544,o),
(526,406,cs),
(526,292,ls),
(526,154,o),
(445,74,o),
(330,74,cs),
(180,74,l)
);
}
);
width = 674;
},
{
layerId = "5E87F462-D40B-43EC-958D-42003ED2F346";
shapes = (
{
closed = 1;
nodes = (
(345,0,ls),
(530,0,o),
(652,117,o),
(652,349,cs),
(652,581,o),
(530,698,o),
(345,698,cs),
(82,698,l),
(82,411,l),
(7,411,l),
(7,297,l),
(82,297,l),
(82,0,l)
);
},
{
closed = 1;
nodes = (
(234,297,l),
(353,297,l),
(353,411,l),
(234,411,l),
(234,563,l),
(345,563,ls),
(435,563,o),
(491,514,o),
(491,403,cs),
(491,295,ls),
(491,184,o),
(435,135,o),
(345,135,cs),
(234,135,l)
);
}
);
width = 702;
},
{
layerId = "D69F2138-E7D7-470A-972F-2AC6B0C54BA2";
shapes = (
{
closed = 1;
nodes = (
(315,0,ls),
(501,0,o),
(591,118,o),
(591,349,cs),
(591,580,o),
(501,698,o),
(315,698,cs),
(111,698,l),
(111,378,l),
(28,378,l),
(28,359,l),
(111,359,l),
(111,0,l)
);
},
{
closed = 1;
nodes = (
(133,359,l),
(305,359,l),
(305,378,l),
(133,378,l),
(133,678,l),
(316,678,ls),
(489,678,o),
(567,560,o),
(567,379,cs),
(567,319,ls),
(567,138,o),
(489,20,o),
(316,20,cs),
(133,20,l)
);
}
);
width = 661;
}
);
unicode = 272;
},
{
glyphname = E;
kernRight = latn_uc_e;
lastChange = "2023-02-21 09:59:45 +0000";
layers = (
{
anchors = (
{
name = bottom;
pos = (304,0);
},
{
name = bottomright;
pos = (519,0);
},
{
name = top;
pos = (304,698);
}
);
layerId = "E49AE6DE-96A1-45B5-978D-9231980F4AB5";
shapes = (
{
closed = 1;
nodes = (
(519,0,l,{
name = hr00;
}),
(519,74,l),
(177,74,l),
(177,316,l),
(499,316,l),
(499,390,l),
(177,390,l),
(177,624,l),
(519,624,l),
(519,698,l),
(93,698,l),
(93,0,l)
);
}
);
width = 583;
},
{
anchors = (
{
name = bottom;
pos = (316,0);
},
{
name = bottomright;
pos = (552,0);
},
{
name = top;
pos = (316,698);
}
);
layerId = "5E87F462-D40B-43EC-958D-42003ED2F346";
shapes = (
{
closed = 1;
nodes = (
(552,0,l),
(552,135,l),
(229,135,l),
(229,286,l),
(506,286,l),
(506,420,l),
(229,420,l),
(229,563,l),
(552,563,l),
(552,698,l),
(77,698,l),
(77,0,l)
);
}
);
width = 607;
},
{
anchors = (
{
name = bottom;
pos = (299,0);
},
{
name = bottomright;
pos = (489,0);
},
{
name = top;
pos = (299,698);
}
);
layerId = "D69F2138-E7D7-470A-972F-2AC6B0C54BA2";
shapes = (
{
closed = 1;
nodes = (
(489,0,l),
(489,20,l),
(130,20,l),
(130,344,l),
(477,344,l),
(477,364,l),
(130,364,l),
(130,678,l),
(489,678,l),
(489,698,l),
(108,698,l),
(108,0,l)
);
}
);
width = 561;
}
);
unicode = 69;
},
{
glyphname = Eacute;
kernRight = latn_uc_e;
lastChange = "2023-02-21 09:59:45 +0000";
layers = (
{
anchors = (
{
name = bottom;
pos = (304,0);
},
{
name = bottomright;
pos = (519,0);
}
);
layerId = "E49AE6DE-96A1-45B5-978D-9231980F4AB5";
shapes = (
{
ref = E;
},
{
pos = (4,0);
ref = acute.case;
}
);
width = 583;
},
{
anchors = (
{
name = bottom;
pos = (304,0);
},
{
name = bottomright;
pos = (552,0);
}
);
background = {
shapes = (
{
closed = 1;
nodes = (
(552,0,l),
(552,135,l),
(229,135,l),
(229,286,l),
(506,286,l),
(506,420,l),
(229,420,l),
(229,563,l),
(552,563,l),
(552,698,l),
(77,698,l),
(77,0,l)
);
},
{
closed = 1;
nodes = (
(465,916,l),
(342,977,l),
(243,783,l),
(331,740,l)
);
}
);
};
layerId = "5E87F462-D40B-43EC-958D-42003ED2F346";
shapes = (
{
ref = E;
},
{
pos = (15,0);
ref = acute.case;
}
);
width = 607;
},
{
anchors = (
{
name = bottom;
pos = (304,0);
},
{
name = bottomright;
pos = (489,0);
}
);
background = {
shapes = (
{
closed = 1;
nodes = (
(489,0,l),
(489,20,l),
(130,20,l),
(130,344,l),
(477,344,l),
(477,364,l),
(130,364,l),
(130,678,l),
(489,678,l),
(489,698,l),
(108,698,l),
(108,0,l)
);
},
{
closed = 1;
nodes = (
(396,919,l),
(377,931,l),
(266,777,l),
(281,767,l)
);
}
);
};
layerId = "D69F2138-E7D7-470A-972F-2AC6B0C54BA2";
shapes = (
{
ref = E;
},
{
pos = (-1,0);
ref = acute.case;
}
);
width = 561;
}
);
unicode = 201;
userData = {
com.typemytype.robofont.mark = (
0.6,
0.986,
1,
1
);
};
},
{
glyphname = Ebreve;
kernRight = latn_uc_e;
lastChange = "2023-02-21 09:59:45 +0000";
layers = (
{
anchors = (
{
name = bottom;
pos = (304,0);
},
{
name = bottomright;
pos = (519,0);
}
);
layerId = "E49AE6DE-96A1-45B5-978D-9231980F4AB5";
shapes = (
{
ref = E;
},
{
pos = (4,0);
ref = breve.case;
}
);
width = 583;
},
{
anchors = (
{
name = bottom;
pos = (304,0);
},
{
name = bottomright;
pos = (552,0);
}
);
background = {
shapes = (
{
closed = 1;
nodes = (
(552,0,l),
(552,135,l),
(229,135,l),
(229,286,l),
(506,286,l),
(506,420,l),
(229,420,l),
(229,563,l),
(552,563,l),
(552,698,l),
(77,698,l),
(77,0,l)
);
},
{
closed = 1;
nodes = (
(428,740,o),
(481,838,o),
(505,910,c),
(425,952,l),
(406,920,ls),
(377,871,o),
(352,843,o),
(315,843,cs),
(278,843,o),
(254,871,o),
(225,920,cs),
(206,952,l),
(125,910,l),
(149,838,o),
(197,740,o),
(315,740,cs)
);
}
);
};
layerId = "5E87F462-D40B-43EC-958D-42003ED2F346";
shapes = (
{
ref = E;
},
{
pos = (16,0);
ref = breve.case;
}
);
width = 607;
},
{
anchors = (
{
name = bottom;
pos = (304,0);
},
{
name = bottomright;
pos = (489,0);
}
);
background = {
shapes = (
{
closed = 1;
nodes = (
(489,0,l),
(489,20,l),
(130,20,l),
(130,344,l),
(477,344,l),
(477,364,l),
(130,364,l),
(130,678,l),
(489,678,l),
(489,698,l),
(108,698,l),
(108,0,l)
);
},
{
closed = 1;
nodes = (
(367,786,o),
(394,830,o),
(431,903,c),
(415,910,l),
(400,883,ls),
(365,820,o),
(343,805,o),
(299,805,cs),
(255,805,o),
(233,820,o),
(198,883,cs),
(183,910,l),
(167,903,l),
(204,830,o),
(231,786,o),
(299,786,cs)
);
}
);
};
layerId = "D69F2138-E7D7-470A-972F-2AC6B0C54BA2";
shapes = (
{
ref = E;
},
{
pos = (-1,0);
ref = breve.case;
}
);
width = 561;
}
);
unicode = 276;
userData = {
com.typemytype.robofont.mark = (
0.6,
0.986,
1,
1
);
};
},
{
glyphname = Ecaron;
kernRight = latn_uc_e;
lastChange = "2023-02-21 09:59:45 +0000";
layers = (
{
anchors = (
{
name = bottom;
pos = (304,0);
},
{
name = bottomright;
pos = (519,0);
}
);
layerId = "E49AE6DE-96A1-45B5-978D-9231980F4AB5";
shapes = (
{
ref = E;
},
{
pos = (4,0);
ref = caron.case;
}
);
width = 583;
},
{
anchors = (
{
name = bottom;
pos = (304,0);
},
{
name = bottomright;
pos = (552,0);
}
);
background = {
shapes = (
{
closed = 1;
nodes = (
(552,0,l),
(552,135,l),
(229,135,l),
(229,286,l),
(506,286,l),
(506,420,l),
(229,420,l),
(229,563,l),
(552,563,l),
(552,698,l),
(77,698,l),
(77,0,l)
);
},
{
closed = 1;
nodes = (
(377,748,l),
(509,907,l),
(436,965,l),
(315,850,l),
(194,965,l),
(121,907,l),
(253,748,l)
);
}
);
};
layerId = "5E87F462-D40B-43EC-958D-42003ED2F346";
shapes = (
{
ref = E;
},
{
pos = (16,0);
ref = caron.case;
}
);
width = 607;
},
{
anchors = (
{
name = bottom;
pos = (304,0);
},
{
name = bottomright;
pos = (489,0);
}
);
background = {
shapes = (
{
closed = 1;
nodes = (
(489,0,l),
(489,20,l),
(130,20,l),
(130,344,l),
(477,344,l),
(477,364,l),
(130,364,l),
(130,678,l),
(489,678,l),
(489,698,l),
(108,698,l),
(108,0,l)
);
},
{
closed = 1;
nodes = (
(311,783,l),
(439,916,l),
(425,927,l),
(299,800,l),
(173,927,l),
(159,916,l),
(287,783,l)
);
}
);
};
layerId = "D69F2138-E7D7-470A-972F-2AC6B0C54BA2";
shapes = (
{
ref = E;
},
{
pos = (-1,0);
ref = caron.case;
}
);
width = 561;
}
);
unicode = 282;
userData = {
com.typemytype.robofont.mark = (
0.6,
0.986,
1,
1
);
};
},
{
glyphname = Ecircumflex;
kernRight = latn_uc_e;
lastChange = "2023-02-21 09:59:45 +0000";
layers = (
{
anchors = (
{
name = bottom;
pos = (304,0);
},
{
name = bottomright;
pos = (519,0);
}
);
layerId = "E49AE6DE-96A1-45B5-978D-9231980F4AB5";
shapes = (
{
ref = E;
},
{
pos = (4,0);
ref = circumflex.case;
}
);
width = 583;
},
{
anchors = (
{
name = bottom;
pos = (304,0);
},
{
name = bottomright;
pos = (552,0);
}
);
background = {
shapes = (
{
closed = 1;
nodes = (
(552,0,l),
(552,135,l),
(229,135,l),
(229,286,l),
(506,286,l),
(506,420,l),
(229,420,l),
(229,563,l),
(552,563,l),
(552,698,l),
(77,698,l),
(77,0,l)
);
},
{
closed = 1;
nodes = (
(315,854,l),
(436,739,l),
(509,797,l),
(377,956,l),
(253,956,l),
(121,797,l),
(194,739,l)
);
}
);
};
layerId = "5E87F462-D40B-43EC-958D-42003ED2F346";
shapes = (
{
ref = E;
},
{
pos = (16,0);
ref = circumflex.case;
}
);
width = 607;
},
{
anchors = (
{
name = bottom;
pos = (304,0);
},
{
name = bottomright;
pos = (489,0);
}
);
background = {
shapes = (
{
closed = 1;
nodes = (
(489,0,l),
(489,20,l),
(130,20,l),
(130,344,l),
(477,344,l),
(477,364,l),
(130,364,l),
(130,678,l),
(489,678,l),
(489,698,l),
(108,698,l),
(108,0,l)
);
},
{
closed = 1;
nodes = (
(299,906,l),
(425,779,l),
(439,790,l),
(311,923,l),
(287,923,l),
(159,790,l),
(173,779,l)
);
}
);
};
layerId = "D69F2138-E7D7-470A-972F-2AC6B0C54BA2";
shapes = (
{
ref = E;
},
{
pos = (-1,0);
ref = circumflex.case;
}
);
width = 561;
}
);
unicode = 202;
userData = {
com.typemytype.robofont.mark = (
0.6,
0.986,
1,
1
);
};
},
{
glyphname = Ecircumflexacute;
kernRight = latn_uc_e;
lastChange = "2023-02-21 09:59:45 +0000";
layers = (
{
anchors = (
{
name = bottom;
pos = (304,0);
},
{
name = bottomright;
pos = (519,0);
}
);
layerId = "E49AE6DE-96A1-45B5-978D-9231980F4AB5";
shapes = (
{
ref = E;
},
{
pos = (304,0);
ref = circumflexacute.case;
}
);
width = 583;
},
{
anchors = (
{
name = bottom;
pos = (304,0);
},
{
name = bottomright;
pos = (519,0);
}
);
background = {
shapes = (
{
closed = 1;
nodes = (
(552,0,l),
(552,135,l),
(229,135,l),
(229,286,l),
(506,286,l),
(506,420,l),
(229,420,l),
(229,563,l),
(552,563,l),
(552,698,l),
(77,698,l),
(77,0,l)
);
},
{
closed = 1;
nodes = (
(315,835,l),
(439,731,l),
(507,795,l),
(362,942,l),
(268,942,l),
(123,795,l),
(191,731,l)
);
},
{
closed = 1;
nodes = (
(622,1070,l),
(508,1127,l),
(409,933,l),
(488,894,l)
);
}
);
};
layerId = "5E87F462-D40B-43EC-958D-42003ED2F346";
shapes = (
{
ref = E;
},
{
pos = (316,0);
ref = circumflexacute.case;
}
);
width = 607;
},
{
anchors = (
{
name = bottom;
pos = (304,0);
},
{
name = bottomright;
pos = (519,0);
}
);
background = {
shapes = (
{
closed = 1;
nodes = (
(489,0,l),
(489,20,l),
(130,20,l),
(130,344,l),
(477,344,l),
(477,364,l),
(130,364,l),
(130,678,l),
(489,678,l),
(489,698,l),
(108,698,l),
(108,0,l)
);
},
{
closed = 1;
nodes = (
(299,898,l),
(425,771,l),
(439,782,l),
(311,915,l),
(287,915,l),
(159,782,l),
(173,771,l)
);
},
{
closed = 1;
nodes = (
(528,1029,l),
(509,1041,l),
(398,887,l),
(413,877,l)
);
}
);
};
layerId = "D69F2138-E7D7-470A-972F-2AC6B0C54BA2";
shapes = (
{
ref = E;
},
{
pos = (299,0);
ref = circumflexacute.case;
}
);
width = 561;
}
);
unicode = 7870;
userData = {
com.typemytype.robofont.mark = (
0.6,
0.986,
1,
1
);
};
},
{
glyphname = Ecircumflexdotbelow;
kernRight = latn_uc_e;
lastChange = "2023-02-21 09:59:45 +0000";
layers = (
{
anchors = (
{
name = bottomright;
pos = (519,0);
}
);
layerId = "E49AE6DE-96A1-45B5-978D-9231980F4AB5";
shapes = (
{
ref = E;
},
{
pos = (4,0);
ref = circumflex.case;
},
{
pos = (304,0);
ref = dotbelowcomb;
}
);
width = 583;
},
{
anchors = (
{
name = bottomright;
pos = (552,0);
}
);
background = {
shapes = (
{
closed = 1;
nodes = (
(552,0,l),
(552,135,l),
(229,135,l),
(229,286,l),
(506,286,l),
(506,420,l),
(229,420,l),
(229,563,l),
(552,563,l),
(552,698,l),
(77,698,l),
(77,0,l)
);
},
{
closed = 1;
nodes = (
(374,-204,o),
(396,-176,o),
(396,-141,cs),
(396,-115,ls),
(396,-80,o),
(374,-52,o),
(315,-52,cs),
(256,-52,o),
(234,-80,o),
(234,-115,cs),
(234,-141,ls),
(234,-176,o),
(256,-204,o),
(315,-204,cs)
);
},
{
closed = 1;
nodes = (
(315,854,l),
(436,739,l),
(509,797,l),
(377,956,l),
(253,956,l),
(121,797,l),
(194,739,l)
);
}
);
};
layerId = "5E87F462-D40B-43EC-958D-42003ED2F346";
shapes = (
{
ref = E;
},
{
pos = (16,0);
ref = circumflex.case;
},
{
pos = (316,0);
ref = dotbelowcomb;
}
);
width = 607;
},
{
anchors = (
{
name = bottomright;
pos = (489,0);
}
);
background = {
shapes = (
{
closed = 1;
nodes = (
(489,0,l),
(489,20,l),
(130,20,l),
(130,344,l),
(477,344,l),
(477,364,l),
(130,364,l),
(130,678,l),
(489,678,l),
(489,698,l),
(108,698,l),
(108,0,l)
);
},
{
closed = 1;
nodes = (
(316,-134,o),
(322,-124,o),
(322,-113,cs),
(322,-106,ls),
(322,-95,o),
(316,-85,o),
(299,-85,cs),
(282,-85,o),
(276,-95,o),
(276,-106,cs),
(276,-113,ls),
(276,-124,o),
(282,-134,o),
(299,-134,cs)
);
},
{
closed = 1;
nodes = (
(299,906,l),
(425,779,l),
(439,790,l),
(311,923,l),
(287,923,l),
(159,790,l),
(173,779,l)
);
}
);
};
layerId = "D69F2138-E7D7-470A-972F-2AC6B0C54BA2";
shapes = (
{
ref = E;
},
{
pos = (-1,0);
ref = circumflex.case;
},
{
pos = (299,0);
ref = dotbelowcomb;
}
);
width = 561;
}
);
unicode = 7878;
userData = {
com.typemytype.robofont.mark = (
0.6,
0.986,
1,
1
);
};
},
{
glyphname = Ecircumflexgrave;
kernRight = latn_uc_e;
lastChange = "2023-02-21 09:59:45 +0000";
layers = (
{
anchors = (
{
name = bottom;
pos = (304,0);
},
{
name = bottomright;
pos = (519,0);
}
);
layerId = "E49AE6DE-96A1-45B5-978D-9231980F4AB5";
shapes = (
{
ref = E;
},
{
pos = (304,0);
ref = circumflexgrave.case;
}
);
width = 583;
},
{
anchors = (
{
name = bottom;
pos = (304,0);
},
{
name = bottomright;
pos = (552,0);
}
);
background = {
shapes = (
{
closed = 1;
nodes = (
(552,0,l),
(552,135,l),
(229,135,l),
(229,286,l),
(506,286,l),
(506,420,l),
(229,420,l),
(229,563,l),
(552,563,l),
(552,698,l),
(77,698,l),
(77,0,l)
);
},
{
closed = 1;
nodes = (
(221,933,l),
(122,1127,l),
(8,1070,l),
(142,894,l)
);
},
{
closed = 1;
nodes = (
(315,835,l),
(439,731,l),
(507,795,l),
(362,942,l),
(268,942,l),
(123,795,l),
(191,731,l)
);
}
);
};
layerId = "5E87F462-D40B-43EC-958D-42003ED2F346";
shapes = (
{
ref = E;
},
{
pos = (316,0);
ref = circumflexgrave.case;
}
);
width = 607;
},
{
anchors = (
{
name = bottom;
pos = (304,0);
},
{
name = bottomright;
pos = (489,0);
}
);
background = {
shapes = (
{
closed = 1;
nodes = (
(489,0,l),
(489,20,l),
(130,20,l),
(130,344,l),
(477,344,l),
(477,364,l),
(130,364,l),
(130,678,l),
(489,678,l),
(489,698,l),
(108,698,l),
(108,0,l)
);
},
{
closed = 1;
nodes = (
(200,887,l),
(89,1041,l),
(70,1029,l),
(185,877,l)
);
},
{
closed = 1;
nodes = (
(299,898,l),
(425,771,l),
(439,782,l),
(311,915,l),
(287,915,l),
(159,782,l),
(173,771,l)
);
}
);
};
layerId = "D69F2138-E7D7-470A-972F-2AC6B0C54BA2";
shapes = (
{
ref = E;
},
{
pos = (299,0);
ref = circumflexgrave.case;
}
);
width = 561;
}
);
unicode = 7872;
userData = {
com.typemytype.robofont.mark = (
0.6,
0.986,
1,
1
);
};
},
{
glyphname = Ecircumflexhookabove;
kernRight = uc_e;
lastChange = "2019-12-12 08:23:03 +0000";
layers = (
{
anchors = (
{
name = bottom;
pos = (304,0);
},
{
name = bottomright;
pos = (519,0);
}
);
layerId = "E49AE6DE-96A1-45B5-978D-9231980F4AB5";
shapes = (
{
ref = E;
},
{
pos = (304,0);
ref = circumflexhook.case;
}
);
width = 583;
},
{
anchors = (
{
name = bottom;
pos = (304,0);
},
{
name = bottomright;
pos = (552,0);
}
);
background = {
shapes = (
{
closed = 1;
nodes = (
(552,0,l),
(552,135,l),
(229,135,l),
(229,286,l),
(506,286,l),
(506,420,l),
(229,420,l),
(229,563,l),
(552,563,l),
(552,698,l),
(77,698,l),
(77,0,l)
);
},
{
closed = 1;
nodes = (
(315,835,l),
(439,731,l),
(507,795,l),
(362,942,l),
(268,942,l),
(123,795,l),
(191,731,l)
);
},
{
closed = 1;
nodes = (
(522,914,ls),
(555,954,o),
(585,1001,o),
(585,1041,cs),
(585,1079,o),
(561,1113,o),
(487,1113,cs),
(353,1113,l),
(353,1012,l),
(472,1012,l),
(429,915,l),
(495,881,l)
);
}
);
};
layerId = "5E87F462-D40B-43EC-958D-42003ED2F346";
shapes = (
{
ref = E;
},
{
pos = (316,0);
ref = circumflexhook.case;
}
);
width = 607;
},
{
anchors = (
{
name = bottom;
pos = (304,0);
},
{
name = bottomright;
pos = (489,0);
}
);
background = {
shapes = (
{
closed = 1;
nodes = (
(489,0,l),
(489,20,l),
(130,20,l),
(130,344,l),
(477,344,l),
(477,364,l),
(130,364,l),
(130,678,l),
(489,678,l),
(489,698,l),
(108,698,l),
(108,0,l)
);
},
{
closed = 1;
nodes = (
(299,898,l),
(425,771,l),
(439,782,l),
(311,915,l),
(287,915,l),
(159,782,l),
(173,771,l)
);
},
{
closed = 1;
nodes = (
(467,951,ls),
(493,991,o),
(498,1001,o),
(498,1009,cs),
(498,1020,o),
(490,1027,o),
(475,1027,cs),
(338,1027,l),
(338,1009,l),
(479,1009,l),
(402,883,l),
(418,875,l)
);
}
);
};
layerId = "D69F2138-E7D7-470A-972F-2AC6B0C54BA2";
shapes = (
{
ref = E;
},
{
pos = (299,0);
ref = circumflexhook.case;
}
);
width = 561;
}
);
unicode = 7874;
userData = {
com.typemytype.robofont.mark = (
0.6,
0.986,
1,
1
);
};
},
{
glyphname = Ecircumflextilde;
kernRight = latn_uc_e;
lastChange = "2023-02-21 09:59:45 +0000";
layers = (
{
anchors = (
{
name = bottom;
pos = (304,0);
},
{
name = bottomright;
pos = (519,0);
}
);
layerId = "E49AE6DE-96A1-45B5-978D-9231980F4AB5";
shapes = (
{
ref = E;
},
{
pos = (304,0);
ref = circumflextilde.case;
}
);
width = 583;
},
{
anchors = (
{
name = bottom;
pos = (304,0);
},
{
name = bottomright;
pos = (552,0);
}
);
background = {
shapes = (
{
closed = 1;
nodes = (
(552,0,l),
(552,135,l),
(229,135,l),
(229,286,l),
(506,286,l),
(506,420,l),
(229,420,l),
(229,563,l),
(552,563,l),
(552,698,l),
(77,698,l),
(77,0,l)
);
},
{
closed = 1;
nodes = (
(315,826,l),
(439,731,l),
(505,795,l),
(363,929,l),
(267,929,l),
(125,795,l),
(191,731,l)
);
},
{
closed = 1;
nodes = (
(443,958,o),
(480,986,o),
(504,1022,c),
(454,1086,l),
(433,1069,o),
(418,1061,o),
(395,1061,cs),
(369,1061,o),
(346,1071,o),
(317,1083,cs),
(292,1094,o),
(270,1103,o),
(240,1103,cs),
(187,1103,o),
(150,1075,o),
(126,1039,c),
(176,975,l),
(197,992,o),
(212,1000,o),
(235,1000,cs),
(261,1000,o),
(284,990,o),
(313,978,cs),
(338,967,o),
(360,958,o),
(390,958,cs)
);
}
);
};
layerId = "5E87F462-D40B-43EC-958D-42003ED2F346";
shapes = (
{
ref = E;
},
{
pos = (316,0);
ref = circumflextilde.case;
}
);
width = 607;
},
{
anchors = (
{
name = bottom;
pos = (304,0);
},
{
name = bottomright;
pos = (489,0);
}
);
background = {
shapes = (
{
closed = 1;
nodes = (
(489,0,l),
(489,20,l),
(130,20,l),
(130,344,l),
(477,344,l),
(477,364,l),
(130,364,l),
(130,678,l),
(489,678,l),
(489,698,l),
(108,698,l),
(108,0,l)
);
},
{
closed = 1;
nodes = (
(299,898,l),
(425,771,l),
(439,782,l),
(311,915,l),
(287,915,l),
(159,782,l),
(173,771,l)
);
},
{
closed = 1;
nodes = (
(398,953,o),
(424,965,o),
(448,992,c),
(436,1004,l),
(415,982,o),
(395,971,o),
(371,971,cs),
(352,971,o),
(334,978,o),
(305,997,cs),
(271,1019,o),
(251,1027,o),
(228,1027,cs),
(200,1027,o),
(174,1015,o),
(150,988,c),
(162,976,l),
(183,998,o),
(203,1009,o),
(227,1009,cs),
(246,1009,o),
(264,1002,o),
(293,983,cs),
(327,961,o),
(347,953,o),
(370,953,cs)
);
}
);
};
layerId = "D69F2138-E7D7-470A-972F-2AC6B0C54BA2";
shapes = (
{
ref = E;
},
{
pos = (299,0);
ref = circumflextilde.case;
}
);
width = 561;
}
);
unicode = 7876;
userData = {
com.typemytype.robofont.mark = (
0.6,
0.986,
1,
1
);
};
},
{
glyphname = Edieresis;
kernRight = latn_uc_e;
lastChange = "2023-02-21 09:59:45 +0000";
layers = (
{
anchors = (
{
name = bottom;
pos = (304,0);
},
{
name = bottomright;
pos = (519,0);
}
);
layerId = "E49AE6DE-96A1-45B5-978D-9231980F4AB5";
shapes = (
{
ref = E;
},
{
pos = (4,0);
ref = dieresis.case;
}
);
width = 583;
},
{
anchors = (
{
name = bottom;
pos = (304,0);
},
{
name = bottomright;
pos = (552,0);
}
);
background = {
shapes = (
{
closed = 1;
nodes = (
(552,0,l),
(552,135,l),
(229,135,l),
(229,286,l),
(506,286,l),
(506,420,l),
(229,420,l),
(229,563,l),
(552,563,l),
(552,698,l),
(77,698,l),
(77,0,l)
);
},
{
closed = 1;
nodes = (
(265,761,o),
(285,789,o),
(285,824,cs),
(285,849,ls),
(285,884,o),
(265,912,o),
(205,912,cs),
(145,912,o),
(125,884,o),
(125,849,cs),
(125,824,ls),
(125,789,o),
(145,761,o),
(205,761,cs)
);
},
{
closed = 1;
nodes = (
(485,761,o),
(505,789,o),
(505,824,cs),
(505,849,ls),
(505,884,o),
(485,912,o),
(425,912,cs),
(365,912,o),
(345,884,o),
(345,849,cs),
(345,824,ls),
(345,789,o),
(365,761,o),
(425,761,cs)
);
}
);
};
layerId = "5E87F462-D40B-43EC-958D-42003ED2F346";
shapes = (
{
ref = E;
},
{
pos = (16,0);
ref = dieresis.case;
}
);
width = 607;
},
{
anchors = (
{
name = bottom;
pos = (304,0);
},
{
name = bottomright;
pos = (489,0);
}
);
background = {
shapes = (
{
closed = 1;
nodes = (
(489,0,l),
(489,20,l),
(130,20,l),
(130,344,l),
(477,344,l),
(477,364,l),
(130,364,l),
(130,678,l),
(489,678,l),
(489,698,l),
(108,698,l),
(108,0,l)
);
},
{
closed = 1;
nodes = (
(225,819,o),
(231,829,o),
(231,840,cs),
(231,847,ls),
(231,858,o),
(225,868,o),
(208,868,cs),
(191,868,o),
(185,858,o),
(185,847,cs),
(185,840,ls),
(185,829,o),
(191,819,o),
(208,819,cs)
);
},
{
closed = 1;
nodes = (
(407,819,o),
(413,829,o),
(413,840,cs),
(413,847,ls),
(413,858,o),
(407,868,o),
(390,868,cs),
(373,868,o),
(367,858,o),
(367,847,cs),
(367,840,ls),
(367,829,o),
(373,819,o),
(390,819,cs)
);
}
);
};
layerId = "D69F2138-E7D7-470A-972F-2AC6B0C54BA2";
shapes = (
{
ref = E;
},
{
pos = (-1,0);
ref = dieresis.case;
}
);
width = 561;
}
);
unicode = 203;
userData = {
com.typemytype.robofont.mark = (
0.6,
0.986,
1,
1
);
};
},
{
glyphname = Edotaccent;
kernRight = latn_uc_e;
lastChange = "2023-02-21 09:59:45 +0000";
layers = (
{
anchors = (
{
name = bottom;
pos = (304,0);
},
{
name = bottomright;
pos = (519,0);
}
);
layerId = "E49AE6DE-96A1-45B5-978D-9231980F4AB5";
shapes = (
{
ref = E;
},
{
pos = (4,0);
ref = dotaccent.case;
}
);
width = 583;
},
{
anchors = (
{
name = bottom;
pos = (304,0);
},
{
name = bottomright;
pos = (552,0);
}
);
background = {
shapes = (
{
closed = 1;
nodes = (
(552,0,l),
(552,135,l),
(229,135,l),
(229,286,l),
(506,286,l),
(506,420,l),
(229,420,l),
(229,563,l),
(552,563,l),
(552,698,l),
(77,698,l),
(77,0,l)
);
},
{
closed = 1;
nodes = (
(381,752,o),
(404,783,o),
(404,822,cs),
(404,851,ls),
(404,890,o),
(381,921,o),
(315,921,cs),
(249,921,o),
(226,890,o),
(226,851,cs),
(226,822,ls),
(226,783,o),
(249,752,o),
(315,752,cs)
);
}
);
};
layerId = "5E87F462-D40B-43EC-958D-42003ED2F346";
shapes = (
{
ref = E;
},
{
pos = (16,0);
ref = dotaccent.case;
}
);
width = 607;
},
{
anchors = (
{
name = bottom;
pos = (304,0);
},
{
name = bottomright;
pos = (489,0);
}
);
background = {
shapes = (
{
closed = 1;
nodes = (
(489,0,l),
(489,20,l),
(130,20,l),
(130,344,l),
(477,344,l),
(477,364,l),
(130,364,l),
(130,678,l),
(489,678,l),
(489,698,l),
(108,698,l),
(108,0,l)
);
},
{
closed = 1;
nodes = (
(316,822,o),
(322,832,o),
(322,843,cs),
(322,850,ls),
(322,861,o),
(316,871,o),
(299,871,cs),
(282,871,o),
(276,861,o),
(276,850,cs),
(276,843,ls),
(276,832,o),
(282,822,o),
(299,822,cs)
);
}
);
};
layerId = "D69F2138-E7D7-470A-972F-2AC6B0C54BA2";
shapes = (
{
ref = E;
},
{
pos = (-1,0);
ref = dotaccent.case;
}
);
width = 561;
}
);
unicode = 278;
userData = {
com.typemytype.robofont.mark = (
0.6,
0.986,
1,
1
);
};
},
{
glyphname = Edotbelow;
kernRight = latn_uc_e;
lastChange = "2023-02-21 09:59:45 +0000";
layers = (
{
anchors = (
{
name = bottomright;
pos = (519,0);
},
{
name = top;
pos = (304,698);
}
);
layerId = "E49AE6DE-96A1-45B5-978D-9231980F4AB5";
shapes = (
{
ref = E;
},
{
pos = (304,0);
ref = dotbelowcomb;
}
);
width = 583;
},
{
anchors = (
{
name = bottomright;
pos = (552,0);
},
{
name = top;
pos = (304,698);
}
);
background = {
shapes = (
{
closed = 1;
nodes = (
(552,0,l),
(552,135,l),
(229,135,l),
(229,286,l),
(506,286,l),
(506,420,l),
(229,420,l),
(229,563,l),
(552,563,l),
(552,698,l),
(77,698,l),
(77,0,l)
);
},
{
closed = 1;
nodes = (
(374,-204,o),
(396,-176,o),
(396,-141,cs),
(396,-115,ls),
(396,-80,o),
(374,-52,o),
(315,-52,cs),
(256,-52,o),
(234,-80,o),
(234,-115,cs),
(234,-141,ls),
(234,-176,o),
(256,-204,o),
(315,-204,cs)
);
}
);
};
layerId = "5E87F462-D40B-43EC-958D-42003ED2F346";
shapes = (
{
ref = E;
},
{
pos = (316,0);
ref = dotbelowcomb;
}
);
width = 607;
},
{
anchors = (
{
name = bottomright;
pos = (489,0);
},
{
name = top;
pos = (304,698);
}
);
background = {
shapes = (
{
closed = 1;
nodes = (
(489,0,l),
(489,20,l),
(130,20,l),
(130,344,l),
(477,344,l),
(477,364,l),
(130,364,l),
(130,678,l),
(489,678,l),
(489,698,l),
(108,698,l),
(108,0,l)
);
},
{
closed = 1;
nodes = (
(316,-134,o),
(322,-124,o),
(322,-113,cs),
(322,-106,ls),
(322,-95,o),
(316,-85,o),
(299,-85,cs),
(282,-85,o),
(276,-95,o),
(276,-106,cs),
(276,-113,ls),
(276,-124,o),
(282,-134,o),
(299,-134,cs)
);
}
);
};
layerId = "D69F2138-E7D7-470A-972F-2AC6B0C54BA2";
shapes = (
{
ref = E;
},
{
pos = (299,0);
ref = dotbelowcomb;
}
);
width = 561;
}
);
unicode = 7864;
userData = {
com.typemytype.robofont.mark = (
0.6,
0.986,
1,
1
);
};
},
{
glyphname = Egrave;
kernRight = latn_uc_e;
lastChange = "2023-02-21 09:59:45 +0000";
layers = (
{
anchors = (
{
name = bottom;
pos = (304,0);
},
{
name = bottomright;
pos = (519,0);
}
);
layerId = "E49AE6DE-96A1-45B5-978D-9231980F4AB5";
shapes = (
{
ref = E;
},
{
pos = (4,0);
ref = grave.case;
}
);
width = 583;
},
{
anchors = (
{
name = bottom;
pos = (304,0);
},
{
name = bottomright;
pos = (552,0);
}
);
background = {
shapes = (
{
closed = 1;
nodes = (
(552,0,l),
(552,135,l),
(229,135,l),
(229,286,l),
(506,286,l),
(506,420,l),
(229,420,l),
(229,563,l),
(552,563,l),
(552,698,l),
(77,698,l),
(77,0,l)
);
},
{
closed = 1;
nodes = (
(387,783,l),
(288,977,l),
(165,916,l),
(299,740,l)
);
}
);
};
layerId = "5E87F462-D40B-43EC-958D-42003ED2F346";
shapes = (
{
ref = E;
},
{
pos = (16,0);
ref = grave.case;
}
);
width = 607;
},
{
anchors = (
{
name = bottom;
pos = (304,0);
},
{
name = bottomright;
pos = (489,0);
}
);
background = {
shapes = (
{
closed = 1;
nodes = (
(489,0,l),
(489,20,l),
(130,20,l),
(130,344,l),
(477,344,l),
(477,364,l),
(130,364,l),
(130,678,l),
(489,678,l),
(489,698,l),
(108,698,l),
(108,0,l)
);
},
{
closed = 1;
nodes = (
(331,777,l),
(220,931,l),
(201,919,l),
(316,767,l)
);
}
);
};
layerId = "D69F2138-E7D7-470A-972F-2AC6B0C54BA2";
shapes = (
{
ref = E;
},
{
pos = (-1,0);
ref = grave.case;
}
);
width = 561;
}
);
unicode = 200;
userData = {
com.typemytype.robofont.mark = (
0.6,
0.986,
1,
1
);
};
},
{
glyphname = Ehookabove;
kernRight = uc_e;
lastChange = "2019-12-12 13:31:24 +0000";
layers = (
{
anchors = (
{
name = bottom;
pos = (304,0);
},
{
name = bottomright;
pos = (519,0);
}
);
layerId = "E49AE6DE-96A1-45B5-978D-9231980F4AB5";
shapes = (
{
ref = E;
},
{
pos = (304,170);
ref = hookabovecomb;
}
);
width = 583;
},
{
anchors = (
{
name = bottom;
pos = (304,0);
},
{
name = bottomright;
pos = (552,0);
}
);
background = {
shapes = (
{
closed = 1;
nodes = (
(552,0,l),
(552,135,l),
(229,135,l),
(229,286,l),
(506,286,l),
(506,420,l),
(229,420,l),
(229,563,l),
(552,563,l),
(552,698,l),
(77,698,l),
(77,0,l)
);
},
{
closed = 1;
nodes = (
(379,764,ls),
(412,804,o),
(436,851,o),
(436,890,cs),
(436,929,o),
(413,963,o),
(338,963,cs),
(195,963,l),
(195,857,l),
(317,857,l),
(276,765,l),
(351,730,l)
);
}
);
};
layerId = "5E87F462-D40B-43EC-958D-42003ED2F346";
shapes = (
{
ref = E;
},
{
pos = (316,159);
ref = hookabovecomb;
}
);
width = 607;
},
{
anchors = (
{
name = bottom;
pos = (304,0);
},
{
name = bottomright;
pos = (489,0);
}
);
background = {
shapes = (
{
closed = 1;
nodes = (
(489,0,l),
(489,20,l),
(130,20,l),
(130,344,l),
(477,344,l),
(477,364,l),
(130,364,l),
(130,678,l),
(489,678,l),
(489,698,l),
(108,698,l),
(108,0,l)
);
},
{
closed = 1;
nodes = (
(354,841,ls),
(380,881,o),
(385,891,o),
(385,899,cs),
(385,910,o),
(377,917,o),
(362,917,cs),
(225,917,l),
(225,899,l),
(366,899,l),
(289,773,l),
(305,765,l)
);
}
);
};
layerId = "D69F2138-E7D7-470A-972F-2AC6B0C54BA2";
shapes = (
{
ref = E;
},
{
pos = (298,180);
ref = hookabovecomb;
}
);
width = 561;
}
);
unicode = 7866;
userData = {
com.typemytype.robofont.mark = (
0.6,
0.986,
1,
1
);
};
},
{
glyphname = Emacron;
kernRight = latn_uc_e;
lastChange = "2023-02-21 09:59:45 +0000";
layers = (
{
anchors = (
{
name = bottom;
pos = (304,0);
},
{
name = bottomright;
pos = (519,0);
}
);
layerId = "E49AE6DE-96A1-45B5-978D-9231980F4AB5";
shapes = (
{
ref = E;
},
{
pos = (4,0);
ref = macron.case;
}
);
width = 583;
},
{
anchors = (
{
name = bottom;
pos = (304,0);
},
{
name = bottomright;
pos = (552,0);
}
);
background = {
shapes = (
{
closed = 1;
nodes = (
(552,0,l),
(552,135,l),
(229,135,l),
(229,286,l),
(506,286,l),
(506,420,l),
(229,420,l),
(229,563,l),
(552,563,l),
(552,698,l),
(77,698,l),
(77,0,l)
);
},
{
closed = 1;
nodes = (
(468,785,l),
(468,888,l),
(162,888,l),
(162,785,l)
);
}
);
};
layerId = "5E87F462-D40B-43EC-958D-42003ED2F346";
shapes = (
{
ref = E;
},
{
pos = (16,0);
ref = macron.case;
}
);
width = 607;
},
{
anchors = (
{
name = bottom;
pos = (304,0);
},
{
name = bottomright;
pos = (489,0);
}
);
background = {
shapes = (
{
closed = 1;
nodes = (
(489,0,l),
(489,20,l),
(130,20,l),
(130,344,l),
(477,344,l),
(477,364,l),
(130,364,l),
(130,678,l),
(489,678,l),
(489,698,l),
(108,698,l),
(108,0,l)
);
},
{
closed = 1;
nodes = (
(428,838,l),
(428,856,l),
(170,856,l),
(170,838,l)
);
}
);
};
layerId = "D69F2138-E7D7-470A-972F-2AC6B0C54BA2";
shapes = (
{
ref = E;
},
{
pos = (-1,0);
ref = macron.case;
}
);
width = 561;
}
);
unicode = 274;
userData = {
com.typemytype.robofont.mark = (
0.6,
0.986,
1,
1
);
};
},
{
glyphname = Eogonek;
kernRight = latn_uc_e;
lastChange = "2023-02-21 09:59:45 +0000";
layers = (
{
layerId = "E49AE6DE-96A1-45B5-978D-9231980F4AB5";
shapes = (
{
closed = 1;
nodes = (
(498,-207,o),
(528,-189,o),
(540,-168,c),
(500,-129,l),
(488,-144,o),
(471,-153,o),
(452,-153,cs),
(434,-153,o),
(421,-145,o),
(421,-123,cs),
(421,-101,o),
(434,-78,o),
(519,0,c),
(519,74,l),
(177,74,l),
(177,316,l),
(499,316,l),
(499,390,l),
(177,390,l),
(177,624,l),
(519,624,l),
(519,698,l),
(93,698,l),
(93,0,l,{
name = hr00;
}),
(457,0,l),
(458,-5,l),
(403,-42,o),
(357,-80,o),
(357,-131,cs),
(357,-184,o),
(400,-207,o),
(452,-207,cs)
);
}
);
width = 583;
},
{
layerId = "5E87F462-D40B-43EC-958D-42003ED2F346";
shapes = (
{
closed = 1;
nodes = (
(526,-212,o),
(568,-193,o),
(585,-161,c),
(532,-110,l),
(518,-126,o),
(501,-138,o),
(477,-138,cs),
(457,-138,o),
(439,-130,o),
(439,-105,cs),
(439,-81,o),
(454,-60,o),
(552,0,c),
(552,135,l),
(229,135,l),
(229,286,l),
(506,286,l),
(506,420,l),
(229,420,l),
(229,563,l),
(552,563,l),
(552,698,l),
(77,698,l),
(77,0,l),
(457,0,l),
(458,-4,l),
(384,-38,o),
(339,-71,o),
(339,-127,cs),
(339,-191,o),
(397,-212,o),
(463,-212,cs)
);
}
);
width = 607;
},
{
layerId = "D69F2138-E7D7-470A-972F-2AC6B0C54BA2";
shapes = (
{
closed = 1;
nodes = (
(464,-202,o),
(490,-188,o),
(503,-170,c),
(489,-159,l),
(479,-171,o),
(461,-184,o),
(429,-184,cs),
(394,-184,o),
(370,-169,o),
(370,-132,cs),
(370,-82,o),
(410,-51,o),
(489,0,c),
(489,20,l),
(130,20,l),
(130,344,l),
(477,344,l),
(477,364,l),
(130,364,l),
(130,678,l),
(489,678,l),
(489,698,l),
(108,698,l),
(108,0,l),
(460,0,l),
(461,-3,l),
(373,-54,o),
(349,-97,o),
(349,-135,cs),
(349,-179,o),
(383,-202,o),
(428,-202,cs)
);
}
);
width = 561;
}
);
unicode = 280;
},
{
glyphname = Etilde;
kernRight = latn_uc_e;
lastChange = "2023-02-21 09:59:45 +0000";
layers = (
{
anchors = (
{
name = bottom;
pos = (304,0);
},
{
name = bottomright;
pos = (519,0);
}
);
layerId = "E49AE6DE-96A1-45B5-978D-9231980F4AB5";
shapes = (
{
ref = E;
},
{
pos = (4,0);
ref = tilde.case;
}
);
width = 583;
},
{
anchors = (
{
name = bottom;
pos = (304,0);
},
{
name = bottomright;
pos = (552,0);
}
);
background = {
shapes = (
{
closed = 1;
nodes = (
(552,0,l),
(552,135,l),
(229,135,l),
(229,286,l),
(506,286,l),
(506,420,l),
(229,420,l),
(229,563,l),
(552,563,l),
(552,698,l),
(77,698,l),
(77,0,l)
);
},
{
closed = 1;
nodes = (
(444,762,o),
(481,790,o),
(505,826,c),
(453,894,l),
(432,877,o),
(417,869,o),
(394,869,cs),
(368,869,o),
(345,879,o),
(316,891,cs),
(291,902,o),
(269,911,o),
(239,911,cs),
(186,911,o),
(149,883,o),
(125,847,c),
(177,779,l),
(198,796,o),
(213,804,o),
(236,804,cs),
(262,804,o),
(285,794,o),
(314,782,cs),
(339,771,o),
(361,762,o),
(391,762,cs)
);
}
);
};
layerId = "5E87F462-D40B-43EC-958D-42003ED2F346";
shapes = (
{
ref = E;
},
{
pos = (16,0);
ref = tilde.case;
}
);
width = 607;
},
{
anchors = (
{
name = bottom;
pos = (304,0);
},
{
name = bottomright;
pos = (489,0);
}
);
background = {
shapes = (
{
closed = 1;
nodes = (
(489,0,l),
(489,20,l),
(130,20,l),
(130,344,l),
(477,344,l),
(477,364,l),
(130,364,l),
(130,678,l),
(489,678,l),
(489,698,l),
(108,698,l),
(108,0,l)
);
},
{
closed = 1;
nodes = (
(398,808,o),
(424,820,o),
(448,847,c),
(436,859,l),
(415,837,o),
(395,826,o),
(371,826,cs),
(352,826,o),
(334,833,o),
(305,852,cs),
(271,874,o),
(251,882,o),
(228,882,cs),
(200,882,o),
(174,870,o),
(150,843,c),
(162,831,l),
(183,853,o),
(203,864,o),
(227,864,cs),
(246,864,o),
(264,857,o),
(293,838,cs),
(327,816,o),
(347,808,o),
(370,808,cs)
);
}
);
};
layerId = "D69F2138-E7D7-470A-972F-2AC6B0C54BA2";
shapes = (
{
ref = E;
},
{
pos = (-1,0);
ref = tilde.case;
}
);
width = 561;
}
);
unicode = 7868;
userData = {
com.typemytype.robofont.mark = (
0.6,
0.986,
1,
1
);
};
},
{
glyphname = Schwa;
kernLeft = latn_uc_o;
kernRight = latn_uc_o;
lastChange = "2023-02-21 09:59:45 +0000";
layers = (
{
layerId = "E49AE6DE-96A1-45B5-978D-9231980F4AB5";
shapes = (
{
closed = 1;
nodes = (
(537,-12,o),
(650,123,o),
(650,349,cs),
(650,574,o),
(546,710,o),
(360,710,cs),
(230,710,o),
(129,633,o),
(89,532,c),
(159,498,l),
(194,582,o),
(269,635,o),
(359,635,cs),
(481,635,o),
(561,547,o),
(561,401,cs),
(561,371,l),
(58,371,l),
(58,349,ls,{
name = hr00;
}),
(58,109,o),
(169,-12,o),
(353,-12,cs)
);
},
{
closed = 1;
nodes = (
(237,63,o),
(145,156,o),
(145,297,cs),
(145,302,l),
(561,302,l),
(561,297,ls),
(561,156,o),
(469,63,o),
(353,63,cs)
);
}
);
width = 708;
},
{
background = {
shapes = (
{
closed = 1;
nodes = (
(543,-12,o),
(664,113,o),
(664,349,cs),
(664,585,o),
(543,710,o),
(357,710,cs),
(199,710,o),
(110,622,o),
(74,513,c),
(211,464,l),
(230,533,o),
(267,575,o),
(357,575,cs),
(447,575,o),
(503,512,o),
(503,402,cs),
(503,399,l),
(50,399,l),
(50,349,ls),
(50,113,o),
(171,-12,o),
(357,-12,cs)
);
},
{
closed = 1;
nodes = (
(273,123,o),
(219,177,o),
(212,274,c),
(502,274,l),
(495,177,o),
(441,123,o),
(357,123,cs)
);
}
);
};
layerId = "5E87F462-D40B-43EC-958D-42003ED2F346";
shapes = (
{
closed = 1;
nodes = (
(543,-12,o),
(664,113,o),
(664,349,cs),
(664,585,o),
(543,710,o),
(357,710,cs),
(199,710,o),
(110,622,o),
(74,513,c),
(211,464,l),
(230,533,o),
(267,575,o),
(357,575,cs),
(447,575,o),
(503,512,o),
(503,402,cs),
(503,399,l),
(50,399,l),
(50,349,ls),
(50,113,o),
(171,-12,o),
(357,-12,cs)
);
},
{
closed = 1;
nodes = (
(274,123,o),
(223,176,o),
(213,265,cs),
(212,274,l),
(502,274,l),
(501,265,ls),
(492,174,o),
(439,123,o),
(357,123,cs)
);
}
);
width = 714;
},
{
layerId = "D69F2138-E7D7-470A-972F-2AC6B0C54BA2";
shapes = (
{
closed = 1;
nodes = (
(513,-12,o),
(610,109,o),
(610,349,cs),
(610,589,o),
(511,710,o),
(340,710,cs),
(216,710,o),
(131,648,o),
(93,524,c),
(112,514,l),
(147,630,o),
(227,690,o),
(340,690,cs),
(493,690,o),
(586,581,o),
(586,370,cs),
(586,351,l),
(70,351,l),
(70,349,ls),
(70,109,o),
(167,-12,o),
(340,-12,cs)
);
},
{
closed = 1;
nodes = (
(187,8,o),
(94,117,o),
(94,328,cs),
(94,331,l),
(586,331,l),
(586,328,ls),
(586,117,o),
(493,8,o),
(340,8,cs)
);
}
);
width = 680;
}
);
unicode = 399;
},
{
glyphname = F;
lastChange = "2019-12-09 12:18:51 +0000";
layers = (
{
anchors = (
{
name = bottom;
pos = (139,0);
},
{
name = top;
pos = (301,698);
}
);
layerId = "E49AE6DE-96A1-45B5-978D-9231980F4AB5";
shapes = (
{
closed = 1;
nodes = (
(177,0,l,{
name = hr00;
}),
(177,316,l),
(480,316,l),
(480,390,l),
(177,390,l),
(177,624,l),
(509,624,l),
(509,698,l),
(93,698,l),
(93,0,l)
);
}
);
width = 559;
},
{
anchors = (
{
name = bottom;
pos = (158,0);
},
{
name = top;
pos = (293,698);
}
);
layerId = "5E87F462-D40B-43EC-958D-42003ED2F346";
shapes = (
{
closed = 1;
nodes = (
(229,0,l),
(229,286,l),
(494,286,l),
(494,420,l),
(229,420,l),
(229,563,l),
(540,563,l),
(540,698,l),
(77,698,l),
(77,0,l)
);
}
);
width = 585;
},
{
anchors = (
{
name = bottom;
pos = (120,0);
},
{
name = top;
pos = (268,698);
}
);
layerId = "D69F2138-E7D7-470A-972F-2AC6B0C54BA2";
shapes = (
{
closed = 1;
nodes = (
(130,0,l),
(130,344,l),
(467,344,l),
(467,364,l),
(130,364,l),
(130,678,l),
(481,678,l),
(481,698,l),
(108,698,l),
(108,0,l)
);
}
);
width = 535;
}
);
unicode = 70;
},
{
glyphname = G;
kernLeft = latn_uc_o;
kernRight = latn_uc_g;
lastChange = "2023-02-21 09:59:45 +0000";
layers = (
{
anchors = (
{
name = bottom;
pos = (348,0);
},
{
name = top;
pos = (355,698);
}
);
layerId = "E49AE6DE-96A1-45B5-978D-9231980F4AB5";
shapes = (
{
closed = 1;
nodes = (
(454,-12,o),
(525,37,o),
(542,102,c,{
name = hr02;
}),
(545,102,l),
(545,0,l),
(623,0,l),
(623,359,l),
(387,359,l),
(387,285,l),
(541,285,l),
(541,216,ls),
(541,113,o),
(460,63,o),
(363,63,cs,{
name = hr01;
}),
(230,63,o),
(148,155,o),
(148,293,cs),
(148,406,ls),
(148,544,o),
(232,635,o),
(355,635,cs),
(443,635,o),
(508,589,o),
(540,515,c),
(609,557,l),
(564,648,o),
(480,710,o),
(355,710,cs),
(176,710,o),
(58,581,o),
(58,349,cs),
(58,115,o),
(177,-12,o),
(348,-12,cs)
);
}
);
width = 695;
},
{
anchors = (
{
name = bottom;
pos = (350,0);
},
{
name = top;
pos = (358,698);
}
);
layerId = "5E87F462-D40B-43EC-958D-42003ED2F346";
shapes = (
{
closed = 1;
nodes = (
(441,-12,o),
(505,41,o),
(515,111,c),
(520,111,l),
(520,0,l),
(648,0,l),
(648,389,l),
(373,389,l),
(373,262,l),
(503,262,l),
(503,227,ls),
(503,159,o),
(442,123,o),
(366,123,cs),
(272,123,o),
(211,177,o),
(211,293,cs),
(211,405,ls),
(211,521,o),
(272,575,o),
(366,575,cs),
(447,575,o),
(490,531,o),
(511,477,c),
(635,548,l),
(583,655,o),
(490,710,o),
(366,710,cs),
(177,710,o),
(50,581,o),
(50,346,cs),
(50,112,o),
(176,-12,o),
(336,-12,cs)
);
}
);
width = 719;
},
{
anchors = (
{
name = bottom;
pos = (340,0);
},
{
name = top;
pos = (340,698);
}
);
layerId = "D69F2138-E7D7-470A-972F-2AC6B0C54BA2";
shapes = (
{
closed = 1;
nodes = (
(451,-12,o),
(524,34,o),
(562,114,c),
(565,114,l),
(565,0,l),
(586,0,l),
(586,332,l),
(388,332,l),
(388,312,l),
(564,312,l),
(564,206,ls),
(564,74,o),
(460,8,o),
(340,8,cs),
(187,8,o),
(94,117,o),
(94,328,cs),
(94,370,ls),
(94,581,o),
(187,690,o),
(340,690,cs),
(437,690,o),
(514,641,o),
(550,558,c),
(569,567,l),
(531,653,o),
(448,710,o),
(340,710,cs),
(167,710,o),
(70,589,o),
(70,349,cs),
(70,109,o),
(167,-12,o),
(340,-12,cs)
);
}
);
width = 666;
}
);
unicode = 71;
},
{
glyphname = Gbreve;
kernLeft = latn_uc_o;
kernRight = latn_uc_g;
lastChange = "2023-02-21 09:59:45 +0000";
layers = (
{
anchors = (
{
name = bottom;
pos = (348,0);
}
);
layerId = "E49AE6DE-96A1-45B5-978D-9231980F4AB5";
shapes = (
{
ref = G;
},
{
pos = (55,0);
ref = breve.case;
}
);
width = 695;
},
{
anchors = (
{
name = bottom;
pos = (348,0);
}
);
background = {
shapes = (
{
closed = 1;
nodes = (
(441,-12,o),
(505,41,o),
(515,111,c),
(520,111,l),
(520,0,l),
(648,0,l),
(648,389,l),
(373,389,l),
(373,262,l),
(503,262,l),
(503,227,ls),
(503,159,o),
(442,123,o),
(366,123,cs),
(272,123,o),
(211,177,o),
(211,293,cs),
(211,405,ls),
(211,521,o),
(272,575,o),
(366,575,cs),
(447,575,o),
(490,531,o),
(511,477,c),
(635,548,l),
(583,655,o),
(490,710,o),
(366,710,cs),
(177,710,o),
(50,581,o),
(50,346,cs),
(50,112,o),
(176,-12,o),
(336,-12,cs)
);
},
{
closed = 1;
nodes = (
(471,740,o),
(524,838,o),
(548,910,c),
(468,952,l),
(449,920,ls),
(420,871,o),
(395,843,o),
(358,843,cs),
(321,843,o),
(297,871,o),
(268,920,cs),
(249,952,l),
(168,910,l),
(192,838,o),
(240,740,o),
(358,740,cs)
);
}
);
};
layerId = "5E87F462-D40B-43EC-958D-42003ED2F346";
shapes = (
{
ref = G;
},
{
pos = (58,0);
ref = breve.case;
}
);
width = 719;
},
{
anchors = (
{
name = bottom;
pos = (348,0);
}
);
background = {
shapes = (
{
closed = 1;
nodes = (
(451,-12,o),
(524,34,o),
(562,114,c),
(565,114,l),
(565,0,l),
(586,0,l),
(586,332,l),
(388,332,l),
(388,312,l),
(564,312,l),
(564,206,ls),
(564,74,o),
(460,8,o),
(340,8,cs),
(187,8,o),
(94,117,o),
(94,328,cs),
(94,370,ls),
(94,581,o),
(187,690,o),
(340,690,cs),
(437,690,o),
(514,641,o),
(550,558,c),
(569,567,l),
(531,653,o),
(448,710,o),
(340,710,cs),
(167,710,o),
(70,589,o),
(70,349,cs),
(70,109,o),
(167,-12,o),
(340,-12,cs)
);
},
{
closed = 1;
nodes = (
(408,786,o),
(435,830,o),
(472,903,c),
(456,910,l),
(441,883,ls),
(406,820,o),
(384,805,o),
(340,805,cs),
(296,805,o),
(274,820,o),
(239,883,cs),
(224,910,l),
(208,903,l),
(245,830,o),
(272,786,o),
(340,786,cs)
);
}
);
};
layerId = "D69F2138-E7D7-470A-972F-2AC6B0C54BA2";
shapes = (
{
ref = G;
},
{
pos = (40,0);
ref = breve.case;
}
);
width = 666;
}
);
unicode = 286;
userData = {
com.typemytype.robofont.mark = (
0.6,
0.986,
1,
1
);
};
},
{
glyphname = Gcircumflex;
kernLeft = latn_uc_o;
kernRight = latn_uc_g;
lastChange = "2023-02-21 09:59:45 +0000";
layers = (
{
anchors = (
{
name = bottom;
pos = (348,0);
}
);
layerId = "E49AE6DE-96A1-45B5-978D-9231980F4AB5";
shapes = (
{
ref = G;
},
{
pos = (55,0);
ref = circumflex.case;
}
);
width = 695;
},
{
anchors = (
{
name = bottom;
pos = (348,0);
}
);
background = {
shapes = (
{
closed = 1;
nodes = (
(441,-12,o),
(505,41,o),
(515,111,c),
(520,111,l),
(520,0,l),
(648,0,l),
(648,389,l),
(373,389,l),
(373,262,l),
(503,262,l),
(503,227,ls),
(503,159,o),
(442,123,o),
(366,123,cs),
(272,123,o),
(211,177,o),
(211,293,cs),
(211,405,ls),
(211,521,o),
(272,575,o),
(366,575,cs),
(447,575,o),
(490,531,o),
(511,477,c),
(635,548,l),
(583,655,o),
(490,710,o),
(366,710,cs),
(177,710,o),
(50,581,o),
(50,346,cs),
(50,112,o),
(176,-12,o),
(336,-12,cs)
);
},
{
closed = 1;
nodes = (
(358,854,l),
(479,739,l),
(552,797,l),
(420,956,l),
(296,956,l),
(164,797,l),
(237,739,l)
);
}
);
};
layerId = "5E87F462-D40B-43EC-958D-42003ED2F346";
shapes = (
{
ref = G;
},
{
pos = (58,0);
ref = circumflex.case;
}
);
width = 719;
},
{
anchors = (
{
name = bottom;
pos = (348,0);
}
);
background = {
shapes = (
{
closed = 1;
nodes = (
(451,-12,o),
(524,34,o),
(562,114,c),
(565,114,l),
(565,0,l),
(586,0,l),
(586,332,l),
(388,332,l),
(388,312,l),
(564,312,l),
(564,206,ls),
(564,74,o),
(460,8,o),
(340,8,cs),
(187,8,o),
(94,117,o),
(94,328,cs),
(94,370,ls),
(94,581,o),
(187,690,o),
(340,690,cs),
(437,690,o),
(514,641,o),
(550,558,c),
(569,567,l),
(531,653,o),
(448,710,o),
(340,710,cs),
(167,710,o),
(70,589,o),
(70,349,cs),
(70,109,o),
(167,-12,o),
(340,-12,cs)
);
},
{
closed = 1;
nodes = (
(340,906,l),
(466,779,l),
(480,790,l),
(352,923,l),
(328,923,l),
(200,790,l),
(214,779,l)
);
}
);
};
layerId = "D69F2138-E7D7-470A-972F-2AC6B0C54BA2";
shapes = (
{
ref = G;
},
{
pos = (40,0);
ref = circumflex.case;
}
);
width = 666;
}
);
unicode = 284;
userData = {
com.typemytype.robofont.mark = (
0.6,
0.986,
1,
1
);
};
},
{
glyphname = Gcommaaccent;
kernLeft = latn_uc_o;
kernRight = latn_uc_g;
lastChange = "2023-02-21 09:59:45 +0000";
layers = (
{
anchors = (
{
name = top;
pos = (355,698);
}
);
layerId = "E49AE6DE-96A1-45B5-978D-9231980F4AB5";
shapes = (
{
ref = G;
},
{
pos = (348,0);
ref = commaaccentcomb;
}
);
width = 695;
},
{
anchors = (
{
name = top;
pos = (355,698);
}
);
background = {
shapes = (
{
closed = 1;
nodes = (
(441,-12,o),
(505,41,o),
(515,111,c),
(520,111,l),
(520,0,l),
(648,0,l),
(648,389,l),
(373,389,l),
(373,262,l),
(503,262,l),
(503,227,ls),
(503,159,o),
(442,123,o),
(366,123,cs),
(272,123,o),
(211,177,o),
(211,293,cs),
(211,405,ls),
(211,521,o),
(272,575,o),
(366,575,cs),
(447,575,o),
(490,531,o),
(511,477,c),
(635,548,l),
(583,655,o),
(490,710,o),
(366,710,cs),
(177,710,o),
(50,581,o),
(50,346,cs),
(50,112,o),
(176,-12,o),
(336,-12,cs)
);
},
{
closed = 1;
nodes = (
(351,-275,l),
(389,-242,o),
(418,-179,o),
(418,-118,cs),
(418,-104,ls),
(418,-64,o),
(392,-42,o),
(348,-42,cs),
(304,-42,o),
(278,-64,o),
(278,-104,cs),
(278,-115,ls),
(278,-144,o),
(290,-173,o),
(328,-176,c),
(318,-216,o),
(300,-246,o),
(266,-275,c)
);
}
);
};
layerId = "5E87F462-D40B-43EC-958D-42003ED2F346";
shapes = (
{
ref = G;
},
{
pos = (350,0);
ref = commaaccentcomb;
}
);
width = 719;
},
{
anchors = (
{
name = top;
pos = (355,698);
}
);
background = {
shapes = (
{
closed = 1;
nodes = (
(451,-12,o),
(524,34,o),
(562,114,c),
(565,114,l),
(565,0,l),
(586,0,l),
(586,332,l),
(388,332,l),
(388,312,l),
(564,312,l),
(564,206,ls),
(564,74,o),
(460,8,o),
(340,8,cs),
(187,8,o),
(94,117,o),
(94,328,cs),
(94,370,ls),
(94,581,o),
(187,690,o),
(340,690,cs),
(437,690,o),
(514,641,o),
(550,558,c),
(569,567,l),
(531,653,o),
(448,710,o),
(340,710,cs),
(167,710,o),
(70,589,o),
(70,349,cs),
(70,109,o),
(167,-12,o),
(340,-12,cs)
);
},
{
closed = 1;
nodes = (
(318,-212,l),
(344,-183,o),
(363,-133,o),
(363,-99,cs),
(363,-88,ls),
(363,-75,o),
(357,-66,o),
(341,-66,cs),
(323,-66,o),
(317,-75,o),
(317,-88,cs),
(317,-96,ls),
(317,-107,o),
(323,-116,o),
(345,-116,c),
(342,-138,o),
(329,-180,o),
(300,-212,c)
);
}
);
};
layerId = "D69F2138-E7D7-470A-972F-2AC6B0C54BA2";
shapes = (
{
ref = G;
},
{
pos = (340,0);
ref = commaaccentcomb;
}
);
width = 666;
}
);
unicode = 290;
userData = {
com.typemytype.robofont.mark = (
0.6,
0.986,
1,
1
);
};
},
{
glyphname = Gdotaccent;
kernLeft = latn_uc_o;
kernRight = latn_uc_g;
lastChange = "2023-02-21 09:59:45 +0000";
layers = (
{
anchors = (
{
name = bottom;
pos = (348,0);
}
);
layerId = "E49AE6DE-96A1-45B5-978D-9231980F4AB5";
shapes = (
{
ref = G;
},
{
pos = (55,0);
ref = dotaccent.case;
}
);
width = 695;
},
{
anchors = (
{
name = bottom;
pos = (348,0);
}
);
background = {
shapes = (
{
closed = 1;
nodes = (
(441,-12,o),
(505,41,o),
(515,111,c),
(520,111,l),
(520,0,l),
(648,0,l),
(648,389,l),
(373,389,l),
(373,262,l),
(503,262,l),
(503,227,ls),
(503,159,o),
(442,123,o),
(366,123,cs),
(272,123,o),
(211,177,o),
(211,293,cs),
(211,405,ls),
(211,521,o),
(272,575,o),
(366,575,cs),
(447,575,o),
(490,531,o),
(511,477,c),
(635,548,l),
(583,655,o),
(490,710,o),
(366,710,cs),
(177,710,o),
(50,581,o),
(50,346,cs),
(50,112,o),
(176,-12,o),
(336,-12,cs)
);
},
{
closed = 1;
nodes = (
(424,752,o),
(447,783,o),
(447,822,cs),
(447,851,ls),
(447,890,o),
(424,921,o),
(358,921,cs),
(292,921,o),
(269,890,o),
(269,851,cs),
(269,822,ls),
(269,783,o),
(292,752,o),
(358,752,cs)
);
}
);
};
layerId = "5E87F462-D40B-43EC-958D-42003ED2F346";
shapes = (
{
ref = G;
},
{
pos = (58,0);
ref = dotaccent.case;
}
);
width = 719;
},
{
anchors = (
{
name = bottom;
pos = (348,0);
}
);
background = {
shapes = (
{
closed = 1;
nodes = (
(451,-12,o),
(524,34,o),
(562,114,c),
(565,114,l),
(565,0,l),
(586,0,l),
(586,332,l),
(388,332,l),
(388,312,l),
(564,312,l),
(564,206,ls),
(564,74,o),
(460,8,o),
(340,8,cs),
(187,8,o),
(94,117,o),
(94,328,cs),
(94,370,ls),
(94,581,o),
(187,690,o),
(340,690,cs),
(437,690,o),
(514,641,o),
(550,558,c),
(569,567,l),
(531,653,o),
(448,710,o),
(340,710,cs),
(167,710,o),
(70,589,o),
(70,349,cs),
(70,109,o),
(167,-12,o),
(340,-12,cs)
);
},
{
closed = 1;
nodes = (
(357,822,o),
(363,832,o),
(363,843,cs),
(363,850,ls),
(363,861,o),
(357,871,o),
(340,871,cs),
(323,871,o),
(317,861,o),
(317,850,cs),
(317,843,ls),
(317,832,o),
(323,822,o),
(340,822,cs)
);
}
);
};
layerId = "D69F2138-E7D7-470A-972F-2AC6B0C54BA2";
shapes = (
{
ref = G;
},
{
pos = (40,0);
ref = dotaccent.case;
}
);
width = 666;
}
);
unicode = 288;
userData = {
com.typemytype.robofont.mark = (
0.6,
0.986,
1,
1
);
};
},
{
glyphname = H;
lastChange = "2019-12-09 08:04:49 +0000";
layers = (
{
anchors = (
{
name = bottom;
pos = (354,0);
},
{
name = center;
pos = (354,349);
},
{
name = top;
pos = (354,698);
},
{
name = topleft;
pos = (20,698);
}
);
layerId = "E49AE6DE-96A1-45B5-978D-9231980F4AB5";
shapes = (
{
closed = 1;
nodes = (
(177,0,l),
(177,316,l),
(530,316,l),
(530,0,l,{
name = hr00;
}),
(614,0,l),
(614,698,l),
(530,698,l),
(530,390,l),
(177,390,l),
(177,698,l),
(93,698,l),
(93,0,l)
);
}
);
width = 707;
},
{
anchors = (
{
name = bottom;
pos = (362,0);
},
{
name = center;
pos = (362,349);
},
{
name = top;
pos = (362,698);
},
{
name = topleft;
pos = (20,698);
}
);
layerId = "5E87F462-D40B-43EC-958D-42003ED2F346";
shapes = (
{
closed = 1;
nodes = (
(229,0,l),
(229,286,l),
(495,286,l),
(495,0,l),
(647,0,l),
(647,698,l),
(495,698,l),
(495,420,l),
(229,420,l),
(229,698,l),
(77,698,l),
(77,0,l)
);
}
);
width = 724;
},
{
anchors = (
{
name = bottom;
pos = (346,0);
},
{
name = center;
pos = (346,349);
},
{
name = top;
pos = (346,698);
},
{
name = topleft;
pos = (20,698);
}
);
layerId = "D69F2138-E7D7-470A-972F-2AC6B0C54BA2";
shapes = (
{
closed = 1;
nodes = (
(130,0,l),
(130,344,l),
(562,344,l),
(562,0,l),
(584,0,l),
(584,698,l),
(562,698,l),
(562,364,l),
(130,364,l),
(130,698,l),
(108,698,l),
(108,0,l)
);
}
);
width = 692;
}
);
unicode = 72;
},
{
glyphname = Hbar;
lastChange = "2019-12-09 08:04:08 +0000";
layers = (
{
layerId = "E49AE6DE-96A1-45B5-978D-9231980F4AB5";
shapes = (
{
closed = 1;
nodes = (
(180,0,l),
(180,316,l),
(533,316,l),
(533,0,l,{
name = hr00;
}),
(617,0,l),
(617,518,l),
(686,518,l),
(686,582,l),
(617,582,l),
(617,698,l),
(533,698,l),
(533,582,l),
(180,582,l),
(180,698,l),
(96,698,l),
(96,582,l),
(27,582,l),
(27,518,l),
(96,518,l),
(96,0,l)
);
},
{
closed = 1;
nodes = (
(180,518,l),
(533,518,l),
(533,390,l),
(180,390,l)
);
}
);
width = 713;
},
{
layerId = "5E87F462-D40B-43EC-958D-42003ED2F346";
shapes = (
{
closed = 1;
nodes = (
(234,0,l),
(234,286,l),
(500,286,l),
(500,0,l),
(652,0,l),
(652,506,l),
(726,506,l),
(726,620,l),
(652,620,l),
(652,698,l),
(500,698,l),
(500,620,l),
(234,620,l),
(234,698,l),
(82,698,l),
(82,620,l),
(8,620,l),
(8,506,l),
(82,506,l),
(82,0,l)
);
},
{
closed = 1;
nodes = (
(234,506,l),
(500,506,l),
(500,420,l),
(234,420,l)
);
}
);
width = 734;
},
{
layerId = "D69F2138-E7D7-470A-972F-2AC6B0C54BA2";
shapes = (
{
closed = 1;
nodes = (
(133,0,l),
(133,344,l),
(565,344,l),
(565,0,l),
(587,0,l),
(587,537,l),
(670,537,l),
(670,556,l),
(587,556,l),
(587,698,l),
(565,698,l),
(565,556,l),
(133,556,l),
(133,698,l),
(111,698,l),
(111,556,l),
(28,556,l),
(28,537,l),
(111,537,l),
(111,0,l)
);
},
{
closed = 1;
nodes = (
(133,537,l),
(565,537,l),
(565,364,l),
(133,364,l)
);
}
);
width = 698;
}
);
unicode = 294;
},
{
glyphname = Hcircumflex;
lastChange = "2019-12-12 08:26:42 +0000";
layers = (
{
anchors = (
{
name = bottom;
pos = (354,0);
}
);
layerId = "E49AE6DE-96A1-45B5-978D-9231980F4AB5";
shapes = (
{
ref = H;
},
{
pos = (54,0);
ref = circumflex.case;
}
);
width = 707;
},
{
anchors = (
{
name = bottom;
pos = (354,0);
}
);
background = {
shapes = (
{
closed = 1;
nodes = (
(229,0,l),
(229,286,l),
(495,286,l),
(495,0,l),
(647,0,l),
(647,698,l),
(495,698,l),
(495,420,l),
(229,420,l),
(229,698,l),
(77,698,l),
(77,0,l)
);
},
{
closed = 1;
nodes = (
(362,854,l),
(483,739,l),
(556,797,l),
(424,956,l),
(300,956,l),
(168,797,l),
(241,739,l)
);
}
);
};
layerId = "5E87F462-D40B-43EC-958D-42003ED2F346";
shapes = (
{
ref = H;
},
{
pos = (62,0);
ref = circumflex.case;
}
);
width = 724;
},
{
anchors = (
{
name = bottom;
pos = (354,0);
}
);
background = {
shapes = (
{
closed = 1;
nodes = (
(130,0,l),
(130,344,l),
(562,344,l),
(562,0,l),
(584,0,l),
(584,698,l),
(562,698,l),
(562,364,l),
(130,364,l),
(130,698,l),
(108,698,l),
(108,0,l)
);
},
{
closed = 1;
nodes = (
(346,906,l),
(472,779,l),
(486,790,l),
(358,923,l),
(334,923,l),
(206,790,l),
(220,779,l)
);
}
);
};
layerId = "D69F2138-E7D7-470A-972F-2AC6B0C54BA2";
shapes = (
{
ref = H;
},
{
pos = (46,0);
ref = circumflex.case;
}
);
width = 692;
}
);
unicode = 292;
userData = {
com.typemytype.robofont.mark = (
0.6,
0.986,
1,
1
);
};
},
{
glyphname = I;
kernLeft = latn_uc_i;
kernRight = latn_uc_i;
lastChange = "2023-02-21 09:59:45 +0000";
layers = (
{
anchors = (
{
name = bottom;
pos = (200,0);
},
{
name = bottomright;
pos = (340,0);
},
{
name = top;
pos = (200,698);
}
);
layerId = "E49AE6DE-96A1-45B5-978D-9231980F4AB5";
shapes = (
{
closed = 1;
nodes = (
(340,0,l,{
name = hr00;
}),
(340,70,l),
(242,70,l),
(242,628,l),
(340,628,l),
(340,698,l),
(60,698,l),
(60,628,l),
(158,628,l),
(158,70,l),
(60,70,l),
(60,0,l)
);
}
);
width = 400;
},
{
anchors = (
{
name = bottom;
pos = (216,0);
},
{
name = bottomright;
pos = (382,0);
},
{
name = top;
pos = (216,698);
}
);
layerId = "5E87F462-D40B-43EC-958D-42003ED2F346";
shapes = (
{
closed = 1;
nodes = (
(382,0,l),
(382,121,l),
(292,121,l),
(292,577,l),
(382,577,l),
(382,698,l),
(50,698,l),
(50,577,l),
(140,577,l),
(140,121,l),
(50,121,l),
(50,0,l)
);
}
);
width = 432;
},
{
anchors = (
{
name = bottom;
pos = (186,0);
},
{
name = bottomright;
pos = (304,0);
},
{
name = top;
pos = (186,698);
}
);
layerId = "D69F2138-E7D7-470A-972F-2AC6B0C54BA2";
shapes = (
{
closed = 1;
nodes = (
(304,0,l),
(304,19,l),
(197,19,l),
(197,679,l),
(304,679,l),
(304,698,l),
(68,698,l),
(68,679,l),
(175,679,l),
(175,19,l),
(68,19,l),
(68,0,l)
);
}
);
width = 372;
}
);
unicode = 73;
},
{
glyphname = IJ;
kernLeft = latn_uc_u;
kernRight = latn_uc_u;
lastChange = "2023-02-21 09:59:45 +0000";
layers = (
{
layerId = "E49AE6DE-96A1-45B5-978D-9231980F4AB5";
shapes = (
{
closed = 1;
nodes = (
(468,-12,o),
(557,78,o),
(557,225,cs),
(557,698,l),
(321,698,l),
(321,623,l),
(473,623,l),
(473,208,ls),
(473,109,o),
(416,63,o),
(323,63,cs),
(229,63,o),
(184,110,o),
(169,172,c),
(93,154,l),
(113,59,o),
(187,-12,o),
(320,-12,cs,{
name = hr00;
})
);
},
{
closed = 1;
nodes = (
(172,290,l),
(172,698,l),
(88,698,l),
(88,290,l)
);
}
);
width = 645;
},
{
layerId = "5E87F462-D40B-43EC-958D-42003ED2F346";
shapes = (
{
closed = 1;
nodes = (
(482,-11,o),
(583,74,o),
(583,210,cs),
(583,698,l),
(343,698,l),
(343,576,l),
(431,576,l),
(431,219,ls),
(431,149,o),
(381,122,o),
(329,122,cs),
(272,122,o),
(233,154,o),
(222,213,c),
(80,185,l),
(100,68,o),
(182,-11,o),
(330,-11,cs)
);
},
{
closed = 1;
nodes = (
(225,309,l),
(225,698,l),
(73,698,l),
(73,309,l)
);
}
);
width = 656;
},
{
layerId = "D69F2138-E7D7-470A-972F-2AC6B0C54BA2";
shapes = (
{
closed = 1;
nodes = (
(453,-12,o),
(531,64,o),
(531,202,cs),
(531,698,l),
(313,698,l),
(313,678,l),
(509,678,l),
(509,202,ls),
(509,77,o),
(438,8,o),
(310,8,cs),
(201,8,o),
(146,48,o),
(119,139,c),
(100,133,l),
(124,33,o),
(188,-12,o),
(310,-12,cs)
);
},
{
closed = 1;
nodes = (
(122,290,l),
(122,698,l),
(100,698,l),
(100,290,l)
);
}
);
width = 631;
}
);
unicode = 306;
},
{
glyphname = Iacute;
kernLeft = latn_uc_i;
kernRight = latn_uc_i;
lastChange = "2023-02-21 09:59:45 +0000";
layers = (
{
anchors = (
{
name = bottom;
pos = (200,0);
},
{
name = bottomright;
pos = (340,0);
}
);
layerId = "E49AE6DE-96A1-45B5-978D-9231980F4AB5";
shapes = (
{
ref = I;
},
{
pos = (-100,0);
ref = acute.case;
}
);
width = 400;
},
{
anchors = (
{
name = bottom;
pos = (200,0);
},
{
name = bottomright;
pos = (382,0);
}
);
background = {
shapes = (
{
closed = 1;
nodes = (
(382,0,l),
(382,121,l),
(292,121,l),
(292,577,l),
(382,577,l),
(382,698,l),
(50,698,l),
(50,577,l),
(140,577,l),
(140,121,l),
(50,121,l),
(50,0,l)
);
},
{
closed = 1;
nodes = (
(366,916,l),
(243,977,l),
(144,783,l),
(232,740,l)
);
}
);
};
layerId = "5E87F462-D40B-43EC-958D-42003ED2F346";
shapes = (
{
ref = I;
},
{
pos = (-85,0);
ref = acute.case;
}
);
width = 432;
},
{
anchors = (
{
name = bottom;
pos = (200,0);
},
{
name = bottomright;
pos = (304,0);
}
);
background = {
shapes = (
{
closed = 1;
nodes = (
(304,0,l),
(304,19,l),
(197,19,l),
(197,679,l),
(304,679,l),
(304,698,l),
(68,698,l),
(68,679,l),
(175,679,l),
(175,19,l),
(68,19,l),
(68,0,l)
);
},
{
closed = 1;
nodes = (
(282,919,l),
(263,931,l),
(152,777,l),
(167,767,l)
);
}
);
};
layerId = "D69F2138-E7D7-470A-972F-2AC6B0C54BA2";
shapes = (
{
ref = I;
},
{
pos = (-114,0);
ref = acute.case;
}
);
width = 372;
}
);
unicode = 205;
userData = {
com.typemytype.robofont.mark = (
0.6,
0.986,
1,
1
);
};
},
{
glyphname = Ibreve;
kernLeft = latn_uc_i;
kernRight = latn_uc_i;
lastChange = "2023-02-21 09:59:45 +0000";
layers = (
{
anchors = (
{
name = bottom;
pos = (200,0);
},
{
name = bottomright;
pos = (340,0);
}
);
layerId = "E49AE6DE-96A1-45B5-978D-9231980F4AB5";
shapes = (
{
ref = I;
},
{
pos = (-100,0);
ref = breve.case;
}
);
width = 400;
},
{
anchors = (
{
name = bottom;
pos = (200,0);
},
{
name = bottomright;
pos = (382,0);
}
);
background = {
shapes = (
{
closed = 1;
nodes = (
(382,0,l),
(382,121,l),
(292,121,l),
(292,577,l),
(382,577,l),
(382,698,l),
(50,698,l),
(50,577,l),
(140,577,l),
(140,121,l),
(50,121,l),
(50,0,l)
);
},
{
closed = 1;
nodes = (
(329,740,o),
(382,838,o),
(406,910,c),
(326,952,l),
(307,920,ls),
(278,871,o),
(253,843,o),
(216,843,cs),
(179,843,o),
(155,871,o),
(126,920,cs),
(107,952,l),
(26,910,l),
(50,838,o),
(98,740,o),
(216,740,cs)
);
}
);
};
layerId = "5E87F462-D40B-43EC-958D-42003ED2F346";
shapes = (
{
ref = I;
},
{
pos = (-84,0);
ref = breve.case;
}
);
width = 432;
},
{
anchors = (
{
name = bottom;
pos = (200,0);
},
{
name = bottomright;
pos = (304,0);
}
);
background = {
shapes = (
{
closed = 1;
nodes = (
(304,0,l),
(304,19,l),
(197,19,l),
(197,679,l),
(304,679,l),
(304,698,l),
(68,698,l),
(68,679,l),
(175,679,l),
(175,19,l),
(68,19,l),
(68,0,l)
);
},
{
closed = 1;
nodes = (
(253,786,o),
(280,830,o),
(317,903,c),
(301,910,l),
(286,883,ls),
(251,820,o),
(229,805,o),
(185,805,cs),
(141,805,o),
(119,820,o),
(84,883,cs),
(69,910,l),
(53,903,l),
(90,830,o),
(117,786,o),
(185,786,cs)
);
}
);
};
layerId = "D69F2138-E7D7-470A-972F-2AC6B0C54BA2";
shapes = (
{
ref = I;
},
{
pos = (-114,0);
ref = breve.case;
}
);
width = 372;
}
);
unicode = 300;
userData = {
com.typemytype.robofont.mark = (
0.6,
0.986,
1,
1
);
};
},
{
glyphname = Icircumflex;
kernLeft = latn_uc_i;
kernRight = latn_uc_i;
lastChange = "2023-02-21 09:59:45 +0000";
layers = (
{
anchors = (
{
name = bottom;
pos = (200,0);
},
{
name = bottomright;
pos = (340,0);
}
);
layerId = "E49AE6DE-96A1-45B5-978D-9231980F4AB5";
shapes = (
{
ref = I;
},
{
pos = (-100,0);
ref = circumflex.case;
}
);
width = 400;
},
{
anchors = (
{
name = bottom;
pos = (200,0);
},
{
name = bottomright;
pos = (382,0);
}
);
background = {
shapes = (
{
closed = 1;
nodes = (
(382,0,l),
(382,121,l),
(292,121,l),
(292,577,l),
(382,577,l),
(382,698,l),
(50,698,l),
(50,577,l),
(140,577,l),
(140,121,l),
(50,121,l),
(50,0,l)
);
},
{
closed = 1;
nodes = (
(216,854,l),
(337,739,l),
(410,797,l),
(278,956,l),
(154,956,l),
(22,797,l),
(95,739,l)
);
}
);
};
layerId = "5E87F462-D40B-43EC-958D-42003ED2F346";
shapes = (
{
ref = I;
},
{
pos = (-84,0);
ref = circumflex.case;
}
);
width = 432;
},
{
anchors = (
{
name = bottom;
pos = (200,0);
},
{
name = bottomright;
pos = (304,0);
}
);
background = {
shapes = (
{
closed = 1;
nodes = (
(304,0,l),
(304,19,l),
(197,19,l),
(197,679,l),
(304,679,l),
(304,698,l),
(68,698,l),
(68,679,l),
(175,679,l),
(175,19,l),
(68,19,l),
(68,0,l)
);
},
{
closed = 1;
nodes = (
(185,906,l),
(311,779,l),
(325,790,l),
(197,923,l),
(173,923,l),
(45,790,l),
(59,779,l)
);
}
);
};
layerId = "D69F2138-E7D7-470A-972F-2AC6B0C54BA2";
shapes = (
{
ref = I;
},
{
pos = (-114,0);
ref = circumflex.case;
}
);
width = 372;
}
);
unicode = 206;
userData = {
com.typemytype.robofont.mark = (
0.6,
0.986,
1,
1
);
};
},
{
glyphname = Idieresis;
kernLeft = latn_uc_i;
kernRight = latn_uc_i;
lastChange = "2023-02-21 09:59:45 +0000";
layers = (
{
anchors = (
{
name = bottom;
pos = (200,0);
},
{
name = bottomright;
pos = (340,0);
}
);
layerId = "E49AE6DE-96A1-45B5-978D-9231980F4AB5";
shapes = (
{
ref = I;
},
{
pos = (-100,0);
ref = dieresis.case;
}
);
width = 400;
},
{
anchors = (
{
name = bottom;
pos = (200,0);
},
{
name = bottomright;
pos = (382,0);
}
);
background = {
shapes = (
{
closed = 1;
nodes = (
(382,0,l),
(382,121,l),
(292,121,l),
(292,577,l),
(382,577,l),
(382,698,l),
(50,698,l),
(50,577,l),
(140,577,l),
(140,121,l),
(50,121,l),
(50,0,l)
);
},
{
closed = 1;
nodes = (
(166,761,o),
(186,789,o),
(186,824,cs),
(186,849,ls),
(186,884,o),
(166,912,o),
(106,912,cs),
(46,912,o),
(26,884,o),
(26,849,cs),
(26,824,ls),
(26,789,o),
(46,761,o),
(106,761,cs)
);
},
{
closed = 1;
nodes = (
(386,761,o),
(406,789,o),
(406,824,cs),
(406,849,ls),
(406,884,o),
(386,912,o),
(326,912,cs),
(266,912,o),
(246,884,o),
(246,849,cs),
(246,824,ls),
(246,789,o),
(266,761,o),
(326,761,cs)
);
}
);
};
layerId = "5E87F462-D40B-43EC-958D-42003ED2F346";
shapes = (
{
ref = I;
},
{
pos = (-84,0);
ref = dieresis.case;
}
);
width = 432;
},
{
anchors = (
{
name = bottom;
pos = (200,0);
},
{
name = bottomright;
pos = (304,0);
}
);
background = {
shapes = (
{
closed = 1;
nodes = (
(304,0,l),
(304,19,l),
(197,19,l),
(197,679,l),
(304,679,l),
(304,698,l),
(68,698,l),
(68,679,l),
(175,679,l),
(175,19,l),
(68,19,l),
(68,0,l)
);
},
{
closed = 1;
nodes = (
(111,819,o),
(117,829,o),
(117,840,cs),
(117,847,ls),
(117,858,o),
(111,868,o),
(94,868,cs),
(77,868,o),
(71,858,o),
(71,847,cs),
(71,840,ls),
(71,829,o),
(77,819,o),
(94,819,cs)
);
},
{
closed = 1;
nodes = (
(293,819,o),
(299,829,o),
(299,840,cs),
(299,847,ls),
(299,858,o),
(293,868,o),
(276,868,cs),
(259,868,o),
(253,858,o),
(253,847,cs),
(253,840,ls),
(253,829,o),
(259,819,o),
(276,819,cs)
);
}
);
};
layerId = "D69F2138-E7D7-470A-972F-2AC6B0C54BA2";
shapes = (
{
ref = I;
},
{
pos = (-114,0);
ref = dieresis.case;
}
);
width = 372;
}
);
unicode = 207;
userData = {
com.typemytype.robofont.mark = (
0.6,
0.986,
1,
1
);
};
},
{
glyphname = Idotaccent;
kernLeft = latn_uc_i;
kernRight = latn_uc_i;
lastChange = "2023-02-21 09:59:45 +0000";
layers = (
{
anchors = (
{
name = bottom;
pos = (200,0);
},
{
name = bottomright;
pos = (340,0);
}
);
layerId = "E49AE6DE-96A1-45B5-978D-9231980F4AB5";
shapes = (
{
ref = I;
},
{
pos = (-100,0);
ref = dotaccent.case;
}
);
width = 400;
},
{
anchors = (
{
name = bottom;
pos = (200,0);
},
{
name = bottomright;
pos = (382,0);
}
);
background = {
shapes = (
{
closed = 1;
nodes = (
(382,0,l),
(382,121,l),
(292,121,l),
(292,577,l),
(382,577,l),
(382,698,l),
(50,698,l),
(50,577,l),
(140,577,l),
(140,121,l),
(50,121,l),
(50,0,l)
);
},
{
closed = 1;
nodes = (
(282,752,o),
(305,783,o),
(305,822,cs),
(305,851,ls),
(305,890,o),
(282,921,o),
(216,921,cs),
(150,921,o),
(127,890,o),
(127,851,cs),
(127,822,ls),
(127,783,o),
(150,752,o),
(216,752,cs)
);
}
);
};
layerId = "5E87F462-D40B-43EC-958D-42003ED2F346";
shapes = (
{
ref = I;
},
{
pos = (-84,0);
ref = dotaccent.case;
}
);
width = 432;
},
{
anchors = (
{
name = bottom;
pos = (200,0);
},
{
name = bottomright;
pos = (304,0);
}
);
background = {
shapes = (
{
closed = 1;
nodes = (
(304,0,l),
(304,19,l),
(197,19,l),
(197,679,l),
(304,679,l),
(304,698,l),
(68,698,l),
(68,679,l),
(175,679,l),
(175,19,l),
(68,19,l),
(68,0,l)
);
},
{
closed = 1;
nodes = (
(202,822,o),
(208,832,o),
(208,843,cs),
(208,850,ls),
(208,861,o),
(202,871,o),
(185,871,cs),
(168,871,o),
(162,861,o),
(162,850,cs),
(162,843,ls),
(162,832,o),
(168,822,o),
(185,822,cs)
);
}
);
};
layerId = "D69F2138-E7D7-470A-972F-2AC6B0C54BA2";
shapes = (
{
ref = I;
},
{
pos = (-114,0);
ref = dotaccent.case;
}
);
width = 372;
}
);
unicode = 304;
userData = {
com.typemytype.robofont.mark = (
0.6,
0.986,
1,
1
);
};
},
{
glyphname = Idotbelow;
kernLeft = latn_uc_i;
kernRight = latn_uc_i;
lastChange = "2023-02-21 09:59:45 +0000";
layers = (
{
anchors = (
{
name = bottomright;
pos = (340,0);
},
{
name = top;
pos = (200,698);
}
);
layerId = "E49AE6DE-96A1-45B5-978D-9231980F4AB5";
shapes = (
{
ref = I;
},
{
pos = (200,0);
ref = dotbelowcomb;
}
);
width = 400;
},
{
anchors = (
{
name = bottomright;
pos = (382,0);
},
{
name = top;
pos = (200,698);
}
);
background = {
shapes = (
{
closed = 1;
nodes = (
(382,0,l),
(382,121,l),
(292,121,l),
(292,577,l),
(382,577,l),
(382,698,l),
(50,698,l),
(50,577,l),
(140,577,l),
(140,121,l),
(50,121,l),
(50,0,l)
);
},
{
closed = 1;
nodes = (
(275,-204,o),
(297,-176,o),
(297,-141,cs),
(297,-115,ls),
(297,-80,o),
(275,-52,o),
(216,-52,cs),
(157,-52,o),
(135,-80,o),
(135,-115,cs),
(135,-141,ls),
(135,-176,o),
(157,-204,o),
(216,-204,cs)
);
}
);
};
layerId = "5E87F462-D40B-43EC-958D-42003ED2F346";
shapes = (
{
ref = I;
},
{
pos = (216,0);
ref = dotbelowcomb;
}
);
width = 432;
},
{
anchors = (
{
name = bottomright;
pos = (304,0);
},
{
name = top;
pos = (200,698);
}
);
background = {
shapes = (
{
closed = 1;
nodes = (
(304,0,l),
(304,19,l),
(197,19,l),
(197,679,l),
(304,679,l),
(304,698,l),
(68,698,l),
(68,679,l),
(175,679,l),
(175,19,l),
(68,19,l),
(68,0,l)
);
},
{
closed = 1;
nodes = (
(202,-134,o),
(208,-124,o),
(208,-113,cs),
(208,-106,ls),
(208,-95,o),
(202,-85,o),
(185,-85,cs),
(168,-85,o),
(162,-95,o),
(162,-106,cs),
(162,-113,ls),
(162,-124,o),
(168,-134,o),
(185,-134,cs)
);
}
);
};
layerId = "D69F2138-E7D7-470A-972F-2AC6B0C54BA2";
shapes = (
{
ref = I;
},
{
pos = (186,0);
ref = dotbelowcomb;
}
);
width = 372;
}
);
unicode = 7882;
userData = {
com.typemytype.robofont.mark = (
0.6,
0.986,
1,
1
);
};
},
{
glyphname = Igrave;
kernLeft = latn_uc_i;
kernRight = latn_uc_i;
lastChange = "2023-02-21 09:59:45 +0000";
layers = (
{
anchors = (
{
name = bottom;
pos = (200,0);
},
{
name = bottomright;
pos = (340,0);
}
);
layerId = "E49AE6DE-96A1-45B5-978D-9231980F4AB5";
shapes = (
{
ref = I;
},
{
pos = (-100,0);
ref = grave.case;
}
);
width = 400;
},
{
anchors = (
{
name = bottom;
pos = (200,0);
},
{
name = bottomright;
pos = (382,0);
}
);
background = {
shapes = (
{
closed = 1;
nodes = (
(382,0,l),
(382,121,l),
(292,121,l),
(292,577,l),
(382,577,l),
(382,698,l),
(50,698,l),
(50,577,l),
(140,577,l),
(140,121,l),
(50,121,l),
(50,0,l)
);
},
{
closed = 1;
nodes = (
(288,783,l),
(189,977,l),
(66,916,l),
(200,740,l)
);
}
);
};
layerId = "5E87F462-D40B-43EC-958D-42003ED2F346";
shapes = (
{
ref = I;
},
{
pos = (-84,0);
ref = grave.case;
}
);
width = 432;
},
{
anchors = (
{
name = bottom;
pos = (200,0);
},
{
name = bottomright;
pos = (304,0);
}
);
background = {
shapes = (
{
closed = 1;
nodes = (
(304,0,l),
(304,19,l),
(197,19,l),
(197,679,l),
(304,679,l),
(304,698,l),
(68,698,l),
(68,679,l),
(175,679,l),
(175,19,l),
(68,19,l),
(68,0,l)
);
},
{
closed = 1;
nodes = (
(217,777,l),
(106,931,l),
(87,919,l),
(202,767,l)
);
}
);
};
layerId = "D69F2138-E7D7-470A-972F-2AC6B0C54BA2";
shapes = (
{
ref = I;
},
{
pos = (-114,0);
ref = grave.case;
}
);
width = 372;
}
);
unicode = 204;
userData = {
com.typemytype.robofont.mark = (
0.6,
0.986,
1,
1
);
};
},
{
glyphname = Ihookabove;
kernRight = uc_i;
lastChange = "2019-12-12 13:31:24 +0000";
layers = (
{
anchors = (
{
name = bottom;
pos = (200,0);
},
{
name = bottomright;
pos = (340,0);
}
);
layerId = "E49AE6DE-96A1-45B5-978D-9231980F4AB5";
shapes = (
{
ref = I;
},
{
pos = (200,170);
ref = hookabovecomb;
}
);
width = 400;
},
{
anchors = (
{
name = bottom;
pos = (200,0);
},
{
name = bottomright;
pos = (382,0);
}
);
background = {
shapes = (
{
closed = 1;
nodes = (
(382,0,l),
(382,121,l),
(292,121,l),
(292,577,l),
(382,577,l),
(382,698,l),
(50,698,l),
(50,577,l),
(140,577,l),
(140,121,l),
(50,121,l),
(50,0,l)
);
},
{
closed = 1;
nodes = (
(280,764,ls),
(313,804,o),
(337,851,o),
(337,890,cs),
(337,929,o),
(314,963,o),
(239,963,cs),
(96,963,l),
(96,857,l),
(218,857,l),
(177,765,l),
(252,730,l)
);
}
);
};
layerId = "5E87F462-D40B-43EC-958D-42003ED2F346";
shapes = (
{
ref = I;
},
{
pos = (216,159);
ref = hookabovecomb;
}
);
width = 432;
},
{
anchors = (
{
name = bottom;
pos = (200,0);
},
{
name = bottomright;
pos = (304,0);
}
);
background = {
shapes = (
{
closed = 1;
nodes = (
(304,0,l),
(304,19,l),
(197,19,l),
(197,679,l),
(304,679,l),
(304,698,l),
(68,698,l),
(68,679,l),
(175,679,l),
(175,19,l),
(68,19,l),
(68,0,l)
);
},
{
closed = 1;
nodes = (
(240,841,ls),
(266,881,o),
(271,891,o),
(271,899,cs),
(271,910,o),
(263,917,o),
(248,917,cs),
(111,917,l),
(111,899,l),
(252,899,l),
(175,773,l),
(191,765,l)
);
}
);
};
layerId = "D69F2138-E7D7-470A-972F-2AC6B0C54BA2";
shapes = (
{
ref = I;
},
{
pos = (185,180);
ref = hookabovecomb;
}
);
width = 372;
}
);
unicode = 7880;
userData = {
com.typemytype.robofont.mark = (
0.6,
0.986,
1,
1
);
};
},
{
glyphname = Imacron;
kernLeft = latn_uc_i;
kernRight = latn_uc_i;
lastChange = "2023-02-21 09:59:45 +0000";
layers = (
{
anchors = (
{
name = bottom;
pos = (200,0);
},
{
name = bottomright;
pos = (340,0);
}
);
layerId = "E49AE6DE-96A1-45B5-978D-9231980F4AB5";
shapes = (
{
ref = I;
},
{
pos = (-100,0);
ref = macron.case;
}
);
width = 400;
},
{
anchors = (
{
name = bottom;
pos = (200,0);
},
{
name = bottomright;
pos = (382,0);
}
);
background = {
shapes = (
{
closed = 1;
nodes = (
(382,0,l),
(382,121,l),
(292,121,l),
(292,577,l),
(382,577,l),
(382,698,l),
(50,698,l),
(50,577,l),
(140,577,l),
(140,121,l),
(50,121,l),
(50,0,l)
);
},
{
closed = 1;
nodes = (
(369,785,l),
(369,888,l),
(63,888,l),
(63,785,l)
);
}
);
};
layerId = "5E87F462-D40B-43EC-958D-42003ED2F346";
shapes = (
{
ref = I;
},
{
pos = (-84,0);
ref = macron.case;
}
);
width = 432;
},
{
anchors = (
{
name = bottom;
pos = (200,0);
},
{
name = bottomright;
pos = (304,0);
}
);
background = {
shapes = (
{
closed = 1;
nodes = (
(304,0,l),
(304,19,l),
(197,19,l),
(197,679,l),
(304,679,l),
(304,698,l),
(68,698,l),
(68,679,l),
(175,679,l),
(175,19,l),
(68,19,l),
(68,0,l)
);
},
{
closed = 1;
nodes = (
(314,838,l),
(314,856,l),
(56,856,l),
(56,838,l)
);
}
);
};
layerId = "D69F2138-E7D7-470A-972F-2AC6B0C54BA2";
shapes = (
{
ref = I;
},
{
pos = (-114,0);
ref = macron.case;
}
);
width = 372;
}
);
unicode = 298;
userData = {
com.typemytype.robofont.mark = (
0.6,
0.986,
1,
1
);
};
},
{
glyphname = Iogonek;
kernLeft = latn_uc_i;
kernRight = latn_uc_i;
lastChange = "2023-02-21 09:59:45 +0000";
layers = (
{
layerId = "E49AE6DE-96A1-45B5-978D-9231980F4AB5";
shapes = (
{
closed = 1;
nodes = (
(319,-207,o),
(349,-189,o),
(361,-168,c),
(321,-129,l),
(309,-144,o),
(292,-153,o),
(273,-153,cs),
(255,-153,o),
(242,-145,o),
(242,-123,cs),
(242,-101,o),
(255,-78,o),
(340,0,c),
(340,70,l),
(242,70,l),
(242,628,l),
(340,628,l),
(340,698,l),
(60,698,l),
(60,628,l),
(158,628,l,{
name = hr01;
}),
(158,70,l),
(60,70,l),
(60,0,l),
(278,0,l),
(279,-5,l),
(216,-47,o),
(178,-81,o),
(178,-131,cs),
(178,-184,o),
(221,-207,o),
(273,-207,cs)
);
}
);
width = 400;
},
{
layerId = "5E87F462-D40B-43EC-958D-42003ED2F346";
shapes = (
{
closed = 1;
nodes = (
(356,-212,o),
(398,-193,o),
(415,-161,c),
(362,-110,l),
(348,-126,o),
(331,-138,o),
(307,-138,cs),
(287,-138,o),
(269,-130,o),
(269,-105,cs),
(269,-81,o),
(285,-60,o),
(383,0,c),
(383,121,l),
(292,121,l),
(292,577,l),
(383,577,l),
(383,698,l),
(50,698,l),
(50,577,l),
(140,577,l),
(140,121,l),
(50,121,l),
(50,0,l),
(287,0,l),
(288,-4,l),
(214,-38,o),
(169,-71,o),
(169,-127,cs),
(169,-191,o),
(227,-212,o),
(293,-212,cs)
);
}
);
width = 432;
},
{
layerId = "D69F2138-E7D7-470A-972F-2AC6B0C54BA2";
shapes = (
{
closed = 1;
nodes = (
(279,-202,o),
(305,-188,o),
(318,-170,c),
(304,-159,l),
(294,-171,o),
(276,-184,o),
(244,-184,cs),
(209,-184,o),
(185,-169,o),
(185,-132,cs),
(185,-82,o),
(225,-51,o),
(304,0,c),
(304,19,l),
(197,19,l),
(197,679,l),
(304,679,l),
(304,698,l),
(68,698,l),
(68,679,l),
(175,679,l),
(175,19,l),
(68,19,l),
(68,0,l),
(275,0,l),
(276,-3,l),
(189,-54,o),
(164,-97,o),
(164,-135,cs),
(164,-179,o),
(198,-202,o),
(243,-202,cs)
);
}
);
width = 372;
}
);
unicode = 302;
},
{
glyphname = Itilde;
kernLeft = latn_uc_i;
kernRight = latn_uc_i;
lastChange = "2023-02-21 09:59:45 +0000";
layers = (
{
anchors = (
{
name = bottom;
pos = (200,0);
},
{
name = bottomright;
pos = (340,0);
}
);
layerId = "E49AE6DE-96A1-45B5-978D-9231980F4AB5";
shapes = (
{
ref = I;
},
{
pos = (-100,0);
ref = tilde.case;
}
);
width = 400;
},
{
anchors = (
{
name = bottom;
pos = (200,0);
},
{
name = bottomright;
pos = (382,0);
}
);
background = {
shapes = (
{
closed = 1;
nodes = (
(382,0,l),
(382,121,l),
(292,121,l),
(292,577,l),
(382,577,l),
(382,698,l),
(50,698,l),
(50,577,l),
(140,577,l),
(140,121,l),
(50,121,l),
(50,0,l)
);
},
{
closed = 1;
nodes = (
(345,762,o),
(382,790,o),
(406,826,c),
(354,894,l),
(333,877,o),
(318,869,o),
(295,869,cs),
(269,869,o),
(246,879,o),
(217,891,cs),
(192,902,o),
(170,911,o),
(140,911,cs),
(87,911,o),
(50,883,o),
(26,847,c),
(78,779,l),
(99,796,o),
(114,804,o),
(137,804,cs),
(163,804,o),
(186,794,o),
(215,782,cs),
(240,771,o),
(262,762,o),
(292,762,cs)
);
}
);
};
layerId = "5E87F462-D40B-43EC-958D-42003ED2F346";
shapes = (
{
ref = I;
},
{
pos = (-84,0);
ref = tilde.case;
}
);
width = 432;
},
{
anchors = (
{
name = bottom;
pos = (200,0);
},
{
name = bottomright;
pos = (304,0);
}
);
background = {
shapes = (
{
closed = 1;
nodes = (
(304,0,l),
(304,19,l),
(197,19,l),
(197,679,l),
(304,679,l),
(304,698,l),
(68,698,l),
(68,679,l),
(175,679,l),
(175,19,l),
(68,19,l),
(68,0,l)
);
},
{
closed = 1;
nodes = (
(284,808,o),
(310,820,o),
(334,847,c),
(322,859,l),
(301,837,o),
(281,826,o),
(257,826,cs),
(238,826,o),
(220,833,o),
(191,852,cs),
(157,874,o),
(137,882,o),
(114,882,cs),
(86,882,o),
(60,870,o),
(36,843,c),
(48,831,l),
(69,853,o),
(89,864,o),
(113,864,cs),
(132,864,o),
(150,857,o),
(179,838,cs),
(213,816,o),
(233,808,o),
(256,808,cs)
);
}
);
};
layerId = "D69F2138-E7D7-470A-972F-2AC6B0C54BA2";
shapes = (
{
ref = I;
},
{
pos = (-114,0);
ref = tilde.case;
}
);
width = 372;
}
);
unicode = 296;
userData = {
com.typemytype.robofont.mark = (
0.6,
0.986,
1,
1
);
};
},
{
glyphname = J;
kernLeft = latn_uc_j;
kernRight = latn_uc_j;
lastChange = "2023-02-21 09:59:45 +0000";
layers = (
{
anchors = (
{
name = bottom;
pos = (225,0);
},
{
name = top;
pos = (263,698);
}
);
layerId = "E49AE6DE-96A1-45B5-978D-9231980F4AB5";
shapes = (
{
closed = 1;
nodes = (
(340,-12,o),
(422,63,o),
(422,181,cs),
(422,698,l),
(98,698,l,{
name = hr00;
}),
(98,624,l),
(338,624,l),
(338,196,ls),
(338,107,o),
(296,63,o),
(224,63,cs),
(153,63,o),
(117,105,o),
(104,165,c),
(28,147,l),
(47,52,o),
(114,-12,o),
(222,-12,cs)
);
}
);
width = 510;
},
{
anchors = (
{
name = bottom;
pos = (266,0);
},
{
name = top;
pos = (305,698);
}
);
layerId = "5E87F462-D40B-43EC-958D-42003ED2F346";
shapes = (
{
closed = 1;
nodes = (
(400,-11,o),
(486,74,o),
(486,202,cs),
(486,698,l),
(122,698,l),
(122,576,l),
(334,576,l),
(334,209,ls),
(334,149,o),
(298,122,o),
(254,122,cs),
(207,122,o),
(178,154,o),
(167,213,c),
(25,185,l),
(45,68,o),
(118,-11,o),
(256,-11,cs)
);
}
);
width = 559;
},
{
anchors = (
{
name = bottom;
pos = (206,0);
},
{
name = top;
pos = (232,698);
}
);
layerId = "D69F2138-E7D7-470A-972F-2AC6B0C54BA2";
shapes = (
{
closed = 1;
nodes = (
(299,-12,o),
(364,55,o),
(364,183,cs),
(364,698,l),
(96,698,l),
(96,678,l),
(342,678,l),
(342,183,ls),
(342,71,o),
(292,8,o),
(192,8,cs),
(115,8,o),
(60,56,o),
(41,119,c),
(22,113,l),
(40,39,o),
(109,-12,o),
(192,-12,cs)
);
}
);
width = 464;
}
);
unicode = 74;
},
{
glyphname = Jacute;
kernLeft = latn_uc_j;
kernRight = latn_uc_j;
lastChange = "2023-02-21 09:59:45 +0000";
layers = (
{
anchors = (
{
name = bottom;
pos = (225,0);
}
);
layerId = "E49AE6DE-96A1-45B5-978D-9231980F4AB5";
shapes = (
{
ref = J;
},
{
pos = (-37,0);
ref = acute.case;
}
);
width = 510;
},
{
anchors = (
{
name = bottom;
pos = (265,0);
}
);
background = {
shapes = (
{
closed = 1;
nodes = (
(400,-11,o),
(486,74,o),
(486,202,cs),
(486,698,l),
(122,698,l),
(122,576,l),
(334,576,l),
(334,209,ls),
(334,149,o),
(298,122,o),
(254,122,cs),
(207,122,o),
(178,154,o),
(167,213,c),
(25,185,l),
(45,68,o),
(118,-11,o),
(256,-11,cs)
);
},
{
closed = 1;
nodes = (
(453,916,l),
(330,977,l),
(231,783,l),
(319,740,l)
);
}
);
};
layerId = "5E87F462-D40B-43EC-958D-42003ED2F346";
shapes = (
{
ref = J;
},
{
pos = (4,0);
ref = acute.case;
}
);
width = 559;
},
{
anchors = (
{
name = bottom;
pos = (196,0);
}
);
background = {
shapes = (
{
closed = 1;
nodes = (
(299,-12,o),
(364,55,o),
(364,183,cs),
(364,698,l),
(96,698,l),
(96,678,l),
(342,678,l),
(342,183,ls),
(342,71,o),
(292,8,o),
(192,8,cs),
(115,8,o),
(60,56,o),
(41,119,c),
(22,113,l),
(40,39,o),
(109,-12,o),
(192,-12,cs)
);
},
{
closed = 1;
nodes = (
(329,919,l),
(310,931,l),
(199,777,l),
(214,767,l)
);
}
);
};
layerId = "D69F2138-E7D7-470A-972F-2AC6B0C54BA2";
shapes = (
{
ref = J;
},
{
pos = (-68,0);
ref = acute.case;
}
);
width = 464;
}
);
userData = {
com.typemytype.robofont.mark = (
0.6,
0.986,
1,
1
);
};
},
{
glyphname = Jcircumflex;
kernLeft = latn_uc_j;
kernRight = latn_uc_j;
lastChange = "2023-02-21 09:59:45 +0000";
layers = (
{
anchors = (
{
name = bottom;
pos = (225,0);
}
);
layerId = "E49AE6DE-96A1-45B5-978D-9231980F4AB5";
shapes = (
{
ref = J;
},
{
pos = (-37,0);
ref = circumflex.case;
}
);
width = 510;
},
{
anchors = (
{
name = bottom;
pos = (225,0);
}
);
background = {
shapes = (
{
closed = 1;
nodes = (
(400,-11,o),
(486,74,o),
(486,202,cs),
(486,698,l),
(122,698,l),
(122,576,l),
(334,576,l),
(334,209,ls),
(334,149,o),
(298,122,o),
(254,122,cs),
(207,122,o),
(178,154,o),
(167,213,c),
(25,185,l),
(45,68,o),
(118,-11,o),
(256,-11,cs)
);
},
{
closed = 1;
nodes = (
(303,854,l),
(424,739,l),
(497,797,l),
(365,956,l),
(241,956,l),
(109,797,l),
(182,739,l)
);
}
);
};
layerId = "5E87F462-D40B-43EC-958D-42003ED2F346";
shapes = (
{
ref = J;
},
{
pos = (5,0);
ref = circumflex.case;
}
);
width = 559;
},
{
anchors = (
{
name = bottom;
pos = (225,0);
}
);
background = {
shapes = (
{
closed = 1;
nodes = (
(299,-12,o),
(364,55,o),
(364,183,cs),
(364,698,l),
(96,698,l),
(96,678,l),
(342,678,l),
(342,183,ls),
(342,71,o),
(292,8,o),
(192,8,cs),
(115,8,o),
(60,56,o),
(41,119,c),
(22,113,l),
(40,39,o),
(109,-12,o),
(192,-12,cs)
);
},
{
closed = 1;
nodes = (
(232,906,l),
(358,779,l),
(372,790,l),
(244,923,l),
(220,923,l),
(92,790,l),
(106,779,l)
);
}
);
};
layerId = "D69F2138-E7D7-470A-972F-2AC6B0C54BA2";
shapes = (
{
ref = J;
},
{
pos = (-68,0);
ref = circumflex.case;
}
);
width = 464;
}
);
unicode = 308;
userData = {
com.typemytype.robofont.mark = (
0.6,
0.986,
1,
1
);
};
},
{
glyphname = K;
kernRight = latn_uc_k;
lastChange = "2023-02-21 09:59:45 +0000";
layers = (
{
anchors = (
{
name = bottom;
pos = (336,0);
},
{
name = top;
pos = (321,698);
}
);
layerId = "E49AE6DE-96A1-45B5-978D-9231980F4AB5";
shapes = (
{
closed = 1;
nodes = (
(177,0,l),
(177,233,l),
(276,343,l),
(508,0,l,{
name = hr00;
}),
(612,0,l),
(334,399,l),
(594,698,l),
(491,698,l),
(280,448,l),
(180,327,l),
(177,327,l),
(177,698,l),
(93,698,l),
(93,0,l)
);
}
);
width = 634;
},
{
anchors = (
{
name = bottom;
pos = (365,0);
},
{
name = top;
pos = (348,698);
}
);
layerId = "5E87F462-D40B-43EC-958D-42003ED2F346";
shapes = (
{
closed = 1;
nodes = (
(229,0,l),
(229,194,l),
(320,304,l),
(505,0,l),
(684,0,l),
(428,411,l),
(663,698,l),
(491,698,l),
(334,501,l),
(235,366,l),
(229,366,l),
(229,698,l),
(77,698,l),
(77,0,l)
);
}
);
width = 696;
},
{
anchors = (
{
name = bottom;
pos = (314,0);
},
{
name = top;
pos = (286,698);
}
);
layerId = "D69F2138-E7D7-470A-972F-2AC6B0C54BA2";
shapes = (
{
closed = 1;
nodes = (
(130,0,l),
(130,239,l),
(265,387,l),
(526,0,l),
(552,0,l),
(280,403,l),
(549,698,l),
(521,698,l),
(262,413,l),
(132,271,l),
(130,271,l),
(130,698,l),
(108,698,l),
(108,0,l)
);
}
);
width = 572;
}
);
unicode = 75;
},
{
glyphname = Kcommaaccent;
kernRight = latn_uc_k;
lastChange = "2023-02-21 09:59:45 +0000";
layers = (
{
anchors = (
{
name = top;
pos = (321,698);
}
);
layerId = "E49AE6DE-96A1-45B5-978D-9231980F4AB5";
shapes = (
{
ref = K;
},
{
pos = (336,0);
ref = commaaccentcomb;
}
);
width = 634;
},
{
anchors = (
{
name = top;
pos = (321,698);
}
);
background = {
shapes = (
{
closed = 1;
nodes = (
(229,0,l),
(229,194,l),
(320,304,l),
(505,0,l),
(684,0,l),
(428,411,l),
(663,698,l),
(491,698,l),
(334,501,l),
(235,366,l),
(229,366,l),
(229,698,l),
(77,698,l),
(77,0,l)
);
},
{
closed = 1;
nodes = (
(367,-275,l),
(405,-242,o),
(434,-179,o),
(434,-118,cs),
(434,-104,ls),
(434,-64,o),
(408,-42,o),
(364,-42,cs),
(320,-42,o),
(294,-64,o),
(294,-104,cs),
(294,-115,ls),
(294,-144,o),
(306,-173,o),
(344,-176,c),
(334,-216,o),
(316,-246,o),
(282,-275,c)
);
}
);
};
layerId = "5E87F462-D40B-43EC-958D-42003ED2F346";
shapes = (
{
ref = K;
},
{
pos = (365,0);
ref = commaaccentcomb;
}
);
width = 696;
},
{
anchors = (
{
name = top;
pos = (321,698);
}
);
background = {
shapes = (
{
closed = 1;
nodes = (
(130,0,l),
(130,239,l),
(265,387,l),
(526,0,l),
(552,0,l),
(280,403,l),
(549,698,l),
(521,698,l),
(262,413,l),
(132,271,l),
(130,271,l),
(130,698,l),
(108,698,l),
(108,0,l)
);
},
{
closed = 1;
nodes = (
(292,-212,l),
(318,-183,o),
(337,-133,o),
(337,-99,cs),
(337,-88,ls),
(337,-75,o),
(331,-66,o),
(315,-66,cs),
(297,-66,o),
(291,-75,o),
(291,-88,cs),
(291,-96,ls),
(291,-107,o),
(297,-116,o),
(319,-116,c),
(316,-138,o),
(303,-180,o),
(274,-212,c)
);
}
);
};
layerId = "D69F2138-E7D7-470A-972F-2AC6B0C54BA2";
shapes = (
{
ref = K;
},
{
pos = (314,0);
ref = commaaccentcomb;
}
);
width = 572;
}
);
unicode = 310;
userData = {
com.typemytype.robofont.mark = (
0.6,
0.986,
1,
1
);
};
},
{
glyphname = L;
kernRight = latn_uc_l;
lastChange = "2023-02-21 09:59:45 +0000";
layers = (
{
anchors = (
{
name = bottom;
pos = (298,0);
},
{
name = top;
pos = (135,698);
},
{
name = topright;
pos = (255,740);
}
);
layerId = "E49AE6DE-96A1-45B5-978D-9231980F4AB5";
shapes = (
{
closed = 1;
nodes = (
(474,0,l,{
name = hr00;
}),
(474,74,l),
(177,74,l),
(177,698,l),
(93,698,l),
(93,0,l)
);
}
);
width = 501;
},
{
anchors = (
{
name = bottom;
pos = (286,0);
},
{
name = top;
pos = (157,698);
},
{
name = topright;
pos = (295,742);
}
);
layerId = "5E87F462-D40B-43EC-958D-42003ED2F346";
shapes = (
{
closed = 1;
nodes = (
(495,0,l),
(495,135,l),
(229,135,l),
(229,698,l),
(77,698,l),
(77,0,l)
);
}
);
width = 530;
},
{
anchors = (
{
name = bottom;
pos = (292,0);
},
{
name = top;
pos = (118,698);
},
{
name = topright;
pos = (234,740);
}
);
layerId = "D69F2138-E7D7-470A-972F-2AC6B0C54BA2";
shapes = (
{
closed = 1;
nodes = (
(455,0,l),
(455,20,l),
(130,20,l),
(130,698,l),
(108,698,l),
(108,0,l)
);
}
);
width = 475;
}
);
unicode = 76;
},
{
glyphname = Lacute;
kernRight = latn_uc_l;
lastChange = "2023-02-21 09:59:45 +0000";
layers = (
{
anchors = (
{
name = bottom;
pos = (298,0);
},
{
name = topright;
pos = (255,740);
}
);
layerId = "E49AE6DE-96A1-45B5-978D-9231980F4AB5";
shapes = (
{
ref = L;
},
{
pos = (-165,0);
ref = acute.case;
}
);
width = 501;
},
{
anchors = (
{
name = bottom;
pos = (298,0);
},
{
name = topright;
pos = (255,740);
}
);
background = {
shapes = (
{
closed = 1;
nodes = (
(495,0,l),
(495,135,l),
(229,135,l),
(229,698,l),
(77,698,l),
(77,0,l)
);
},
{
closed = 1;
nodes = (
(303,916,l),
(180,977,l),
(81,783,l),
(169,740,l)
);
}
);
};
layerId = "5E87F462-D40B-43EC-958D-42003ED2F346";
shapes = (
{
ref = L;
},
{
pos = (-144,0);
ref = acute.case;
}
);
width = 530;
},
{
anchors = (
{
name = bottom;
pos = (298,0);
},
{
name = topright;
pos = (255,740);
}
);
background = {
shapes = (
{
closed = 1;
nodes = (
(455,0,l),
(455,20,l),
(130,20,l),
(130,698,l),
(108,698,l),
(108,0,l)
);
},
{
closed = 1;
nodes = (
(216,919,l),
(197,931,l),
(86,777,l),
(101,767,l)
);
}
);
};
layerId = "D69F2138-E7D7-470A-972F-2AC6B0C54BA2";
shapes = (
{
ref = L;
},
{
pos = (-182,0);
ref = acute.case;
}
);
width = 475;
}
);
unicode = 313;
userData = {
com.typemytype.robofont.mark = (
0.6,
0.986,
1,
1
);
};
},
{
glyphname = Lcaron;
kernRight = latn_uc_l;
lastChange = "2023-02-21 09:59:45 +0000";
layers = (
{
anchors = (
{
name = bottom;
pos = (298,0);
},
{
name = top;
pos = (135,698);
}
);
layerId = "E49AE6DE-96A1-45B5-978D-9231980F4AB5";
shapes = (
{
ref = L;
},
{
pos = (-45,0);
ref = apostrophemod;
}
);
width = 501;
},
{
anchors = (
{
name = bottom;
pos = (298,0);
},
{
name = top;
pos = (135,698);
}
);
background = {
shapes = (
{
closed = 1;
nodes = (
(495,0,l),
(495,135,l),
(229,135,l),
(229,698,l),
(77,698,l),
(77,0,l)
);
},
{
closed = 1;
nodes = (
(398,525,l),
(464,740,l),
(307,740,l),
(301,525,l)
);
}
);
};
layerId = "5E87F462-D40B-43EC-958D-42003ED2F346";
shapes = (
{
ref = L;
},
{
pos = (164,2);
ref = apostrophemod;
}
);
width = 530;
},
{
anchors = (
{
name = bottom;
pos = (298,0);
},
{
name = top;
pos = (135,698);
}
);
background = {
shapes = (
{
closed = 1;
nodes = (
(455,0,l),
(455,20,l),
(130,20,l),
(130,698,l),
(108,698,l),
(108,0,l)
);
},
{
closed = 1;
nodes = (
(247,564,l),
(271,740,l),
(246,740,l),
(230,564,l)
);
}
);
};
layerId = "D69F2138-E7D7-470A-972F-2AC6B0C54BA2";
shapes = (
{
ref = L;
},
{
pos = (-7,0);
ref = apostrophemod;
}
);
width = 475;
}
);
unicode = 317;
userData = {
com.typemytype.robofont.mark = (
0.6,
0.986,
1,
1
);
};
},
{
glyphname = Lcommaaccent;
kernRight = latn_uc_l;
lastChange = "2023-02-21 09:59:45 +0000";
layers = (
{
anchors = (
{
name = top;
pos = (135,698);
},
{
name = topright;
pos = (255,740);
}
);
layerId = "E49AE6DE-96A1-45B5-978D-9231980F4AB5";
shapes = (
{
ref = L;
},
{
pos = (298,0);
ref = commaaccentcomb;
}
);
width = 501;
},
{
anchors = (
{
name = top;
pos = (135,698);
},
{
name = topright;
pos = (255,740);
}
);
background = {
shapes = (
{
closed = 1;
nodes = (
(495,0,l),
(495,135,l),
(229,135,l),
(229,698,l),
(77,698,l),
(77,0,l)
);
},
{
closed = 1;
nodes = (
(288,-275,l),
(326,-242,o),
(355,-179,o),
(355,-118,cs),
(355,-104,ls),
(355,-64,o),
(329,-42,o),
(285,-42,cs),
(241,-42,o),
(215,-64,o),
(215,-104,cs),
(215,-115,ls),
(215,-144,o),
(227,-173,o),
(265,-176,c),
(255,-216,o),
(237,-246,o),
(203,-275,c)
);
}
);
};
layerId = "5E87F462-D40B-43EC-958D-42003ED2F346";
shapes = (
{
ref = L;
},
{
pos = (286,0);
ref = commaaccentcomb;
}
);
width = 530;
},
{
anchors = (
{
name = top;
pos = (135,698);
},
{
name = topright;
pos = (255,740);
}
);
background = {
shapes = (
{
closed = 1;
nodes = (
(455,0,l),
(455,20,l),
(130,20,l),
(130,698,l),
(108,698,l),
(108,0,l)
);
},
{
closed = 1;
nodes = (
(270,-212,l),
(296,-183,o),
(315,-133,o),
(315,-99,cs),
(315,-88,ls),
(315,-75,o),
(309,-66,o),
(293,-66,cs),
(275,-66,o),
(269,-75,o),
(269,-88,cs),
(269,-96,ls),
(269,-107,o),
(275,-116,o),
(297,-116,c),
(294,-138,o),
(281,-180,o),
(252,-212,c)
);
}
);
};
layerId = "D69F2138-E7D7-470A-972F-2AC6B0C54BA2";
shapes = (
{
ref = L;
},
{
pos = (292,0);
ref = commaaccentcomb;
}
);
width = 475;
}
);
unicode = 315;
userData = {
com.typemytype.robofont.mark = (
0.6,
0.986,
1,
1
);
};
},
{
glyphname = Ldot;
lastChange = "2019-12-12 09:19:56 +0000";
layers = (
{
anchors = (
{
name = bottom;
pos = (298,0);
},
{
name = topright;
pos = (255,740);
}
);
layerId = "E49AE6DE-96A1-45B5-978D-9231980F4AB5";
shapes = (
{
alignment = -1;
ref = L;
},
{
alignment = -1;
pos = (85,-324);
ref = dotaccent;
}
);
width = 501;
},
{
anchors = (
{
name = bottom;
pos = (298,0);
},
{
name = topright;
pos = (255,740);
}
);
background = {
shapes = (
{
closed = 1;
nodes = (
(495,0,l),
(495,135,l),
(229,135,l),
(229,698,l),
(77,698,l),
(77,0,l)
);
},
{
closed = 1;
nodes = (
(480,321,o),
(503,352,o),
(503,391,cs),
(503,420,ls),
(503,459,o),
(480,490,o),
(414,490,cs),
(348,490,o),
(325,459,o),
(325,420,cs),
(325,391,ls),
(325,352,o),
(348,321,o),
(414,321,cs)
);
}
);
};
layerId = "5E87F462-D40B-43EC-958D-42003ED2F346";
shapes = (
{
alignment = -1;
ref = L;
},
{
alignment = -1;
pos = (114,-270);
ref = dotaccent;
}
);
width = 530;
},
{
anchors = (
{
name = bottom;
pos = (298,0);
},
{
name = topright;
pos = (255,740);
}
);
background = {
shapes = (
{
closed = 1;
nodes = (
(455,0,l),
(455,20,l),
(130,20,l),
(130,698,l),
(108,698,l),
(108,0,l)
);
},
{
closed = 1;
nodes = (
(376,270,o),
(382,280,o),
(382,291,cs),
(382,298,ls),
(382,309,o),
(376,319,o),
(359,319,cs),
(342,319,o),
(336,309,o),
(336,298,cs),
(336,291,ls),
(336,280,o),
(342,270,o),
(359,270,cs)
);
}
);
};
layerId = "D69F2138-E7D7-470A-972F-2AC6B0C54BA2";
shapes = (
{
alignment = -1;
ref = L;
},
{
alignment = -1;
pos = (59,-372);
ref = dotaccent;
}
);
width = 475;
}
);
unicode = 319;
userData = {
com.typemytype.robofont.mark = (
0.6,
0.986,
1,
1
);
};
},
{
glyphname = Lslash;
kernRight = latn_uc_l;
lastChange = "2023-02-21 09:59:45 +0000";
layers = (
{
layerId = "E49AE6DE-96A1-45B5-978D-9231980F4AB5";
shapes = (
{
closed = 1;
nodes = (
(477,0,l),
(477,75,l,{
name = hr00;
}),
(180,75,l),
(180,298,l),
(361,357,l),
(361,428,l),
(180,367,l),
(180,698,l),
(96,698,l),
(96,339,l),
(-7,304,l),
(-7,237,l),
(96,271,l),
(96,0,l)
);
}
);
width = 508;
},
{
layerId = "5E87F462-D40B-43EC-958D-42003ED2F346";
shapes = (
{
closed = 1;
nodes = (
(500,0,l),
(500,135,l),
(234,135,l),
(234,291,l),
(392,342,l),
(392,455,l),
(234,404,l),
(234,698,l),
(82,698,l),
(82,356,l),
(-7,327,l),
(-7,214,l),
(82,243,l),
(82,0,l)
);
}
);
width = 540;
},
{
layerId = "D69F2138-E7D7-470A-972F-2AC6B0C54BA2";
shapes = (
{
closed = 1;
nodes = (
(458,0,l),
(458,20,l),
(133,20,l),
(133,310,l),
(337,374,l),
(337,394,l),
(133,330,l),
(133,698,l),
(111,698,l),
(111,323,l),
(14,292,l),
(14,272,l),
(111,303,l),
(111,0,l)
);
}
);
width = 478;
}
);
unicode = 321;
},
{
glyphname = M;
lastChange = "2019-12-09 12:23:57 +0000";
layers = (
{
anchors = (
{
name = bottom;
pos = (406,0);
},
{
name = top;
pos = (406,698);
}
);
layerId = "E49AE6DE-96A1-45B5-978D-9231980F4AB5";
shapes = (
{
closed = 1;
nodes = (
(175,0,l),
(175,588,l),
(180,588,l),
(239,471,l),
(406,167,l),
(573,471,l),
(632,588,l),
(637,588,l),
(637,0,l),
(719,0,l),
(719,698,l),
(611,698,l),
(410,322,l),
(405,322,l),
(205,698,l),
(93,698,l),
(93,0,l,{
name = hr00;
})
);
}
);
width = 812;
},
{
anchors = (
{
name = bottom;
pos = (410,0);
},
{
name = top;
pos = (410,698);
}
);
layerId = "5E87F462-D40B-43EC-958D-42003ED2F346";
shapes = (
{
closed = 1;
nodes = (
(220,0,l),
(220,465,l),
(223,465,l),
(276,355,l),
(409,109,l),
(545,356,l),
(596,458,l),
(599,458,l),
(599,0,l),
(742,0,l),
(742,698,l),
(580,698,l),
(411,371,l),
(409,371,l),
(238,698,l),
(77,698,l),
(77,0,l)
);
}
);
width = 819;
},
{
anchors = (
{
name = bottom;
pos = (398,0);
},
{
name = top;
pos = (398,698);
}
);
layerId = "D69F2138-E7D7-470A-972F-2AC6B0C54BA2";
shapes = (
{
closed = 1;
nodes = (
(129,0,l),
(129,673,l),
(132,673,l),
(232,508,l),
(398,236,l),
(563,507,l),
(664,673,l),
(667,673,l),
(667,0,l),
(688,0,l),
(688,698,l),
(655,698,l),
(400,278,l),
(397,278,l),
(141,698,l),
(108,698,l),
(108,0,l)
);
}
);
width = 796;
}
);
unicode = 77;
},
{
glyphname = N;
lastChange = "2019-12-09 12:24:35 +0000";
layers = (
{
anchors = (
{
name = bottom;
pos = (353,0);
},
{
name = top;
pos = (353,698);
}
);
layerId = "E49AE6DE-96A1-45B5-978D-9231980F4AB5";
shapes = (
{
closed = 1;
nodes = (
(175,0,l),
(175,581,l),
(178,581,l),
(262,426,l),
(517,0,l,{
name = hr00;
}),
(614,0,l),
(614,698,l),
(532,698,l),
(532,117,l),
(529,117,l),
(445,272,l),
(190,698,l),
(93,698,l),
(93,0,l)
);
}
);
width = 707;
},
{
anchors = (
{
name = bottom;
pos = (362,0);
},
{
name = top;
pos = (362,698);
}
);
layerId = "5E87F462-D40B-43EC-958D-42003ED2F346";
shapes = (
{
closed = 1;
nodes = (
(220,0,l),
(220,470,l),
(223,470,l),
(290,330,l),
(481,0,l),
(647,0,l),
(647,698,l),
(504,698,l),
(504,228,l),
(501,228,l),
(434,368,l),
(243,698,l),
(77,698,l),
(77,0,l)
);
}
);
width = 724;
},
{
anchors = (
{
name = bottom;
pos = (346,0);
},
{
name = top;
pos = (346,698);
}
);
layerId = "D69F2138-E7D7-470A-972F-2AC6B0C54BA2";
shapes = (
{
closed = 1;
nodes = (
(129,0,l),
(129,671,l),
(132,671,l),
(235,506,l),
(552,0,l),
(584,0,l),
(584,698,l),
(563,698,l),
(563,27,l),
(560,27,l),
(375,323,l),
(140,698,l),
(108,698,l),
(108,0,l)
);
}
);
width = 692;
}
);
unicode = 78;
},
{
glyphname = Nacute;
lastChange = "2019-12-12 09:20:18 +0000";
layers = (
{
anchors = (
{
name = bottom;
pos = (353,0);
}
);
layerId = "E49AE6DE-96A1-45B5-978D-9231980F4AB5";
shapes = (
{
ref = N;
},
{
pos = (53,0);
ref = acute.case;
}
);
width = 707;
},
{
anchors = (
{
name = bottom;
pos = (353,0);
}
);
background = {
shapes = (
{
closed = 1;
nodes = (
(220,0,l),
(220,470,l),
(223,470,l),
(290,330,l),
(481,0,l),
(647,0,l),
(647,698,l),
(504,698,l),
(504,228,l),
(501,228,l),
(434,368,l),
(243,698,l),
(77,698,l),
(77,0,l)
);
},
{
closed = 1;
nodes = (
(511,916,l),
(388,977,l),
(289,783,l),
(377,740,l)
);
}
);
};
layerId = "5E87F462-D40B-43EC-958D-42003ED2F346";
shapes = (
{
ref = N;
},
{
pos = (61,0);
ref = acute.case;
}
);
width = 724;
},
{
anchors = (
{
name = bottom;
pos = (353,0);
}
);
background = {
shapes = (
{
closed = 1;
nodes = (
(129,0,l),
(129,671,l),
(132,671,l),
(552,0,l),
(584,0,l),
(584,698,l),
(563,698,l),
(563,27,l),
(560,27,l),
(140,698,l),
(108,698,l),
(108,0,l)
);
},
{
closed = 1;
nodes = (
(443,919,l),
(424,931,l),
(313,777,l),
(328,767,l)
);
}
);
};
layerId = "D69F2138-E7D7-470A-972F-2AC6B0C54BA2";
shapes = (
{
ref = N;
},
{
pos = (46,0);
ref = acute.case;
}
);
width = 692;
}
);
unicode = 323;
userData = {
com.typemytype.robofont.mark = (
0.6,
0.986,
1,
1
);
};
},
{
glyphname = Ncaron;
lastChange = "2019-12-12 09:20:27 +0000";
layers = (
{
anchors = (
{
name = bottom;
pos = (353,0);
}
);
layerId = "E49AE6DE-96A1-45B5-978D-9231980F4AB5";
shapes = (
{
ref = N;
},
{
pos = (53,0);
ref = caron.case;
}
);
width = 707;
},
{
anchors = (
{
name = bottom;
pos = (353,0);
}
);
background = {
shapes = (
{
closed = 1;
nodes = (
(220,0,l),
(220,470,l),
(223,470,l),
(290,330,l),
(481,0,l),
(647,0,l),
(647,698,l),
(504,698,l),
(504,228,l),
(501,228,l),
(434,368,l),
(243,698,l),
(77,698,l),
(77,0,l)
);
},
{
closed = 1;
nodes = (
(423,748,l),
(555,907,l),
(482,965,l),
(361,850,l),
(240,965,l),
(167,907,l),
(299,748,l)
);
}
);
};
layerId = "5E87F462-D40B-43EC-958D-42003ED2F346";
shapes = (
{
ref = N;
},
{
pos = (62,0);
ref = caron.case;
}
);
width = 724;
},
{
anchors = (
{
name = bottom;
pos = (353,0);
}
);
background = {
shapes = (
{
closed = 1;
nodes = (
(129,0,l),
(129,671,l),
(132,671,l),
(552,0,l),
(584,0,l),
(584,698,l),
(563,698,l),
(563,27,l),
(560,27,l),
(140,698,l),
(108,698,l),
(108,0,l)
);
},
{
closed = 1;
nodes = (
(358,783,l),
(486,916,l),
(472,927,l),
(346,800,l),
(220,927,l),
(206,916,l),
(334,783,l)
);
}
);
};
layerId = "D69F2138-E7D7-470A-972F-2AC6B0C54BA2";
shapes = (
{
ref = N;
},
{
pos = (46,0);
ref = caron.case;
}
);
width = 692;
}
);
unicode = 327;
userData = {
com.typemytype.robofont.mark = (
0.6,
0.986,
1,
1
);
};
},
{
glyphname = Ncommaaccent;
lastChange = "2019-12-12 09:20:38 +0000";
layers = (
{
anchors = (
{
name = top;
pos = (353,698);
}
);
layerId = "E49AE6DE-96A1-45B5-978D-9231980F4AB5";
shapes = (
{
ref = N;
},
{
pos = (353,0);
ref = commaaccentcomb;
}
);
width = 707;
},
{
anchors = (
{
name = top;
pos = (353,698);
}
);
background = {
shapes = (
{
closed = 1;
nodes = (
(220,0,l),
(220,470,l),
(223,470,l),
(290,330,l),
(481,0,l),
(647,0,l),
(647,698,l),
(504,698,l),
(504,228,l),
(501,228,l),
(434,368,l),
(243,698,l),
(77,698,l),
(77,0,l)
);
},
{
closed = 1;
nodes = (
(363,-275,l),
(401,-242,o),
(430,-179,o),
(430,-118,cs),
(430,-104,ls),
(430,-64,o),
(404,-42,o),
(360,-42,cs),
(316,-42,o),
(290,-64,o),
(290,-104,cs),
(290,-115,ls),
(290,-144,o),
(302,-173,o),
(340,-176,c),
(330,-216,o),
(312,-246,o),
(278,-275,c)
);
}
);
};
layerId = "5E87F462-D40B-43EC-958D-42003ED2F346";
shapes = (
{
ref = N;
},
{
pos = (362,0);
ref = commaaccentcomb;
}
);
width = 724;
},
{
anchors = (
{
name = top;
pos = (353,698);
}
);
background = {
shapes = (
{
closed = 1;
nodes = (
(129,0,l),
(129,671,l),
(132,671,l),
(552,0,l),
(584,0,l),
(584,698,l),
(563,698,l),
(563,27,l),
(560,27,l),
(140,698,l),
(108,698,l),
(108,0,l)
);
},
{
closed = 1;
nodes = (
(324,-212,l),
(350,-183,o),
(369,-133,o),
(369,-99,cs),
(369,-88,ls),
(369,-75,o),
(363,-66,o),
(347,-66,cs),
(329,-66,o),
(323,-75,o),
(323,-88,cs),
(323,-96,ls),
(323,-107,o),
(329,-116,o),
(351,-116,c),
(348,-138,o),
(335,-180,o),
(306,-212,c)
);
}
);
};
layerId = "D69F2138-E7D7-470A-972F-2AC6B0C54BA2";
shapes = (
{
ref = N;
},
{
pos = (346,0);
ref = commaaccentcomb;
}
);
width = 692;
}
);
unicode = 325;
userData = {
com.typemytype.robofont.mark = (
0.6,
0.986,
1,
1
);
};
},
{
glyphname = Ntilde;
lastChange = "2019-12-12 09:41:58 +0000";
layers = (
{
anchors = (
{
name = bottom;
pos = (353,0);
}
);
layerId = "E49AE6DE-96A1-45B5-978D-9231980F4AB5";
shapes = (
{
ref = N;
},
{
pos = (53,0);
ref = tilde.case;
}
);
width = 707;
},
{
anchors = (
{
name = bottom;
pos = (353,0);
}
);
background = {
shapes = (
{
closed = 1;
nodes = (
(220,0,l),
(220,470,l),
(223,470,l),
(290,330,l),
(481,0,l),
(647,0,l),
(647,698,l),
(504,698,l),
(504,228,l),
(501,228,l),
(434,368,l),
(243,698,l),
(77,698,l),
(77,0,l)
);
},
{
closed = 1;
nodes = (
(490,762,o),
(527,790,o),
(551,826,c),
(499,894,l),
(478,877,o),
(463,869,o),
(440,869,cs),
(414,869,o),
(391,879,o),
(362,891,cs),
(337,902,o),
(315,911,o),
(285,911,cs),
(232,911,o),
(195,883,o),
(171,847,c),
(223,779,l),
(244,796,o),
(259,804,o),
(282,804,cs),
(308,804,o),
(331,794,o),
(360,782,cs),
(385,771,o),
(407,762,o),
(437,762,cs)
);
}
);
};
layerId = "5E87F462-D40B-43EC-958D-42003ED2F346";
shapes = (
{
ref = N;
},
{
pos = (62,0);
ref = tilde.case;
}
);
width = 724;
},
{
anchors = (
{
name = bottom;
pos = (353,0);
}
);
layerId = "D69F2138-E7D7-470A-972F-2AC6B0C54BA2";
shapes = (
{
ref = N;
},
{
pos = (46,0);
ref = tilde.case;
}
);
width = 692;
}
);
unicode = 209;
userData = {
com.typemytype.robofont.mark = (
0.6,
0.986,
1,
1
);
};
},
{
glyphname = Eng;
lastChange = "2019-12-12 09:41:39 +0000";
layers = (
{
layerId = "E49AE6DE-96A1-45B5-978D-9231980F4AB5";
shapes = (
{
closed = 1;
nodes = (
(500,-200,ls),
(577,-200,o),
(614,-149,o),
(614,-75,cs),
(614,698,l),
(532,698,l),
(532,117,l),
(529,117,l),
(445,272,l),
(190,698,l),
(93,698,l),
(93,0,l),
(175,0,l,{
name = hr00;
}),
(175,581,l),
(178,581,l),
(262,426,l),
(517,0,l),
(532,0,l),
(532,-126,l),
(446,-126,l),
(446,-200,l)
);
}
);
width = 707;
},
{
layerId = "5E87F462-D40B-43EC-958D-42003ED2F346";
shapes = (
{
closed = 1;
nodes = (
(499,-200,ls),
(601,-200,o),
(647,-149,o),
(647,-56,cs),
(647,698,l),
(504,698,l),
(504,228,l),
(501,228,l),
(434,368,l),
(243,698,l),
(77,698,l),
(77,0,l),
(220,0,l),
(220,470,l),
(223,470,l),
(290,330,l),
(481,0,l),
(504,0,l),
(504,-85,l),
(420,-85,l),
(420,-200,l)
);
}
);
width = 724;
},
{
layerId = "D69F2138-E7D7-470A-972F-2AC6B0C54BA2";
shapes = (
{
closed = 1;
nodes = (
(555,-200,ls),
(575,-200,o),
(584,-191,o),
(584,-171,cs),
(584,698,l),
(563,698,l),
(563,27,l),
(560,27,l),
(343,373,l),
(140,698,l),
(108,698,l),
(108,0,l),
(129,0,l),
(129,671,l),
(132,671,l),
(351,321,l),
(552,0,l),
(563,0,l),
(563,-181,l),
(478,-181,l),
(478,-200,l)
);
}
);
width = 692;
}
);
unicode = 330;
},
{
glyphname = O;
kernLeft = latn_uc_o;
kernRight = latn_uc_o;
lastChange = "2023-02-21 09:59:45 +0000";
layers = (
{
anchors = (
{
name = bottom;
pos = (354,0);
},
{
name = top;
pos = (354,698);
}
);
layerId = "E49AE6DE-96A1-45B5-978D-9231980F4AB5";
shapes = (
{
closed = 1;
nodes = (
(534,-12,o),
(650,115,o),
(650,349,cs),
(650,583,o),
(534,710,o),
(354,710,cs),
(174,710,o),
(58,583,o),
(58,349,cs),
(58,115,o),
(174,-12,o),
(354,-12,cs,{
name = hr00;
})
);
},
{
closed = 1;
nodes = (
(233,63,o),
(148,153,o),
(148,291,cs),
(148,407,ls),
(148,545,o),
(233,635,o),
(354,635,cs),
(475,635,o),
(560,545,o),
(560,407,cs),
(560,291,ls),
(560,153,o),
(475,63,o),
(354,63,cs)
);
}
);
width = 708;
},
{
anchors = (
{
name = bottom;
pos = (357,0);
},
{
name = top;
pos = (357,698);
}
);
layerId = "5E87F462-D40B-43EC-958D-42003ED2F346";
shapes = (
{
closed = 1;
nodes = (
(542,-12,o),
(664,112,o),
(664,349,cs),
(664,586,o),
(542,710,o),
(357,710,cs),
(172,710,o),
(50,586,o),
(50,349,cs),
(50,112,o),
(172,-12,o),
(357,-12,cs)
);
},
{
closed = 1;
nodes = (
(266,123,o),
(211,186,o),
(211,297,cs),
(211,401,ls),
(211,512,o),
(266,575,o),
(357,575,cs),
(448,575,o),
(503,512,o),
(503,401,cs),
(503,297,ls),
(503,186,o),
(448,123,o),
(357,123,cs)
);
}
);
width = 714;
},
{
anchors = (
{
name = bottom;
pos = (340,0);
},
{
name = top;
pos = (340,698);
}
);
layerId = "D69F2138-E7D7-470A-972F-2AC6B0C54BA2";
shapes = (
{
closed = 1;
nodes = (
(513,-12,o),
(610,109,o),
(610,349,cs),
(610,589,o),
(513,710,o),
(340,710,cs),
(167,710,o),
(70,589,o),
(70,349,cs),
(70,109,o),
(167,-12,o),
(340,-12,cs)
);
},
{
closed = 1;
nodes = (
(187,8,o),
(94,117,o),
(94,328,cs),
(94,370,ls),
(94,581,o),
(187,690,o),
(340,690,cs),
(493,690,o),
(586,581,o),
(586,370,cs),
(586,328,ls),
(586,117,o),
(493,8,o),
(340,8,cs)
);
}
);
width = 680;
}
);
unicode = 79;
},
{
glyphname = Oacute;
kernLeft = latn_uc_o;
kernRight = latn_uc_o;
lastChange = "2023-02-21 09:59:45 +0000";
layers = (
{
layerId = "E49AE6DE-96A1-45B5-978D-9231980F4AB5";
shapes = (
{
ref = O;
},
{
pos = (54,0);
ref = acute.case;
}
);
width = 708;
},
{
background = {
shapes = (
{
closed = 1;
nodes = (
(542,-12,o),
(664,112,o),
(664,349,cs),
(664,586,o),
(542,710,o),
(357,710,cs),
(172,710,o),
(50,586,o),
(50,349,cs),
(50,112,o),
(172,-12,o),
(357,-12,cs)
);
},
{
closed = 1;
nodes = (
(266,123,o),
(211,186,o),
(211,297,cs),
(211,401,ls),
(211,512,o),
(266,575,o),
(357,575,cs),
(448,575,o),
(503,512,o),
(503,401,cs),
(503,297,ls),
(503,186,o),
(448,123,o),
(357,123,cs)
);
},
{
closed = 1;
nodes = (
(507,916,l),
(384,977,l),
(285,783,l),
(373,740,l)
);
}
);
};
layerId = "5E87F462-D40B-43EC-958D-42003ED2F346";
shapes = (
{
ref = O;
},
{
pos = (56,0);
ref = acute.case;
}
);
width = 714;
},
{
background = {
shapes = (
{
closed = 1;
nodes = (
(513,-12,o),
(610,109,o),
(610,349,cs),
(610,589,o),
(513,710,o),
(340,710,cs),
(167,710,o),
(70,589,o),
(70,349,cs),
(70,109,o),
(167,-12,o),
(340,-12,cs)
);
},
{
closed = 1;
nodes = (
(187,8,o),
(94,117,o),
(94,328,cs),
(94,370,ls),
(94,581,o),
(187,690,o),
(340,690,cs),
(493,690,o),
(586,581,o),
(586,370,cs),
(586,328,ls),
(586,117,o),
(493,8,o),
(340,8,cs)
);
},
{
closed = 1;
nodes = (
(437,919,l),
(418,931,l),
(307,777,l),
(322,767,l)
);
}
);
};
layerId = "D69F2138-E7D7-470A-972F-2AC6B0C54BA2";
shapes = (
{
ref = O;
},
{
pos = (40,0);
ref = acute.case;
}
);
width = 680;
}
);
unicode = 211;
userData = {
com.typemytype.robofont.mark = (
0.6,
0.986,
1,
1
);
};
},
{
glyphname = Obreve;
kernLeft = latn_uc_o;
kernRight = latn_uc_o;
lastChange = "2023-02-21 09:59:45 +0000";
layers = (
{
layerId = "E49AE6DE-96A1-45B5-978D-9231980F4AB5";
shapes = (
{
ref = O;
},
{
pos = (54,0);
ref = breve.case;
}
);
width = 708;
},
{
background = {
shapes = (
{
closed = 1;
nodes = (
(542,-12,o),
(664,112,o),
(664,349,cs),
(664,586,o),
(542,710,o),
(357,710,cs),
(172,710,o),
(50,586,o),
(50,349,cs),
(50,112,o),
(172,-12,o),
(357,-12,cs)
);
},
{
closed = 1;
nodes = (
(266,123,o),
(211,186,o),
(211,297,cs),
(211,401,ls),
(211,512,o),
(266,575,o),
(357,575,cs),
(448,575,o),
(503,512,o),
(503,401,cs),
(503,297,ls),
(503,186,o),
(448,123,o),
(357,123,cs)
);
},
{
closed = 1;
nodes = (
(470,740,o),
(523,838,o),
(547,910,c),
(467,952,l),
(448,920,ls),
(419,871,o),
(394,843,o),
(357,843,cs),
(320,843,o),
(296,871,o),
(267,920,cs),
(248,952,l),
(167,910,l),
(191,838,o),
(239,740,o),
(357,740,cs)
);
}
);
};
layerId = "5E87F462-D40B-43EC-958D-42003ED2F346";
shapes = (
{
ref = O;
},
{
pos = (57,0);
ref = breve.case;
}
);
width = 714;
},
{
background = {
shapes = (
{
closed = 1;
nodes = (
(513,-12,o),
(610,109,o),
(610,349,cs),
(610,589,o),
(513,710,o),
(340,710,cs),
(167,710,o),
(70,589,o),
(70,349,cs),
(70,109,o),
(167,-12,o),
(340,-12,cs)
);
},
{
closed = 1;
nodes = (
(187,8,o),
(94,117,o),
(94,328,cs),
(94,370,ls),
(94,581,o),
(187,690,o),
(340,690,cs),
(493,690,o),
(586,581,o),
(586,370,cs),
(586,328,ls),
(586,117,o),
(493,8,o),
(340,8,cs)
);
},
{
closed = 1;
nodes = (
(408,786,o),
(435,830,o),
(472,903,c),
(456,910,l),
(441,883,ls),
(406,820,o),
(384,805,o),
(340,805,cs),
(296,805,o),
(274,820,o),
(239,883,cs),
(224,910,l),
(208,903,l),
(245,830,o),
(272,786,o),
(340,786,cs)
);
}
);
};
layerId = "D69F2138-E7D7-470A-972F-2AC6B0C54BA2";
shapes = (
{
ref = O;
},
{
pos = (40,0);
ref = breve.case;
}
);
width = 680;
}
);
unicode = 334;
userData = {
com.typemytype.robofont.mark = (
0.6,
0.986,
1,
1
);
};
},
{
glyphname = Ocircumflex;
kernLeft = latn_uc_o;
kernRight = latn_uc_o;
lastChange = "2023-02-21 09:59:45 +0000";
layers = (
{
layerId = "E49AE6DE-96A1-45B5-978D-9231980F4AB5";
shapes = (
{
ref = O;
},
{
pos = (54,0);
ref = circumflex.case;
}
);
width = 708;
},
{
background = {
shapes = (
{
closed = 1;
nodes = (
(542,-12,o),
(664,112,o),
(664,349,cs),
(664,586,o),
(542,710,o),
(357,710,cs),
(172,710,o),
(50,586,o),
(50,349,cs),
(50,112,o),
(172,-12,o),
(357,-12,cs)
);
},
{
closed = 1;
nodes = (
(266,123,o),
(211,186,o),
(211,297,cs),
(211,401,ls),
(211,512,o),
(266,575,o),
(357,575,cs),
(448,575,o),
(503,512,o),
(503,401,cs),
(503,297,ls),
(503,186,o),
(448,123,o),
(357,123,cs)
);
},
{
closed = 1;
nodes = (
(357,854,l),
(478,739,l),
(551,797,l),
(419,956,l),
(295,956,l),
(163,797,l),
(236,739,l)
);
}
);
};
layerId = "5E87F462-D40B-43EC-958D-42003ED2F346";
shapes = (
{
ref = O;
},
{
pos = (57,0);
ref = circumflex.case;
}
);
width = 714;
},
{
background = {
shapes = (
{
closed = 1;
nodes = (
(513,-12,o),
(610,109,o),
(610,349,cs),
(610,589,o),
(513,710,o),
(340,710,cs),
(167,710,o),
(70,589,o),
(70,349,cs),
(70,109,o),
(167,-12,o),
(340,-12,cs)
);
},
{
closed = 1;
nodes = (
(187,8,o),
(94,117,o),
(94,328,cs),
(94,370,ls),
(94,581,o),
(187,690,o),
(340,690,cs),
(493,690,o),
(586,581,o),
(586,370,cs),
(586,328,ls),
(586,117,o),
(493,8,o),
(340,8,cs)
);
},
{
closed = 1;
nodes = (
(340,906,l),
(466,779,l),
(480,790,l),
(352,923,l),
(328,923,l),
(200,790,l),
(214,779,l)
);
}
);
};
layerId = "D69F2138-E7D7-470A-972F-2AC6B0C54BA2";
shapes = (
{
ref = O;
},
{
pos = (40,0);
ref = circumflex.case;
}
);
width = 680;
}
);
unicode = 212;
userData = {
com.typemytype.robofont.mark = (
0.6,
0.986,
1,
1
);
};
},
{
glyphname = Ocircumflexacute;
kernLeft = latn_uc_o;
kernRight = latn_uc_o;
lastChange = "2023-02-21 09:59:45 +0000";
layers = (
{
layerId = "E49AE6DE-96A1-45B5-978D-9231980F4AB5";
shapes = (
{
ref = O;
},
{
pos = (354,0);
ref = circumflexacute.case;
}
);
width = 708;
},
{
background = {
shapes = (
{
closed = 1;
nodes = (
(542,-12,o),
(664,112,o),
(664,349,cs),
(664,586,o),
(542,710,o),
(357,710,cs),
(172,710,o),
(50,586,o),
(50,349,cs),
(50,112,o),
(172,-12,o),
(357,-12,cs)
);
},
{
closed = 1;
nodes = (
(266,123,o),
(211,186,o),
(211,297,cs),
(211,401,ls),
(211,512,o),
(266,575,o),
(357,575,cs),
(448,575,o),
(503,512,o),
(503,401,cs),
(503,297,ls),
(503,186,o),
(448,123,o),
(357,123,cs)
);
},
{
closed = 1;
nodes = (
(357,835,l),
(481,731,l),
(549,795,l),
(404,942,l),
(310,942,l),
(165,795,l),
(233,731,l)
);
},
{
closed = 1;
nodes = (
(664,1070,l),
(550,1127,l),
(451,933,l),
(530,894,l)
);
}
);
};
layerId = "5E87F462-D40B-43EC-958D-42003ED2F346";
shapes = (
{
ref = O;
},
{
pos = (357,0);
ref = circumflexacute.case;
}
);
width = 714;
},
{
background = {
shapes = (
{
closed = 1;
nodes = (
(513,-12,o),
(610,109,o),
(610,349,cs),
(610,589,o),
(513,710,o),
(340,710,cs),
(167,710,o),
(70,589,o),
(70,349,cs),
(70,109,o),
(167,-12,o),
(340,-12,cs)
);
},
{
closed = 1;
nodes = (
(187,8,o),
(94,117,o),
(94,328,cs),
(94,370,ls),
(94,581,o),
(187,690,o),
(340,690,cs),
(493,690,o),
(586,581,o),
(586,370,cs),
(586,328,ls),
(586,117,o),
(493,8,o),
(340,8,cs)
);
},
{
closed = 1;
nodes = (
(340,898,l),
(466,771,l),
(480,782,l),
(352,915,l),
(328,915,l),
(200,782,l),
(214,771,l)
);
},
{
closed = 1;
nodes = (
(569,1029,l),
(550,1041,l),
(439,887,l),
(454,877,l)
);
}
);
};
layerId = "D69F2138-E7D7-470A-972F-2AC6B0C54BA2";
shapes = (
{
ref = O;
},
{
pos = (340,0);
ref = circumflexacute.case;
}
);
width = 680;
}
);
unicode = 7888;
userData = {
com.typemytype.robofont.mark = (
0.6,
0.986,
1,
1
);
};
},
{
glyphname = Ocircumflexdotbelow;
kernLeft = latn_uc_o;
kernRight = latn_uc_o;
lastChange = "2023-02-21 09:59:45 +0000";
layers = (
{
layerId = "E49AE6DE-96A1-45B5-978D-9231980F4AB5";
shapes = (
{
ref = O;
},
{
pos = (54,0);
ref = circumflex.case;
},
{
pos = (354,0);
ref = dotbelowcomb;
}
);
width = 708;
},
{
background = {
shapes = (
{
closed = 1;
nodes = (
(542,-12,o),
(664,112,o),
(664,349,cs),
(664,586,o),
(542,710,o),
(357,710,cs),
(172,710,o),
(50,586,o),
(50,349,cs),
(50,112,o),
(172,-12,o),
(357,-12,cs)
);
},
{
closed = 1;
nodes = (
(416,-204,o),
(438,-176,o),
(438,-141,cs),
(438,-115,ls),
(438,-80,o),
(416,-52,o),
(357,-52,cs),
(298,-52,o),
(276,-80,o),
(276,-115,cs),
(276,-141,ls),
(276,-176,o),
(298,-204,o),
(357,-204,cs)
);
},
{
closed = 1;
nodes = (
(266,123,o),
(211,186,o),
(211,297,cs),
(211,401,ls),
(211,512,o),
(266,575,o),
(357,575,cs),
(448,575,o),
(503,512,o),
(503,401,cs),
(503,297,ls),
(503,186,o),
(448,123,o),
(357,123,cs)
);
},
{
closed = 1;
nodes = (
(357,854,l),
(478,739,l),
(551,797,l),
(419,956,l),
(295,956,l),
(163,797,l),
(236,739,l)
);
}
);
};
layerId = "5E87F462-D40B-43EC-958D-42003ED2F346";
shapes = (
{
ref = O;
},
{
pos = (57,0);
ref = circumflex.case;
},
{
pos = (357,0);
ref = dotbelowcomb;
}
);
width = 714;
},
{
background = {
shapes = (
{
closed = 1;
nodes = (
(513,-12,o),
(610,109,o),
(610,349,cs),
(610,589,o),
(513,710,o),
(340,710,cs),
(167,710,o),
(70,589,o),
(70,349,cs),
(70,109,o),
(167,-12,o),
(340,-12,cs)
);
},
{
closed = 1;
nodes = (
(357,-134,o),
(363,-124,o),
(363,-113,cs),
(363,-106,ls),
(363,-95,o),
(357,-85,o),
(340,-85,cs),
(323,-85,o),
(317,-95,o),
(317,-106,cs),
(317,-113,ls),
(317,-124,o),
(323,-134,o),
(340,-134,cs)
);
},
{
closed = 1;
nodes = (
(187,8,o),
(94,117,o),
(94,328,cs),
(94,370,ls),
(94,581,o),
(187,690,o),
(340,690,cs),
(493,690,o),
(586,581,o),
(586,370,cs),
(586,328,ls),
(586,117,o),
(493,8,o),
(340,8,cs)
);
},
{
closed = 1;
nodes = (
(340,906,l),
(466,779,l),
(480,790,l),
(352,923,l),
(328,923,l),
(200,790,l),
(214,779,l)
);
}
);
};
layerId = "D69F2138-E7D7-470A-972F-2AC6B0C54BA2";
shapes = (
{
ref = O;
},
{
pos = (40,0);
ref = circumflex.case;
},
{
pos = (340,0);
ref = dotbelowcomb;
}
);
width = 680;
}
);
unicode = 7896;
userData = {
com.typemytype.robofont.mark = (
0.6,
0.986,
1,
1
);
};
},
{
glyphname = Ocircumflexgrave;
kernLeft = latn_uc_o;
kernRight = latn_uc_o;
lastChange = "2023-02-21 09:59:45 +0000";
layers = (
{
layerId = "E49AE6DE-96A1-45B5-978D-9231980F4AB5";
shapes = (
{
ref = O;
},
{
pos = (354,0);
ref = circumflexgrave.case;
}
);
width = 708;
},
{
background = {
shapes = (
{
closed = 1;
nodes = (
(542,-12,o),
(664,112,o),
(664,349,cs),
(664,586,o),
(542,710,o),
(357,710,cs),
(172,710,o),
(50,586,o),
(50,349,cs),
(50,112,o),
(172,-12,o),
(357,-12,cs)
);
},
{
closed = 1;
nodes = (
(266,123,o),
(211,186,o),
(211,297,cs),
(211,401,ls),
(211,512,o),
(266,575,o),
(357,575,cs),
(448,575,o),
(503,512,o),
(503,401,cs),
(503,297,ls),
(503,186,o),
(448,123,o),
(357,123,cs)
);
},
{
closed = 1;
nodes = (
(263,933,l),
(164,1127,l),
(50,1070,l),
(184,894,l)
);
},
{
closed = 1;
nodes = (
(357,835,l),
(481,731,l),
(549,795,l),
(404,942,l),
(310,942,l),
(165,795,l),
(233,731,l)
);
}
);
};
layerId = "5E87F462-D40B-43EC-958D-42003ED2F346";
shapes = (
{
ref = O;
},
{
pos = (357,0);
ref = circumflexgrave.case;
}
);
width = 714;
},
{
background = {
shapes = (
{
closed = 1;
nodes = (
(513,-12,o),
(610,109,o),
(610,349,cs),
(610,589,o),
(513,710,o),
(340,710,cs),
(167,710,o),
(70,589,o),
(70,349,cs),
(70,109,o),
(167,-12,o),
(340,-12,cs)
);
},
{
closed = 1;
nodes = (
(187,8,o),
(94,117,o),
(94,328,cs),
(94,370,ls),
(94,581,o),
(187,690,o),
(340,690,cs),
(493,690,o),
(586,581,o),
(586,370,cs),
(586,328,ls),
(586,117,o),
(493,8,o),
(340,8,cs)
);
},
{
closed = 1;
nodes = (
(241,887,l),
(130,1041,l),
(111,1029,l),
(226,877,l)
);
},
{
closed = 1;
nodes = (
(340,898,l),
(466,771,l),
(480,782,l),
(352,915,l),
(328,915,l),
(200,782,l),
(214,771,l)
);
}
);
};
layerId = "D69F2138-E7D7-470A-972F-2AC6B0C54BA2";
shapes = (
{
ref = O;
},
{
pos = (340,0);
ref = circumflexgrave.case;
}
);
width = 680;
}
);
unicode = 7890;
userData = {
com.typemytype.robofont.mark = (
0.6,
0.986,
1,
1
);
};
},
{
glyphname = Ocircumflexhookabove;
kernRight = uc_o;
lastChange = "2019-12-12 05:22:49 +0000";
layers = (
{
layerId = "E49AE6DE-96A1-45B5-978D-9231980F4AB5";
shapes = (
{
ref = O;
},
{
pos = (354,0);
ref = circumflexhook.case;
}
);
width = 708;
},
{
background = {
shapes = (
{
closed = 1;
nodes = (
(542,-12,o),
(664,112,o),
(664,349,cs),
(664,586,o),
(542,710,o),
(357,710,cs),
(172,710,o),
(50,586,o),
(50,349,cs),
(50,112,o),
(172,-12,o),
(357,-12,cs)
);
},
{
closed = 1;
nodes = (
(266,123,o),
(211,186,o),
(211,297,cs),
(211,401,ls),
(211,512,o),
(266,575,o),
(357,575,cs),
(448,575,o),
(503,512,o),
(503,401,cs),
(503,297,ls),
(503,186,o),
(448,123,o),
(357,123,cs)
);
},
{
closed = 1;
nodes = (
(357,835,l),
(481,731,l),
(549,795,l),
(404,942,l),
(310,942,l),
(165,795,l),
(233,731,l)
);
},
{
closed = 1;
nodes = (
(564,914,ls),
(597,954,o),
(627,1001,o),
(627,1041,cs),
(627,1079,o),
(603,1113,o),
(529,1113,cs),
(395,1113,l),
(395,1012,l),
(514,1012,l),
(471,915,l),
(537,881,l)
);
}
);
};
layerId = "5E87F462-D40B-43EC-958D-42003ED2F346";
shapes = (
{
ref = O;
},
{
pos = (357,0);
ref = circumflexhook.case;
}
);
width = 714;
},
{
background = {
shapes = (
{
closed = 1;
nodes = (
(513,-12,o),
(610,109,o),
(610,349,cs),
(610,589,o),
(513,710,o),
(340,710,cs),
(167,710,o),
(70,589,o),
(70,349,cs),
(70,109,o),
(167,-12,o),
(340,-12,cs)
);
},
{
closed = 1;
nodes = (
(187,8,o),
(94,117,o),
(94,328,cs),
(94,370,ls),
(94,581,o),
(187,690,o),
(340,690,cs),
(493,690,o),
(586,581,o),
(586,370,cs),
(586,328,ls),
(586,117,o),
(493,8,o),
(340,8,cs)
);
},
{
closed = 1;
nodes = (
(340,898,l),
(466,771,l),
(480,782,l),
(352,915,l),
(328,915,l),
(200,782,l),
(214,771,l)
);
},
{
closed = 1;
nodes = (
(508,951,ls),
(534,991,o),
(539,1001,o),
(539,1009,cs),
(539,1020,o),
(531,1027,o),
(516,1027,cs),
(379,1027,l),
(379,1009,l),
(520,1009,l),
(443,883,l),
(459,875,l)
);
}
);
};
layerId = "D69F2138-E7D7-470A-972F-2AC6B0C54BA2";
shapes = (
{
ref = O;
},
{
pos = (340,0);
ref = circumflexhook.case;
}
);
width = 680;
}
);
unicode = 7892;
userData = {
com.typemytype.robofont.mark = (
0.6,
0.986,
1,
1
);
};
},
{
glyphname = Ocircumflextilde;
kernLeft = latn_uc_o;
kernRight = latn_uc_o;
lastChange = "2023-02-21 09:59:45 +0000";
layers = (
{
layerId = "E49AE6DE-96A1-45B5-978D-9231980F4AB5";
shapes = (
{
ref = O;
},
{
pos = (354,0);
ref = circumflextilde.case;
}
);
width = 708;
},
{
background = {
shapes = (
{
closed = 1;
nodes = (
(542,-12,o),
(664,112,o),
(664,349,cs),
(664,586,o),
(542,710,o),
(357,710,cs),
(172,710,o),
(50,586,o),
(50,349,cs),
(50,112,o),
(172,-12,o),
(357,-12,cs)
);
},
{
closed = 1;
nodes = (
(266,123,o),
(211,186,o),
(211,297,cs),
(211,401,ls),
(211,512,o),
(266,575,o),
(357,575,cs),
(448,575,o),
(503,512,o),
(503,401,cs),
(503,297,ls),
(503,186,o),
(448,123,o),
(357,123,cs)
);
},
{
closed = 1;
nodes = (
(357,826,l),
(481,731,l),
(547,795,l),
(405,929,l),
(309,929,l),
(167,795,l),
(233,731,l)
);
},
{
closed = 1;
nodes = (
(485,958,o),
(522,986,o),
(546,1022,c),
(496,1086,l),
(475,1069,o),
(460,1061,o),
(437,1061,cs),
(411,1061,o),
(388,1071,o),
(359,1083,cs),
(334,1094,o),
(312,1103,o),
(282,1103,cs),
(229,1103,o),
(192,1075,o),
(168,1039,c),
(218,975,l),
(239,992,o),
(254,1000,o),
(277,1000,cs),
(303,1000,o),
(326,990,o),
(355,978,cs),
(380,967,o),
(402,958,o),
(432,958,cs)
);
}
);
};
layerId = "5E87F462-D40B-43EC-958D-42003ED2F346";
shapes = (
{
ref = O;
},
{
pos = (357,0);
ref = circumflextilde.case;
}
);
width = 714;
},
{
background = {
shapes = (
{
closed = 1;
nodes = (
(513,-12,o),
(610,109,o),
(610,349,cs),
(610,589,o),
(513,710,o),
(340,710,cs),
(167,710,o),
(70,589,o),
(70,349,cs),
(70,109,o),
(167,-12,o),
(340,-12,cs)
);
},
{
closed = 1;
nodes = (
(187,8,o),
(94,117,o),
(94,328,cs),
(94,370,ls),
(94,581,o),
(187,690,o),
(340,690,cs),
(493,690,o),
(586,581,o),
(586,370,cs),
(586,328,ls),
(586,117,o),
(493,8,o),
(340,8,cs)
);
},
{
closed = 1;
nodes = (
(340,898,l),
(466,771,l),
(480,782,l),
(352,915,l),
(328,915,l),
(200,782,l),
(214,771,l)
);
},
{
closed = 1;
nodes = (
(439,953,o),
(465,965,o),
(489,992,c),
(477,1004,l),
(456,982,o),
(436,971,o),
(412,971,cs),
(393,971,o),
(375,978,o),
(346,997,cs),
(312,1019,o),
(292,1027,o),
(269,1027,cs),
(241,1027,o),
(215,1015,o),
(191,988,c),
(203,976,l),
(224,998,o),
(244,1009,o),
(268,1009,cs),
(287,1009,o),
(305,1002,o),
(334,983,cs),
(368,961,o),
(388,953,o),
(411,953,cs)
);
}
);
};
layerId = "D69F2138-E7D7-470A-972F-2AC6B0C54BA2";
shapes = (
{
ref = O;
},
{
pos = (340,0);
ref = circumflextilde.case;
}
);
width = 680;
}
);
unicode = 7894;
userData = {
com.typemytype.robofont.mark = (
0.6,
0.986,
1,
1
);
};
},
{
glyphname = Odieresis;
kernLeft = latn_uc_o;
kernRight = latn_uc_o;
lastChange = "2023-02-21 09:59:45 +0000";
layers = (
{
layerId = "E49AE6DE-96A1-45B5-978D-9231980F4AB5";
shapes = (
{
ref = O;
},
{
pos = (54,0);
ref = dieresis.case;
}
);
width = 708;
},
{
background = {
shapes = (
{
closed = 1;
nodes = (
(542,-12,o),
(664,112,o),
(664,349,cs),
(664,586,o),
(542,710,o),
(357,710,cs),
(172,710,o),
(50,586,o),
(50,349,cs),
(50,112,o),
(172,-12,o),
(357,-12,cs)
);
},
{
closed = 1;
nodes = (
(266,123,o),
(211,186,o),
(211,297,cs),
(211,401,ls),
(211,512,o),
(266,575,o),
(357,575,cs),
(448,575,o),
(503,512,o),
(503,401,cs),
(503,297,ls),
(503,186,o),
(448,123,o),
(357,123,cs)
);
},
{
closed = 1;
nodes = (
(307,761,o),
(327,789,o),
(327,824,cs),
(327,849,ls),
(327,884,o),
(307,912,o),
(247,912,cs),
(187,912,o),
(167,884,o),
(167,849,cs),
(167,824,ls),
(167,789,o),
(187,761,o),
(247,761,cs)
);
},
{
closed = 1;
nodes = (
(527,761,o),
(547,789,o),
(547,824,cs),
(547,849,ls),
(547,884,o),
(527,912,o),
(467,912,cs),
(407,912,o),
(387,884,o),
(387,849,cs),
(387,824,ls),
(387,789,o),
(407,761,o),
(467,761,cs)
);
}
);
};
layerId = "5E87F462-D40B-43EC-958D-42003ED2F346";
shapes = (
{
ref = O;
},
{
pos = (57,0);
ref = dieresis.case;
}
);
width = 714;
},
{
background = {
shapes = (
{
closed = 1;
nodes = (
(513,-12,o),
(610,109,o),
(610,349,cs),
(610,589,o),
(513,710,o),
(340,710,cs),
(167,710,o),
(70,589,o),
(70,349,cs),
(70,109,o),
(167,-12,o),
(340,-12,cs)
);
},
{
closed = 1;
nodes = (
(187,8,o),
(94,117,o),
(94,328,cs),
(94,370,ls),
(94,581,o),
(187,690,o),
(340,690,cs),
(493,690,o),
(586,581,o),
(586,370,cs),
(586,328,ls),
(586,117,o),
(493,8,o),
(340,8,cs)
);
},
{
closed = 1;
nodes = (
(266,819,o),
(272,829,o),
(272,840,cs),
(272,847,ls),
(272,858,o),
(266,868,o),
(249,868,cs),
(232,868,o),
(226,858,o),
(226,847,cs),
(226,840,ls),
(226,829,o),
(232,819,o),
(249,819,cs)
);
},
{
closed = 1;
nodes = (
(448,819,o),
(454,829,o),
(454,840,cs),
(454,847,ls),
(454,858,o),
(448,868,o),
(431,868,cs),
(414,868,o),
(408,858,o),
(408,847,cs),
(408,840,ls),
(408,829,o),
(414,819,o),
(431,819,cs)
);
}
);
};
layerId = "D69F2138-E7D7-470A-972F-2AC6B0C54BA2";
shapes = (
{
ref = O;
},
{
pos = (40,0);
ref = dieresis.case;
}
);
width = 680;
}
);
unicode = 214;
userData = {
com.typemytype.robofont.mark = (
0.6,
0.986,
1,
1
);
};
},
{
glyphname = Odotbelow;
kernLeft = latn_uc_o;
kernRight = latn_uc_o;
lastChange = "2023-02-21 09:59:45 +0000";
layers = (
{
layerId = "E49AE6DE-96A1-45B5-978D-9231980F4AB5";
shapes = (
{
ref = O;
},
{
pos = (354,0);
ref = dotbelowcomb;
}
);
width = 708;
},
{
background = {
shapes = (
{
closed = 1;
nodes = (
(542,-12,o),
(664,112,o),
(664,349,cs),
(664,586,o),
(542,710,o),
(357,710,cs),
(172,710,o),
(50,586,o),
(50,349,cs),
(50,112,o),
(172,-12,o),
(357,-12,cs)
);
},
{
closed = 1;
nodes = (
(416,-204,o),
(438,-176,o),
(438,-141,cs),
(438,-115,ls),
(438,-80,o),
(416,-52,o),
(357,-52,cs),
(298,-52,o),
(276,-80,o),
(276,-115,cs),
(276,-141,ls),
(276,-176,o),
(298,-204,o),
(357,-204,cs)
);
},
{
closed = 1;
nodes = (
(266,123,o),
(211,186,o),
(211,297,cs),
(211,401,ls),
(211,512,o),
(266,575,o),
(357,575,cs),
(448,575,o),
(503,512,o),
(503,401,cs),
(503,297,ls),
(503,186,o),
(448,123,o),
(357,123,cs)
);
}
);
};
layerId = "5E87F462-D40B-43EC-958D-42003ED2F346";
shapes = (
{
ref = O;
},
{
pos = (357,0);
ref = dotbelowcomb;
}
);
width = 714;
},
{
background = {
shapes = (
{
closed = 1;
nodes = (
(513,-12,o),
(610,109,o),
(610,349,cs),
(610,589,o),
(513,710,o),
(340,710,cs),
(167,710,o),
(70,589,o),
(70,349,cs),
(70,109,o),
(167,-12,o),
(340,-12,cs)
);
},
{
closed = 1;
nodes = (
(357,-134,o),
(363,-124,o),
(363,-113,cs),
(363,-106,ls),
(363,-95,o),
(357,-85,o),
(340,-85,cs),
(323,-85,o),
(317,-95,o),
(317,-106,cs),
(317,-113,ls),
(317,-124,o),
(323,-134,o),
(340,-134,cs)
);
},
{
closed = 1;
nodes = (
(187,8,o),
(94,117,o),
(94,328,cs),
(94,370,ls),
(94,581,o),
(187,690,o),
(340,690,cs),
(493,690,o),
(586,581,o),
(586,370,cs),
(586,328,ls),
(586,117,o),
(493,8,o),
(340,8,cs)
);
}
);
};
layerId = "D69F2138-E7D7-470A-972F-2AC6B0C54BA2";
shapes = (
{
ref = O;
},
{
pos = (340,0);
ref = dotbelowcomb;
}
);
width = 680;
}
);
unicode = 7884;
userData = {
com.typemytype.robofont.mark = (
0.6,
0.986,
1,
1
);
};
},
{
glyphname = Ograve;
kernLeft = latn_uc_o;
kernRight = latn_uc_o;
lastChange = "2023-02-21 09:59:45 +0000";
layers = (
{
layerId = "E49AE6DE-96A1-45B5-978D-9231980F4AB5";
shapes = (
{
ref = O;
},
{
pos = (54,0);
ref = grave.case;
}
);
width = 708;
},
{
background = {
shapes = (
{
closed = 1;
nodes = (
(542,-12,o),
(664,112,o),
(664,349,cs),
(664,586,o),
(542,710,o),
(357,710,cs),
(172,710,o),
(50,586,o),
(50,349,cs),
(50,112,o),
(172,-12,o),
(357,-12,cs)
);
},
{
closed = 1;
nodes = (
(266,123,o),
(211,186,o),
(211,297,cs),
(211,401,ls),
(211,512,o),
(266,575,o),
(357,575,cs),
(448,575,o),
(503,512,o),
(503,401,cs),
(503,297,ls),
(503,186,o),
(448,123,o),
(357,123,cs)
);
},
{
closed = 1;
nodes = (
(429,783,l),
(330,977,l),
(207,916,l),
(341,740,l)
);
}
);
};
layerId = "5E87F462-D40B-43EC-958D-42003ED2F346";
shapes = (
{
ref = O;
},
{
pos = (57,0);
ref = grave.case;
}
);
width = 714;
},
{
background = {
shapes = (
{
closed = 1;
nodes = (
(513,-12,o),
(610,109,o),
(610,349,cs),
(610,589,o),
(513,710,o),
(340,710,cs),
(167,710,o),
(70,589,o),
(70,349,cs),
(70,109,o),
(167,-12,o),
(340,-12,cs)
);
},
{
closed = 1;
nodes = (
(187,8,o),
(94,117,o),
(94,328,cs),
(94,370,ls),
(94,581,o),
(187,690,o),
(340,690,cs),
(493,690,o),
(586,581,o),
(586,370,cs),
(586,328,ls),
(586,117,o),
(493,8,o),
(340,8,cs)
);
},
{
closed = 1;
nodes = (
(372,777,l),
(261,931,l),
(242,919,l),
(357,767,l)
);
}
);
};
layerId = "D69F2138-E7D7-470A-972F-2AC6B0C54BA2";
shapes = (
{
ref = O;
},
{
pos = (40,0);
ref = grave.case;
}
);
width = 680;
}
);
unicode = 210;
userData = {
com.typemytype.robofont.mark = (
0.6,
0.986,
1,
1
);
};
},
{
glyphname = Ohookabove;
kernRight = uc_o;
lastChange = "2019-12-12 13:31:24 +0000";
layers = (
{
background = {
shapes = (
{
ref = O;
},
{
pos = (354,0);
ref = hookcomb.case;
}
);
};
layerId = "E49AE6DE-96A1-45B5-978D-9231980F4AB5";
shapes = (
{
ref = O;
},
{
pos = (354,170);
ref = hookabovecomb;
}
);
width = 708;
},
{
background = {
shapes = (
{
closed = 1;
nodes = (
(542,-12,o),
(664,112,o),
(664,349,cs),
(664,586,o),
(542,710,o),
(357,710,cs),
(172,710,o),
(50,586,o),
(50,349,cs),
(50,112,o),
(172,-12,o),
(357,-12,cs)
);
},
{
closed = 1;
nodes = (
(266,123,o),
(211,186,o),
(211,297,cs),
(211,401,ls),
(211,512,o),
(266,575,o),
(357,575,cs),
(448,575,o),
(503,512,o),
(503,401,cs),
(503,297,ls),
(503,186,o),
(448,123,o),
(357,123,cs)
);
},
{
closed = 1;
nodes = (
(421,764,ls),
(454,804,o),
(478,851,o),
(478,890,cs),
(478,929,o),
(455,963,o),
(380,963,cs),
(237,963,l),
(237,857,l),
(359,857,l),
(318,765,l),
(393,730,l)
);
}
);
};
layerId = "5E87F462-D40B-43EC-958D-42003ED2F346";
shapes = (
{
ref = O;
},
{
pos = (357,159);
ref = hookabovecomb;
}
);
width = 714;
},
{
background = {
shapes = (
{
closed = 1;
nodes = (
(513,-12,o),
(610,109,o),
(610,349,cs),
(610,589,o),
(513,710,o),
(340,710,cs),
(167,710,o),
(70,589,o),
(70,349,cs),
(70,109,o),
(167,-12,o),
(340,-12,cs)
);
},
{
closed = 1;
nodes = (
(187,8,o),
(94,117,o),
(94,328,cs),
(94,370,ls),
(94,581,o),
(187,690,o),
(340,690,cs),
(493,690,o),
(586,581,o),
(586,370,cs),
(586,328,ls),
(586,117,o),
(493,8,o),
(340,8,cs)
);
},
{
closed = 1;
nodes = (
(395,841,ls),
(421,881,o),
(426,891,o),
(426,899,cs),
(426,910,o),
(418,917,o),
(403,917,cs),
(266,917,l),
(266,899,l),
(407,899,l),
(330,773,l),
(346,765,l)
);
}
);
};
layerId = "D69F2138-E7D7-470A-972F-2AC6B0C54BA2";
shapes = (
{
ref = O;
},
{
pos = (339,180);
ref = hookabovecomb;
}
);
width = 680;
}
);
unicode = 7886;
userData = {
com.typemytype.robofont.mark = (
0.6,
0.986,
1,
1
);
};
},
{
glyphname = Ohorn;
kernLeft = latn_uc_o;
kernRight = latn_uc_ohorn;
lastChange = "2023-02-21 09:59:45 +0000";
layers = (
{
anchors = (
{
name = bottom;
pos = (354,0);
},
{
name = top;
pos = (354,698);
}
);
layerId = "E49AE6DE-96A1-45B5-978D-9231980F4AB5";
shapes = (
{
closed = 1;
nodes = (
(534,-12,o),
(650,115,o),
(650,349,cs),
(650,475,o),
(619,577,o),
(540,647,c,{
name = hr02;
}),
(593,647,ls),
(643,647,o),
(656,674,o),
(656,710,cs,{
name = hr03;
}),
(656,810,l),
(585,810,l),
(585,698,l),
(444,698,l),
(416,706,o),
(386,710,o),
(354,710,cs,{
name = hr01;
}),
(174,710,o),
(58,583,o),
(58,349,cs),
(58,115,o),
(174,-12,o),
(354,-12,cs)
);
},
{
closed = 1;
nodes = (
(233,63,o),
(148,153,o),
(148,291,cs),
(148,407,ls),
(148,545,o),
(233,635,o),
(354,635,cs),
(475,635,o),
(560,545,o),
(560,407,cs,{
name = hr04;
}),
(560,291,ls),
(560,153,o),
(475,63,o),
(354,63,cs)
);
}
);
width = 708;
},
{
anchors = (
{
name = bottom;
pos = (357,0);
},
{
name = top;
pos = (357,698);
}
);
layerId = "5E87F462-D40B-43EC-958D-42003ED2F346";
shapes = (
{
closed = 1;
nodes = (
(542,-12,o),
(664,112,o),
(664,349,cs),
(664,462,o),
(636,549,o),
(587,609,c),
(592,609,ls),
(666,609,o),
(685,646,o),
(685,710,cs),
(685,804,l),
(561,804,l),
(561,698,l),
(450,698,l),
(422,706,o),
(390,710,o),
(357,710,cs),
(172,710,o),
(50,586,o),
(50,349,cs),
(50,112,o),
(172,-12,o),
(357,-12,cs)
);
},
{
closed = 1;
nodes = (
(266,123,o),
(211,186,o),
(211,297,cs),
(211,401,ls),
(211,512,o),
(266,575,o),
(357,575,cs),
(448,575,o),
(503,512,o),
(503,401,cs),
(503,297,ls),
(503,186,o),
(448,123,o),
(357,123,cs)
);
}
);
width = 714;
},
{
anchors = (
{
name = bottom;
pos = (340,0);
},
{
name = top;
pos = (340,698);
}
);
layerId = "D69F2138-E7D7-470A-972F-2AC6B0C54BA2";
shapes = (
{
closed = 1;
nodes = (
(513,-12,o),
(610,109,o),
(610,349,cs),
(610,528,o),
(559,629,o),
(470,680,c),
(579,680,ls),
(599,680,o),
(608,689,o),
(608,709,cs),
(608,812,l),
(588,812,l),
(588,698,l),
(428,698,l),
(399,707,o),
(375,710,o),
(340,710,cs),
(167,710,o),
(70,589,o),
(70,349,cs),
(70,109,o),
(167,-12,o),
(340,-12,cs)
);
},
{
closed = 1;
nodes = (
(187,8,o),
(94,117,o),
(94,328,cs),
(94,370,ls),
(94,581,o),
(187,690,o),
(340,690,cs),
(493,690,o),
(586,581,o),
(586,370,cs),
(586,328,ls),
(586,117,o),
(493,8,o),
(340,8,cs)
);
}
);
width = 680;
}
);
unicode = 416;
},
{
glyphname = Ohornacute;
kernLeft = latn_uc_o;
kernRight = latn_uc_ohorn;
lastChange = "2023-02-21 09:59:45 +0000";
layers = (
{
anchors = (
{
name = bottom;
pos = (354,0);
}
);
layerId = "E49AE6DE-96A1-45B5-978D-9231980F4AB5";
shapes = (
{
ref = Ohorn;
},
{
pos = (54,0);
ref = acute.case;
}
);
width = 708;
},
{
anchors = (
{
name = bottom;
pos = (354,0);
}
);
background = {
shapes = (
{
closed = 1;
nodes = (
(542,-12,o),
(664,112,o),
(664,349,cs),
(664,462,o),
(636,549,o),
(587,609,c),
(665,610,o),
(685,645,o),
(685,710,cs),
(685,804,l),
(561,804,l),
(561,698,l),
(450,698,l),
(422,706,o),
(390,710,o),
(357,710,cs),
(172,710,o),
(50,586,o),
(50,349,cs),
(50,112,o),
(172,-12,o),
(357,-12,cs)
);
},
{
closed = 1;
nodes = (
(266,123,o),
(211,186,o),
(211,297,cs),
(211,401,ls),
(211,512,o),
(266,575,o),
(357,575,cs),
(448,575,o),
(503,512,o),
(503,401,cs),
(503,297,ls),
(503,186,o),
(448,123,o),
(357,123,cs)
);
},
{
closed = 1;
nodes = (
(507,916,l),
(384,977,l),
(285,783,l),
(373,740,l)
);
}
);
};
layerId = "5E87F462-D40B-43EC-958D-42003ED2F346";
shapes = (
{
ref = Ohorn;
},
{
pos = (56,0);
ref = acute.case;
}
);
width = 714;
},
{
anchors = (
{
name = bottom;
pos = (354,0);
}
);
background = {
shapes = (
{
closed = 1;
nodes = (
(513,-12,o),
(610,109,o),
(610,349,cs),
(610,528,o),
(559,629,o),
(470,680,c),
(579,680,ls),
(599,680,o),
(608,689,o),
(608,709,cs),
(608,812,l),
(588,812,l),
(588,698,l),
(428,698,l),
(399,707,o),
(375,710,o),
(340,710,cs),
(167,710,o),
(70,589,o),
(70,349,cs),
(70,109,o),
(167,-12,o),
(340,-12,cs)
);
},
{
closed = 1;
nodes = (
(187,8,o),
(94,117,o),
(94,328,cs),
(94,370,ls),
(94,581,o),
(187,690,o),
(340,690,cs),
(493,690,o),
(586,581,o),
(586,370,cs),
(586,328,ls),
(586,117,o),
(493,8,o),
(340,8,cs)
);
},
{
closed = 1;
nodes = (
(437,919,l),
(418,931,l),
(307,777,l),
(322,767,l)
);
}
);
};
layerId = "D69F2138-E7D7-470A-972F-2AC6B0C54BA2";
shapes = (
{
ref = Ohorn;
},
{
pos = (40,0);
ref = acute.case;
}
);
width = 680;
}
);
unicode = 7898;
userData = {
com.typemytype.robofont.mark = (
0.6,
0.986,
1,
1
);
};
},
{
glyphname = Ohorndotbelow;
kernLeft = latn_uc_o;
kernRight = latn_uc_ohorn;
lastChange = "2023-02-21 09:59:45 +0000";
layers = (
{
anchors = (
{
name = top;
pos = (354,698);
}
);
layerId = "E49AE6DE-96A1-45B5-978D-9231980F4AB5";
shapes = (
{
ref = Ohorn;
},
{
pos = (354,0);
ref = dotbelowcomb;
}
);
width = 708;
},
{
anchors = (
{
name = top;
pos = (354,698);
}
);
background = {
shapes = (
{
closed = 1;
nodes = (
(542,-12,o),
(664,112,o),
(664,349,cs),
(664,462,o),
(636,549,o),
(587,609,c),
(665,610,o),
(685,645,o),
(685,710,cs),
(685,804,l),
(561,804,l),
(561,698,l),
(450,698,l),
(422,706,o),
(390,710,o),
(357,710,cs),
(172,710,o),
(50,586,o),
(50,349,cs),
(50,112,o),
(172,-12,o),
(357,-12,cs)
);
},
{
closed = 1;
nodes = (
(416,-204,o),
(438,-176,o),
(438,-141,cs),
(438,-115,ls),
(438,-80,o),
(416,-52,o),
(357,-52,cs),
(298,-52,o),
(276,-80,o),
(276,-115,cs),
(276,-141,ls),
(276,-176,o),
(298,-204,o),
(357,-204,cs)
);
},
{
closed = 1;
nodes = (
(266,123,o),
(211,186,o),
(211,297,cs),
(211,401,ls),
(211,512,o),
(266,575,o),
(357,575,cs),
(448,575,o),
(503,512,o),
(503,401,cs),
(503,297,ls),
(503,186,o),
(448,123,o),
(357,123,cs)
);
}
);
};
layerId = "5E87F462-D40B-43EC-958D-42003ED2F346";
shapes = (
{
ref = Ohorn;
},
{
pos = (357,0);
ref = dotbelowcomb;
}
);
width = 714;
},
{
anchors = (
{
name = top;
pos = (354,698);
}
);
background = {
shapes = (
{
closed = 1;
nodes = (
(513,-12,o),
(610,109,o),
(610,349,cs),
(610,528,o),
(559,629,o),
(470,680,c),
(579,680,ls),
(599,680,o),
(608,689,o),
(608,709,cs),
(608,812,l),
(588,812,l),
(588,698,l),
(428,698,l),
(399,707,o),
(375,710,o),
(340,710,cs),
(167,710,o),
(70,589,o),
(70,349,cs),
(70,109,o),
(167,-12,o),
(340,-12,cs)
);
},
{
closed = 1;
nodes = (
(363,-134,o),
(369,-124,o),
(369,-113,cs),
(369,-106,ls),
(369,-95,o),
(363,-85,o),
(346,-85,cs),
(329,-85,o),
(323,-95,o),
(323,-106,cs),
(323,-113,ls),
(323,-124,o),
(329,-134,o),
(346,-134,cs)
);
},
{
closed = 1;
nodes = (
(187,8,o),
(94,117,o),
(94,328,cs),
(94,370,ls),
(94,581,o),
(187,690,o),
(340,690,cs),
(493,690,o),
(586,581,o),
(586,370,cs),
(586,328,ls),
(586,117,o),
(493,8,o),
(340,8,cs)
);
}
);
};
layerId = "D69F2138-E7D7-470A-972F-2AC6B0C54BA2";
shapes = (
{
ref = Ohorn;
},
{
pos = (340,0);
ref = dotbelowcomb;
}
);
width = 680;
}
);
unicode = 7906;
userData = {
com.typemytype.robofont.mark = (
0.6,
0.986,
1,
1
);
};
},
{
glyphname = Ohorngrave;
kernLeft = latn_uc_o;
kernRight = latn_uc_ohorn;
lastChange = "2023-02-21 09:59:45 +0000";
layers = (
{
anchors = (
{
name = bottom;
pos = (354,0);
}
);
layerId = "E49AE6DE-96A1-45B5-978D-9231980F4AB5";
shapes = (
{
ref = Ohorn;
},
{
pos = (54,0);
ref = grave.case;
}
);
width = 708;
},
{
anchors = (
{
name = bottom;
pos = (354,0);
}
);
background = {
shapes = (
{
closed = 1;
nodes = (
(542,-12,o),
(664,112,o),
(664,349,cs),
(664,462,o),
(636,549,o),
(587,609,c),
(665,610,o),
(685,645,o),
(685,710,cs),
(685,804,l),
(561,804,l),
(561,698,l),
(450,698,l),
(422,706,o),
(390,710,o),
(357,710,cs),
(172,710,o),
(50,586,o),
(50,349,cs),
(50,112,o),
(172,-12,o),
(357,-12,cs)
);
},
{
closed = 1;
nodes = (
(266,123,o),
(211,186,o),
(211,297,cs),
(211,401,ls),
(211,512,o),
(266,575,o),
(357,575,cs),
(448,575,o),
(503,512,o),
(503,401,cs),
(503,297,ls),
(503,186,o),
(448,123,o),
(357,123,cs)
);
},
{
closed = 1;
nodes = (
(429,783,l),
(330,977,l),
(207,916,l),
(341,740,l)
);
}
);
};
layerId = "5E87F462-D40B-43EC-958D-42003ED2F346";
shapes = (
{
ref = Ohorn;
},
{
pos = (57,0);
ref = grave.case;
}
);
width = 714;
},
{
anchors = (
{
name = bottom;
pos = (354,0);
}
);
background = {
shapes = (
{
closed = 1;
nodes = (
(513,-12,o),
(610,109,o),
(610,349,cs),
(610,528,o),
(559,629,o),
(470,680,c),
(579,680,ls),
(599,680,o),
(608,689,o),
(608,709,cs),
(608,812,l),
(588,812,l),
(588,698,l),
(428,698,l),
(399,707,o),
(375,710,o),
(340,710,cs),
(167,710,o),
(70,589,o),
(70,349,cs),
(70,109,o),
(167,-12,o),
(340,-12,cs)
);
},
{
closed = 1;
nodes = (
(187,8,o),
(94,117,o),
(94,328,cs),
(94,370,ls),
(94,581,o),
(187,690,o),
(340,690,cs),
(493,690,o),
(586,581,o),
(586,370,cs),
(586,328,ls),
(586,117,o),
(493,8,o),
(340,8,cs)
);
},
{
closed = 1;
nodes = (
(372,777,l),
(261,931,l),
(242,919,l),
(357,767,l)
);
}
);
};
layerId = "D69F2138-E7D7-470A-972F-2AC6B0C54BA2";
shapes = (
{
ref = Ohorn;
},
{
pos = (40,0);
ref = grave.case;
}
);
width = 680;
}
);
unicode = 7900;
userData = {
com.typemytype.robofont.mark = (
0.6,
0.986,
1,
1
);
};
},
{
glyphname = Ohornhookabove;
kernRight = uc_ohorn;
lastChange = "2019-12-12 13:31:24 +0000";
layers = (
{
anchors = (
{
name = bottom;
pos = (354,0);
}
);
layerId = "E49AE6DE-96A1-45B5-978D-9231980F4AB5";
shapes = (
{
ref = Ohorn;
},
{
pos = (354,170);
ref = hookabovecomb;
}
);
width = 708;
},
{
anchors = (
{
name = bottom;
pos = (354,0);
}
);
background = {
shapes = (
{
closed = 1;
nodes = (
(542,-12,o),
(664,112,o),
(664,349,cs),
(664,462,o),
(636,549,o),
(587,609,c),
(665,610,o),
(685,645,o),
(685,710,cs),
(685,804,l),
(561,804,l),
(561,698,l),
(450,698,l),
(422,706,o),
(390,710,o),
(357,710,cs),
(172,710,o),
(50,586,o),
(50,349,cs),
(50,112,o),
(172,-12,o),
(357,-12,cs)
);
},
{
closed = 1;
nodes = (
(266,123,o),
(211,186,o),
(211,297,cs),
(211,401,ls),
(211,512,o),
(266,575,o),
(357,575,cs),
(448,575,o),
(503,512,o),
(503,401,cs),
(503,297,ls),
(503,186,o),
(448,123,o),
(357,123,cs)
);
},
{
closed = 1;
nodes = (
(421,764,ls),
(454,804,o),
(478,851,o),
(478,890,cs),
(478,929,o),
(455,963,o),
(380,963,cs),
(237,963,l),
(237,857,l),
(359,857,l),
(318,765,l),
(393,730,l)
);
}
);
};
layerId = "5E87F462-D40B-43EC-958D-42003ED2F346";
shapes = (
{
ref = Ohorn;
},
{
pos = (357,159);
ref = hookabovecomb;
}
);
width = 714;
},
{
anchors = (
{
name = bottom;
pos = (354,0);
}
);
background = {
shapes = (
{
closed = 1;
nodes = (
(513,-12,o),
(610,109,o),
(610,349,cs),
(610,528,o),
(559,629,o),
(470,680,c),
(579,680,ls),
(599,680,o),
(608,689,o),
(608,709,cs),
(608,812,l),
(588,812,l),
(588,698,l),
(428,698,l),
(399,707,o),
(375,710,o),
(340,710,cs),
(167,710,o),
(70,589,o),
(70,349,cs),
(70,109,o),
(167,-12,o),
(340,-12,cs)
);
},
{
closed = 1;
nodes = (
(187,8,o),
(94,117,o),
(94,328,cs),
(94,370,ls),
(94,581,o),
(187,690,o),
(340,690,cs),
(493,690,o),
(586,581,o),
(586,370,cs),
(586,328,ls),
(586,117,o),
(493,8,o),
(340,8,cs)
);
},
{
closed = 1;
nodes = (
(395,841,ls),
(421,881,o),
(426,891,o),
(426,899,cs),
(426,910,o),
(418,917,o),
(403,917,cs),
(266,917,l),
(266,899,l),
(407,899,l),
(330,773,l),
(346,765,l)
);
}
);
};
layerId = "D69F2138-E7D7-470A-972F-2AC6B0C54BA2";
shapes = (
{
ref = Ohorn;
},
{
pos = (339,180);
ref = hookabovecomb;
}
);
width = 680;
}
);
unicode = 7902;
userData = {
com.typemytype.robofont.mark = (
0.6,
0.986,
1,
1
);
};
},
{
glyphname = Ohorntilde;
kernLeft = latn_uc_o;
kernRight = latn_uc_ohorn;
lastChange = "2023-02-21 09:59:45 +0000";
layers = (
{
anchors = (
{
name = bottom;
pos = (354,0);
}
);
layerId = "E49AE6DE-96A1-45B5-978D-9231980F4AB5";
shapes = (
{
ref = Ohorn;
},
{
pos = (54,0);
ref = tilde.alt01.case;
}
);
width = 708;
},
{
anchors = (
{
name = bottom;
pos = (354,0);
}
);
background = {
shapes = (
{
closed = 1;
nodes = (
(542,-12,o),
(664,112,o),
(664,349,cs),
(664,462,o),
(636,549,o),
(587,609,c),
(665,610,o),
(685,645,o),
(685,710,cs),
(685,804,l),
(561,804,l),
(561,698,l),
(450,698,l),
(422,706,o),
(390,710,o),
(357,710,cs),
(172,710,o),
(50,586,o),
(50,349,cs),
(50,112,o),
(172,-12,o),
(357,-12,cs)
);
},
{
closed = 1;
nodes = (
(266,123,o),
(211,186,o),
(211,297,cs),
(211,401,ls),
(211,512,o),
(266,575,o),
(357,575,cs),
(448,575,o),
(503,512,o),
(503,401,cs),
(503,297,ls),
(503,186,o),
(448,123,o),
(357,123,cs)
);
},
{
closed = 1;
nodes = (
(471,762,o),
(503,791,o),
(525,828,c),
(474,890,l),
(457,875,o),
(442,869,o),
(425,869,cs),
(403,869,o),
(383,879,o),
(358,891,cs),
(336,902,o),
(317,911,o),
(291,911,cs),
(243,911,o),
(211,882,o),
(189,845,c),
(240,783,l),
(257,798,o),
(272,804,o),
(289,804,cs),
(311,804,o),
(331,794,o),
(356,782,cs),
(378,771,o),
(397,762,o),
(423,762,cs)
);
}
);
};
layerId = "5E87F462-D40B-43EC-958D-42003ED2F346";
shapes = (
{
ref = Ohorn;
},
{
pos = (57,0);
ref = tilde.alt01.case;
}
);
width = 714;
},
{
anchors = (
{
name = bottom;
pos = (354,0);
}
);
background = {
shapes = (
{
closed = 1;
nodes = (
(513,-12,o),
(610,109,o),
(610,349,cs),
(610,528,o),
(559,629,o),
(470,680,c),
(579,680,ls),
(599,680,o),
(608,689,o),
(608,709,cs),
(608,812,l),
(588,812,l),
(588,698,l),
(428,698,l),
(399,707,o),
(375,710,o),
(340,710,cs),
(167,710,o),
(70,589,o),
(70,349,cs),
(70,109,o),
(167,-12,o),
(340,-12,cs)
);
},
{
closed = 1;
nodes = (
(187,8,o),
(94,117,o),
(94,328,cs),
(94,370,ls),
(94,581,o),
(187,690,o),
(340,690,cs),
(493,690,o),
(586,581,o),
(586,370,cs),
(586,328,ls),
(586,117,o),
(493,8,o),
(340,8,cs)
);
},
{
closed = 1;
nodes = (
(444,808,o),
(470,820,o),
(494,847,c),
(482,859,l),
(461,837,o),
(441,826,o),
(417,826,cs),
(398,826,o),
(380,833,o),
(351,852,cs),
(317,874,o),
(297,882,o),
(274,882,cs),
(246,882,o),
(220,870,o),
(196,843,c),
(208,831,l),
(229,853,o),
(249,864,o),
(273,864,cs),
(292,864,o),
(310,857,o),
(339,838,cs),
(373,816,o),
(393,808,o),
(416,808,cs)
);
}
);
};
layerId = "D69F2138-E7D7-470A-972F-2AC6B0C54BA2";
shapes = (
{
ref = Ohorn;
},
{
pos = (40,0);
ref = tilde.alt01.case;
}
);
width = 680;
}
);
unicode = 7904;
userData = {
com.typemytype.robofont.mark = (
0.6,
0.986,
1,
1
);
};
},
{
glyphname = Ohungarumlaut;
kernLeft = latn_uc_o;
kernRight = latn_uc_o;
lastChange = "2023-02-21 09:59:45 +0000";
layers = (
{
anchors = (
{
name = bottom;
pos = (354,0);
}
);
layerId = "E49AE6DE-96A1-45B5-978D-9231980F4AB5";
shapes = (
{
ref = O;
},
{
pos = (54,0);
ref = hungarumlaut.case;
}
);
width = 708;
},
{
anchors = (
{
name = bottom;
pos = (354,0);
}
);
background = {
shapes = (
{
closed = 1;
nodes = (
(542,-12,o),
(664,112,o),
(664,349,cs),
(664,586,o),
(542,710,o),
(357,710,cs),
(172,710,o),
(50,586,o),
(50,349,cs),
(50,112,o),
(172,-12,o),
(357,-12,cs)
);
},
{
closed = 1;
nodes = (
(266,123,o),
(211,186,o),
(211,297,cs),
(211,401,ls),
(211,512,o),
(266,575,o),
(357,575,cs),
(448,575,o),
(503,512,o),
(503,401,cs),
(503,297,ls),
(503,186,o),
(448,123,o),
(357,123,cs)
);
},
{
closed = 1;
nodes = (
(401,916,l),
(285,973,l),
(186,779,l),
(267,740,l)
);
},
{
closed = 1;
nodes = (
(606,916,l),
(490,973,l),
(391,779,l),
(472,740,l)
);
}
);
};
layerId = "5E87F462-D40B-43EC-958D-42003ED2F346";
shapes = (
{
ref = O;
},
{
pos = (57,0);
ref = hungarumlaut.case;
}
);
width = 714;
},
{
anchors = (
{
name = bottom;
pos = (354,0);
}
);
background = {
shapes = (
{
closed = 1;
nodes = (
(513,-12,o),
(610,109,o),
(610,349,cs),
(610,589,o),
(513,710,o),
(340,710,cs),
(167,710,o),
(70,589,o),
(70,349,cs),
(70,109,o),
(167,-12,o),
(340,-12,cs)
);
},
{
closed = 1;
nodes = (
(187,8,o),
(94,117,o),
(94,328,cs),
(94,370,ls),
(94,581,o),
(187,690,o),
(340,690,cs),
(493,690,o),
(586,581,o),
(586,370,cs),
(586,328,ls),
(586,117,o),
(493,8,o),
(340,8,cs)
);
},
{
closed = 1;
nodes = (
(375,919,l),
(356,931,l),
(245,777,l),
(260,767,l)
);
},
{
closed = 1;
nodes = (
(535,919,l),
(516,931,l),
(405,777,l),
(420,767,l)
);
}
);
};
layerId = "D69F2138-E7D7-470A-972F-2AC6B0C54BA2";
shapes = (
{
ref = O;
},
{
pos = (40,0);
ref = hungarumlaut.case;
}
);
width = 680;
}
);
unicode = 336;
userData = {
com.typemytype.robofont.mark = (
0.6,
0.986,
1,
1
);
};
},
{
glyphname = Omacron;
kernLeft = latn_uc_o;
kernRight = latn_uc_o;
lastChange = "2023-02-21 09:59:45 +0000";
layers = (
{
anchors = (
{
name = bottom;
pos = (354,0);
}
);
layerId = "E49AE6DE-96A1-45B5-978D-9231980F4AB5";
shapes = (
{
ref = O;
},
{
pos = (54,0);
ref = macron.case;
}
);
width = 708;
},
{
anchors = (
{
name = bottom;
pos = (354,0);
}
);
background = {
shapes = (
{
closed = 1;
nodes = (
(542,-12,o),
(664,112,o),
(664,349,cs),
(664,586,o),
(542,710,o),
(357,710,cs),
(172,710,o),
(50,586,o),
(50,349,cs),
(50,112,o),
(172,-12,o),
(357,-12,cs)
);
},
{
closed = 1;
nodes = (
(266,123,o),
(211,186,o),
(211,297,cs),
(211,401,ls),
(211,512,o),
(266,575,o),
(357,575,cs),
(448,575,o),
(503,512,o),
(503,401,cs),
(503,297,ls),
(503,186,o),
(448,123,o),
(357,123,cs)
);
},
{
closed = 1;
nodes = (
(510,785,l),
(510,888,l),
(204,888,l),
(204,785,l)
);
}
);
};
layerId = "5E87F462-D40B-43EC-958D-42003ED2F346";
shapes = (
{
ref = O;
},
{
pos = (57,0);
ref = macron.case;
}
);
width = 714;
},
{
anchors = (
{
name = bottom;
pos = (354,0);
}
);
background = {
shapes = (
{
closed = 1;
nodes = (
(513,-12,o),
(610,109,o),
(610,349,cs),
(610,589,o),
(513,710,o),
(340,710,cs),
(167,710,o),
(70,589,o),
(70,349,cs),
(70,109,o),
(167,-12,o),
(340,-12,cs)
);
},
{
closed = 1;
nodes = (
(187,8,o),
(94,117,o),
(94,328,cs),
(94,370,ls),
(94,581,o),
(187,690,o),
(340,690,cs),
(493,690,o),
(586,581,o),
(586,370,cs),
(586,328,ls),
(586,117,o),
(493,8,o),
(340,8,cs)
);
},
{
closed = 1;
nodes = (
(469,838,l),
(469,856,l),
(211,856,l),
(211,838,l)
);
}
);
};
layerId = "D69F2138-E7D7-470A-972F-2AC6B0C54BA2";
shapes = (
{
ref = O;
},
{
pos = (40,0);
ref = macron.case;
}
);
width = 680;
}
);
unicode = 332;
userData = {
com.typemytype.robofont.mark = (
0.6,
0.986,
1,
1
);
};
},
{
glyphname = Oslash;
kernLeft = latn_uc_o;
kernRight = latn_uc_o;
lastChange = "2023-02-21 09:59:45 +0000";
layers = (
{
anchors = (
{
name = top;
pos = (354,698);
}
);
layerId = "E49AE6DE-96A1-45B5-978D-9231980F4AB5";
shapes = (
{
closed = 1;
nodes = (
(181,41,l),
(228,6,o),
(286,-12,o),
(354,-12,cs,{
name = hr00;
}),
(534,-12,o),
(650,115,o),
(650,349,cs),
(650,461,o),
(624,548,o),
(576,609,c),
(644,706,l),
(587,743,l),
(527,657,l),
(480,692,o),
(422,710,o),
(354,710,cs),
(174,710,o),
(58,583,o),
(58,349,cs),
(58,237,o),
(84,150,o),
(132,89,c),
(64,-8,l),
(121,-45,l)
);
},
{
closed = 1;
nodes = (
(304,63,o),
(260,78,o),
(226,106,c),
(528,538,l),
(548,502,o),
(560,458,o),
(560,407,cs),
(560,291,ls),
(560,153,o),
(475,63,o),
(354,63,cs)
);
},
{
closed = 1;
nodes = (
(160,196,o),
(148,240,o),
(148,291,cs),
(148,407,ls),
(148,545,o),
(233,635,o),
(354,635,cs),
(404,635,o),
(448,620,o),
(482,592,c),
(180,160,l)
);
}
);
width = 708;
},
{
anchors = (
{
name = top;
pos = (357,698);
}
);
layerId = "5E87F462-D40B-43EC-958D-42003ED2F346";
shapes = (
{
closed = 1;
nodes = (
(207,22,l),
(250,0,o),
(301,-12,o),
(357,-12,cs),
(542,-12,o),
(664,112,o),
(664,349,cs),
(664,459,o),
(638,545,o),
(591,605,c),
(652,695,l),
(560,754,l),
(507,676,l),
(464,698,o),
(413,710,o),
(357,710,cs),
(172,710,o),
(50,586,o),
(50,349,cs),
(50,239,o),
(76,153,o),
(123,93,c),
(62,3,l),
(154,-56,l)
);
},
{
closed = 1;
nodes = (
(325,112,o),
(297,119,o),
(275,133,c),
(498,487,l),
(506,463,o),
(510,435,o),
(510,404,cs),
(510,294,ls),
(510,178,o),
(453,112,o),
(357,112,cs)
);
},
{
closed = 1;
nodes = (
(208,235,o),
(204,263,o),
(204,294,cs),
(204,404,ls),
(204,520,o),
(261,586,o),
(357,586,cs),
(389,586,o),
(417,579,o),
(439,565,c),
(216,211,l)
);
}
);
width = 714;
},
{
anchors = (
{
name = top;
pos = (340,698);
}
);
layerId = "D69F2138-E7D7-470A-972F-2AC6B0C54BA2";
shapes = (
{
closed = 1;
nodes = (
(153,63,l),
(198,13,o),
(261,-12,o),
(340,-12,cs),
(513,-12,o),
(610,109,o),
(610,349,cs),
(610,469,o),
(586,559,o),
(540,619,c),
(610,720,l),
(593,731,l),
(527,636,l),
(481,685,o),
(418,710,o),
(340,710,cs),
(167,710,o),
(70,589,o),
(70,349,cs),
(70,230,o),
(94,140,o),
(139,80,c),
(70,-20,l),
(88,-31,l)
);
},
{
closed = 1;
nodes = (
(267,8,o),
(208,33,o),
(166,81,c),
(527,600,l),
(565,547,o),
(586,470,o),
(586,370,cs),
(586,328,ls),
(586,117,o),
(493,8,o),
(340,8,cs)
);
},
{
closed = 1;
nodes = (
(115,152,o),
(94,229,o),
(94,328,cs),
(94,370,ls),
(94,581,o),
(187,690,o),
(340,690,cs),
(413,690,o),
(472,665,o),
(514,617,c),
(152,98,l)
);
}
);
width = 680;
}
);
unicode = 216;
},
{
glyphname = Oslashacute;
kernLeft = latn_uc_o;
kernRight = latn_uc_o;
lastChange = "2023-02-21 09:59:45 +0000";
layers = (
{
layerId = "E49AE6DE-96A1-45B5-978D-9231980F4AB5";
shapes = (
{
ref = Oslash;
},
{
pos = (54,0);
ref = acute.case;
}
);
width = 708;
},
{
background = {
shapes = (
{
closed = 1;
nodes = (
(207,22,l),
(250,0,o),
(301,-12,o),
(357,-12,cs),
(542,-12,o),
(664,112,o),
(664,349,cs),
(664,459,o),
(638,545,o),
(591,605,c),
(652,695,l),
(560,754,l),
(507,676,l),
(464,698,o),
(413,710,o),
(357,710,cs),
(172,710,o),
(50,586,o),
(50,349,cs),
(50,239,o),
(76,153,o),
(123,93,c),
(62,3,l),
(154,-56,l)
);
},
{
closed = 1;
nodes = (
(325,112,o),
(297,119,o),
(275,133,c),
(498,487,l),
(506,463,o),
(510,435,o),
(510,404,cs),
(510,294,ls),
(510,178,o),
(453,112,o),
(357,112,cs)
);
},
{
closed = 1;
nodes = (
(208,235,o),
(204,263,o),
(204,294,cs),
(204,404,ls),
(204,520,o),
(261,586,o),
(357,586,cs),
(389,586,o),
(417,579,o),
(439,565,c),
(216,211,l)
);
},
{
closed = 1;
nodes = (
(507,916,l),
(384,977,l),
(285,783,l),
(373,740,l)
);
}
);
};
layerId = "5E87F462-D40B-43EC-958D-42003ED2F346";
shapes = (
{
ref = Oslash;
},
{
pos = (56,0);
ref = acute.case;
}
);
width = 714;
},
{
background = {
shapes = (
{
closed = 1;
nodes = (
(153,63,l),
(198,13,o),
(261,-12,o),
(340,-12,cs),
(513,-12,o),
(610,109,o),
(610,349,cs),
(610,469,o),
(586,559,o),
(540,619,c),
(610,720,l),
(593,731,l),
(527,636,l),
(481,685,o),
(418,710,o),
(340,710,cs),
(167,710,o),
(70,589,o),
(70,349,cs),
(70,230,o),
(94,140,o),
(139,80,c),
(70,-20,l),
(88,-31,l)
);
},
{
closed = 1;
nodes = (
(267,8,o),
(208,33,o),
(166,81,c),
(527,600,l),
(565,547,o),
(586,470,o),
(586,370,cs),
(586,328,ls),
(586,117,o),
(493,8,o),
(340,8,cs)
);
},
{
closed = 1;
nodes = (
(115,152,o),
(94,229,o),
(94,328,cs),
(94,370,ls),
(94,581,o),
(187,690,o),
(340,690,cs),
(413,690,o),
(472,665,o),
(514,617,c),
(152,98,l)
);
},
{
closed = 1;
nodes = (
(437,919,l),
(418,931,l),
(307,777,l),
(322,767,l)
);
}
);
};
layerId = "D69F2138-E7D7-470A-972F-2AC6B0C54BA2";
shapes = (
{
ref = Oslash;
},
{
pos = (40,0);
ref = acute.case;
}
);
width = 680;
}
);
unicode = 510;
userData = {
com.typemytype.robofont.mark = (
0.6,
0.986,
1,
1
);
};
},
{
glyphname = Otilde;
kernLeft = latn_uc_o;
kernRight = latn_uc_o;
lastChange = "2023-02-21 09:59:45 +0000";
layers = (
{
anchors = (
{
name = bottom;
pos = (354,0);
}
);
layerId = "E49AE6DE-96A1-45B5-978D-9231980F4AB5";
shapes = (
{
ref = O;
},
{
pos = (54,0);
ref = tilde.case;
}
);
width = 708;
},
{
anchors = (
{
name = bottom;
pos = (354,0);
}
);
background = {
shapes = (
{
closed = 1;
nodes = (
(542,-12,o),
(664,112,o),
(664,349,cs),
(664,586,o),
(542,710,o),
(357,710,cs),
(172,710,o),
(50,586,o),
(50,349,cs),
(50,112,o),
(172,-12,o),
(357,-12,cs)
);
},
{
closed = 1;
nodes = (
(266,123,o),
(211,186,o),
(211,297,cs),
(211,401,ls),
(211,512,o),
(266,575,o),
(357,575,cs),
(448,575,o),
(503,512,o),
(503,401,cs),
(503,297,ls),
(503,186,o),
(448,123,o),
(357,123,cs)
);
},
{
closed = 1;
nodes = (
(486,762,o),
(523,790,o),
(547,826,c),
(495,894,l),
(474,877,o),
(459,869,o),
(436,869,cs),
(410,869,o),
(387,879,o),
(358,891,cs),
(333,902,o),
(311,911,o),
(281,911,cs),
(228,911,o),
(191,883,o),
(167,847,c),
(219,779,l),
(240,796,o),
(255,804,o),
(278,804,cs),
(304,804,o),
(327,794,o),
(356,782,cs),
(381,771,o),
(403,762,o),
(433,762,cs)
);
}
);
};
layerId = "5E87F462-D40B-43EC-958D-42003ED2F346";
shapes = (
{
ref = O;
},
{
pos = (57,0);
ref = tilde.case;
}
);
width = 714;
},
{
anchors = (
{
name = bottom;
pos = (354,0);
}
);
background = {
shapes = (
{
closed = 1;
nodes = (
(513,-12,o),
(610,109,o),
(610,349,cs),
(610,589,o),
(513,710,o),
(340,710,cs),
(167,710,o),
(70,589,o),
(70,349,cs),
(70,109,o),
(167,-12,o),
(340,-12,cs)
);
},
{
closed = 1;
nodes = (
(187,8,o),
(94,117,o),
(94,328,cs),
(94,370,ls),
(94,581,o),
(187,690,o),
(340,690,cs),
(493,690,o),
(586,581,o),
(586,370,cs),
(586,328,ls),
(586,117,o),
(493,8,o),
(340,8,cs)
);
},
{
closed = 1;
nodes = (
(439,808,o),
(465,820,o),
(489,847,c),
(477,859,l),
(456,837,o),
(436,826,o),
(412,826,cs),
(393,826,o),
(375,833,o),
(346,852,cs),
(312,874,o),
(292,882,o),
(269,882,cs),
(241,882,o),
(215,870,o),
(191,843,c),
(203,831,l),
(224,853,o),
(244,864,o),
(268,864,cs),
(287,864,o),
(305,857,o),
(334,838,cs),
(368,816,o),
(388,808,o),
(411,808,cs)
);
}
);
};
layerId = "D69F2138-E7D7-470A-972F-2AC6B0C54BA2";
shapes = (
{
ref = O;
},
{
pos = (40,0);
ref = tilde.case;
}
);
width = 680;
}
);
unicode = 213;
userData = {
com.typemytype.robofont.mark = (
0.6,
0.986,
1,
1
);
};
},
